<?xml version="1.0" standalone="no"?><!DOCTYPE svg PUBLIC "-//W3C//DTD SVG 1.1//EN" "http://www.w3.org/Graphics/SVG/1.1/DTD/svg11.dtd"><svg height="1061" node-id="1" sillyvg="true" template-height="1061" template-width="1024" version="1.1" viewBox="0 0 1024 1061" width="1024" xmlns="http://www.w3.org/2000/svg" xmlns:xlink="http://www.w3.org/1999/xlink"><defs node-id="143"><clipPath id="master_svg0_2_1588" node-id="3"><path d="M 0.00 0.00 L 1024.00 0.00 L 1024.00 1061.30 L 0.00 1061.30 Z" fill="#000000" fill-rule="nonzero" node-id="146" stroke="none" target-height="1061.3" target-width="1024" target-x="0" target-y="0"></path></clipPath></defs><g clip-path="url(#master_svg0_2_1588)" id="sillyvg_g_0" node-id="150"><path d="M 0.00 0.00 L 1024.00 0.00 L 1024.00 1061.30 L 0.00 1061.30 L 0.00 0.00 Z M 430.00 131.70 L 421.90 137.40 L 414.80 144.30 L 408.80 152.10 L 406.30 156.40 L 402.10 165.40 L 400.00 171.30 L 398.40 177.30 L 397.30 183.50 L 396.70 189.70 L 396.50 195.90 L 396.80 202.20 L 397.50 208.40 L 400.10 220.60 L 393.20 224.80 L 390.80 225.90 L 389.70 226.00 L 388.70 225.70 L 386.90 224.40 L 382.60 220.50 L 374.50 212.00 L 369.00 205.20 L 363.80 198.20 L 350.10 178.40 L 341.60 168.10 L 333.80 160.70 L 329.70 157.60 L 320.90 152.00 L 316.20 149.70 L 311.30 147.90 L 306.30 146.40 L 302.40 146.00 L 294.50 146.00 L 290.60 146.60 L 288.20 147.40 L 283.60 150.00 L 280.50 152.80 L 277.70 155.80 L 275.40 159.20 L 273.50 162.90 L 270.50 170.70 L 269.00 176.80 L 268.10 182.90 L 267.80 189.60 L 268.10 196.30 L 268.70 203.00 L 269.90 209.70 L 271.50 216.30 L 273.50 222.70 L 275.90 229.00 L 278.70 235.10 L 281.70 240.40 L 284.90 245.40 L 288.50 250.20 L 292.50 254.80 L 296.70 259.10 L 301.20 263.10 L 306.00 266.70 L 311.00 270.00 L 316.30 273.00 L 321.70 275.40 L 327.30 277.50 L 333.20 279.10 L 321.60 295.20 L 311.80 311.10 L 307.40 319.30 L 291.10 351.60 L 286.90 358.60 L 282.10 365.20 L 265.60 384.70 L 259.20 394.30 L 256.30 399.90 L 253.90 405.70 L 251.90 411.80 L 250.30 418.00 L 249.30 424.20 L 248.70 430.50 L 248.30 440.30 L 245.10 453.80 L 244.80 457.20 L 244.60 471.20 L 245.80 480.50 L 248.70 490.80 L 250.90 496.30 L 256.40 506.90 L 263.20 516.80 L 268.80 523.80 L 274.80 530.50 L 267.50 529.30 L 240.90 523.40 L 236.00 522.80 L 229.20 522.70 L 227.60 523.40 L 226.10 524.50 L 225.10 526.00 L 224.40 527.70 L 224.50 531.40 L 225.10 533.10 L 227.90 537.00 L 230.00 538.80 L 237.60 543.60 L 241.70 545.60 L 254.10 550.70 L 244.30 549.80 L 205.20 544.90 L 188.80 544.00 L 175.60 544.40 L 171.80 545.50 L 170.00 546.40 L 167.20 548.90 L 165.70 551.90 L 165.30 554.40 L 165.50 556.90 L 166.70 560.10 L 169.50 563.20 L 171.40 564.60 L 176.60 567.20 L 187.00 570.10 L 198.20 572.20 L 220.80 575.30 L 237.80 576.90 L 289.00 581.00 L 263.20 586.50 L 246.30 590.90 L 229.60 595.80 L 221.50 598.80 L 213.50 602.20 L 207.10 606.00 L 203.60 609.50 L 202.20 611.60 L 201.70 613.30 L 201.50 614.90 L 201.80 616.70 L 203.40 619.80 L 206.10 622.20 L 207.70 622.80 L 213.10 623.10 L 220.30 622.20 L 276.80 609.30 L 262.00 617.20 L 247.90 626.30 L 234.50 636.40 L 228.10 642.50 L 224.70 647.20 L 223.50 649.90 L 223.20 653.30 L 223.60 655.00 L 225.20 657.90 L 227.80 660.00 L 229.30 660.60 L 231.10 660.90 L 234.30 660.50 L 237.40 659.50 L 240.30 658.10 L 262.90 644.10 L 277.50 635.60 L 292.40 627.70 L 303.80 622.10 L 315.30 616.90 L 327.00 612.00 L 338.90 607.60 L 343.80 606.40 L 344.90 606.60 L 346.00 607.40 L 338.10 624.90 L 331.30 643.00 L 327.30 655.30 L 323.90 667.80 L 320.90 680.40 L 318.50 693.10 L 315.60 715.40 L 314.70 734.40 L 314.90 762.80 L 297.50 766.30 L 280.40 771.00 L 271.50 774.00 L 262.70 777.40 L 254.10 781.10 L 245.70 785.30 L 240.30 788.40 L 228.40 796.60 L 216.20 798.50 L 209.90 800.10 L 203.70 802.10 L 191.60 807.20 L 183.60 811.80 L 181.60 813.70 L 180.00 815.80 L 177.50 820.60 L 176.70 823.20 L 175.40 831.20 L 175.20 841.20 L 175.70 847.20 L 177.80 859.10 L 179.70 866.60 L 182.00 874.10 L 184.80 881.50 L 188.00 888.70 L 191.60 895.60 L 195.70 902.30 L 199.10 907.00 L 206.80 915.90 L 211.10 920.00 L 214.80 923.00 L 218.70 925.70 L 222.90 928.00 L 227.40 929.80 L 231.90 931.20 L 236.60 932.10 L 241.30 932.40 L 246.10 932.20 L 270.50 927.70 L 283.00 925.10 L 307.80 919.00 L 326.20 913.60 L 344.40 907.70 L 350.50 925.00 L 351.10 926.30 L 352.90 928.30 L 354.70 929.30 L 360.50 931.70 L 367.50 933.80 L 374.60 935.40 L 381.70 936.60 L 389.00 937.40 L 396.30 937.70 L 403.50 937.50 L 410.70 936.90 L 417.90 935.80 L 426.50 933.50 L 430.70 931.80 L 442.80 926.20 L 464.80 928.90 L 475.80 929.90 L 486.90 930.40 L 498.00 930.30 L 509.10 929.60 L 511.60 929.90 L 524.30 934.20 L 529.80 935.50 L 541.00 936.90 L 546.70 937.10 L 559.10 936.90 L 565.80 936.20 L 572.50 935.10 L 579.10 933.50 L 585.60 931.50 L 592.00 929.20 L 598.80 925.90 L 600.80 924.30 L 602.40 920.50 L 606.20 908.70 L 622.40 913.60 L 638.70 918.10 L 667.50 924.90 L 680.00 927.20 L 705.10 930.90 L 716.30 932.80 L 722.00 933.30 L 729.50 932.80 L 736.80 930.90 L 743.70 927.80 L 748.60 924.90 L 753.20 921.70 L 759.00 916.60 L 764.30 911.10 L 769.10 905.10 L 773.50 898.90 L 777.50 892.30 L 781.00 885.50 L 784.00 878.40 L 786.60 871.20 L 788.80 863.90 L 790.40 856.20 L 791.50 848.40 L 792.00 843.20 L 791.70 832.80 L 790.90 827.60 L 789.60 822.60 L 787.70 817.70 L 786.20 815.10 L 784.40 812.90 L 782.30 811.00 L 778.80 808.70 L 774.90 806.80 L 766.80 803.80 L 771.30 799.10 L 775.40 794.20 L 779.10 788.90 L 782.30 783.30 L 787.80 771.50 L 791.10 762.40 L 793.80 753.10 L 799.00 752.60 L 804.10 751.40 L 809.00 749.40 L 813.70 747.00 L 818.10 744.30 L 822.40 741.20 L 830.10 734.00 L 836.70 725.90 L 840.70 719.50 L 844.30 712.90 L 847.30 706.00 L 849.80 698.90 L 851.80 691.70 L 853.10 684.30 L 853.90 676.80 L 854.10 669.30 L 853.60 661.70 L 851.80 655.10 L 850.60 653.20 L 848.50 651.30 L 847.00 650.70 L 845.50 650.40 L 844.20 650.70 L 841.80 652.40 L 835.90 658.30 L 823.50 668.80 L 825.10 660.00 L 825.20 655.60 L 824.70 651.10 L 823.80 649.90 L 822.60 649.10 L 819.90 648.10 L 816.90 647.80 L 811.10 654.30 L 808.00 657.40 L 799.70 662.90 L 789.80 668.00 L 781.80 672.60 L 778.80 674.80 L 773.30 680.30 L 768.80 686.60 L 767.00 690.10 L 765.10 695.00 L 763.70 700.00 L 762.80 705.20 L 762.40 710.40 L 762.50 715.70 L 764.00 726.70 L 765.50 732.40 L 769.30 743.60 L 767.30 752.60 L 765.80 756.90 L 763.10 763.30 L 760.00 769.50 L 757.50 773.40 L 751.70 780.50 L 748.30 783.70 L 743.50 787.50 L 738.30 790.90 L 732.80 793.70 L 713.20 783.60 L 703.10 779.10 L 687.80 772.80 L 672.20 767.10 L 671.30 754.90 L 669.90 742.70 L 667.90 730.70 L 665.50 718.60 L 662.50 706.70 L 659.00 695.00 L 655.00 683.40 L 650.50 672.00 L 639.90 649.80 L 634.00 639.00 L 627.80 628.30 L 621.20 617.90 L 614.30 607.70 L 627.80 598.40 L 640.60 588.00 L 652.40 576.60 L 662.20 565.40 L 670.80 553.20 L 675.90 544.60 L 680.50 535.90 L 684.70 526.80 L 689.10 516.00 L 692.90 505.00 L 696.30 493.80 L 699.20 482.50 L 701.60 471.10 L 704.90 450.10 L 706.60 431.10 L 707.10 416.70 L 707.10 402.40 L 705.70 373.70 L 717.70 378.40 L 726.10 380.40 L 730.40 380.90 L 737.20 381.20 L 748.70 380.70 L 757.60 379.00 L 764.50 377.10 L 771.20 374.60 L 777.60 371.60 L 783.80 368.10 L 789.80 364.20 L 795.50 360.00 L 801.00 355.30 L 811.00 345.30 L 815.50 339.70 L 819.70 333.90 L 823.60 327.90 L 826.20 323.10 L 830.20 313.30 L 831.80 308.10 L 832.40 302.50 L 832.50 296.90 L 832.20 293.10 L 830.40 285.90 L 829.00 282.50 L 827.10 279.30 L 824.80 276.30 L 819.00 270.90 L 812.40 266.90 L 807.70 264.80 L 802.80 263.20 L 797.70 262.10 L 792.40 261.30 L 782.10 260.90 L 770.60 262.30 L 764.90 263.50 L 756.60 266.00 L 748.40 269.10 L 740.50 272.60 L 723.00 281.20 L 703.50 290.00 L 685.40 296.60 L 681.20 297.70 L 677.00 298.40 L 671.70 286.40 L 675.20 281.90 L 681.50 272.40 L 684.10 267.30 L 686.40 262.10 L 688.20 256.70 L 689.90 250.70 L 691.00 244.70 L 691.60 238.60 L 691.60 226.30 L 691.30 220.20 L 690.30 215.00 L 687.60 204.70 L 685.70 199.80 L 683.50 195.00 L 680.80 190.50 L 678.00 186.60 L 674.80 183.00 L 672.40 180.90 L 669.80 179.20 L 667.00 177.80 L 662.30 177.10 L 659.90 177.30 L 657.60 178.00 L 655.10 179.70 L 654.00 181.00 L 652.80 183.40 L 650.70 191.40 L 648.70 197.60 L 646.10 203.60 L 642.90 209.30 L 639.20 214.70 L 635.10 219.70 L 630.60 224.50 L 625.70 228.80 L 620.50 232.70 L 615.00 236.20 L 613.70 236.70 L 612.50 236.80 L 611.30 236.50 L 601.10 229.90 L 591.90 224.50 L 582.40 219.60 L 572.70 215.20 L 562.80 211.10 L 552.70 207.60 L 542.50 204.40 L 532.10 201.70 L 521.70 199.30 L 513.10 197.90 L 504.50 196.90 L 495.80 196.40 L 482.80 196.40 L 469.70 197.00 L 466.60 196.80 L 462.60 191.60 L 457.20 182.10 L 453.40 173.00 L 452.40 168.90 L 451.70 164.70 L 451.40 156.20 L 451.70 151.90 L 452.70 145.50 L 454.50 137.10 L 454.40 134.80 L 453.70 132.70 L 452.60 130.80 L 450.40 128.90 L 449.00 128.20 L 445.70 127.80 L 442.50 127.80 L 439.20 128.20 L 436.00 129.00 L 430.00 131.70 Z" fill="#a6dff8" fill-rule="nonzero" group-id="1,7" node-id="156" stroke="none" target-height="1061.3" target-width="1024" target-x="0" target-y="0"></path><path d="M 430.00 131.70 L 433.00 130.20 L 439.20 128.20 L 442.50 127.80 L 445.70 127.80 L 449.00 128.20 L 450.40 128.90 L 452.60 130.80 L 453.70 132.70 L 454.40 134.80 L 454.50 137.10 L 452.70 145.50 L 451.70 151.90 L 451.40 156.20 L 451.70 164.70 L 452.40 168.90 L 453.40 173.00 L 457.20 182.10 L 462.60 191.60 L 466.60 196.80 L 469.70 197.00 L 482.80 196.40 L 495.80 196.40 L 504.50 196.90 L 513.10 197.90 L 521.70 199.30 L 532.10 201.70 L 542.50 204.40 L 552.70 207.60 L 562.80 211.10 L 572.70 215.20 L 582.40 219.60 L 591.90 224.50 L 601.10 229.90 L 611.30 236.50 L 612.50 236.80 L 613.70 236.70 L 615.00 236.20 L 620.50 232.70 L 625.70 228.80 L 630.60 224.50 L 635.10 219.70 L 639.20 214.70 L 642.90 209.30 L 646.10 203.60 L 648.70 197.60 L 650.70 191.40 L 652.80 183.40 L 654.00 181.00 L 655.10 179.70 L 657.60 178.00 L 659.90 177.30 L 662.30 177.10 L 667.00 177.80 L 669.80 179.20 L 672.40 180.90 L 674.80 183.00 L 678.00 186.60 L 680.80 190.50 L 683.50 195.00 L 685.70 199.80 L 687.60 204.70 L 690.30 215.00 L 691.30 220.20 L 691.60 226.30 L 691.60 238.60 L 691.00 244.70 L 689.90 250.70 L 688.20 256.70 L 686.40 262.10 L 684.10 267.30 L 681.50 272.40 L 675.20 281.90 L 671.70 286.40 L 677.00 298.40 L 681.20 297.70 L 685.40 296.60 L 703.50 290.00 L 723.00 281.20 L 740.50 272.60 L 748.40 269.10 L 756.60 266.00 L 764.90 263.50 L 770.60 262.30 L 782.10 260.90 L 792.40 261.30 L 797.70 262.10 L 802.80 263.20 L 807.70 264.80 L 812.50 266.90 L 819.00 270.90 L 824.80 276.30 L 827.10 279.30 L 829.00 282.50 L 830.40 285.90 L 832.20 293.10 L 832.50 296.90 L 832.40 302.50 L 831.80 308.10 L 830.20 313.30 L 826.20 323.10 L 823.60 327.90 L 819.70 333.90 L 815.50 339.70 L 811.00 345.30 L 801.00 355.30 L 795.50 360.00 L 789.80 364.20 L 783.80 368.10 L 777.60 371.60 L 771.20 374.60 L 764.50 377.10 L 757.60 379.00 L 748.70 380.70 L 737.20 381.20 L 730.40 380.90 L 726.10 380.40 L 717.70 378.40 L 705.70 373.70 L 707.10 402.40 L 707.10 416.70 L 706.60 431.10 L 704.90 450.10 L 701.60 471.10 L 699.20 482.50 L 696.30 493.80 L 692.90 505.00 L 689.10 516.00 L 684.70 526.80 L 680.50 535.90 L 675.90 544.60 L 670.80 553.20 L 662.20 565.40 L 652.40 576.60 L 640.60 588.00 L 627.80 598.40 L 614.30 607.70 L 621.20 617.90 L 627.80 628.30 L 634.00 639.00 L 639.90 649.80 L 650.50 672.00 L 655.00 683.40 L 659.00 695.00 L 662.50 706.70 L 665.50 718.60 L 667.90 730.70 L 669.90 742.70 L 671.30 754.90 L 672.20 767.10 L 687.80 772.80 L 703.10 779.10 L 713.20 783.60 L 732.80 793.70 L 738.30 790.90 L 743.50 787.50 L 748.30 783.70 L 751.70 780.50 L 754.80 777.10 L 757.50 773.40 L 760.00 769.50 L 763.10 763.30 L 765.80 756.90 L 767.30 752.60 L 769.30 743.60 L 765.50 732.40 L 764.00 726.70 L 762.50 715.70 L 762.40 710.40 L 762.80 705.20 L 763.70 700.00 L 765.10 695.00 L 767.00 690.10 L 768.80 686.60 L 773.30 680.30 L 778.80 674.80 L 781.80 672.60 L 789.80 668.00 L 799.70 662.90 L 808.00 657.40 L 811.10 654.30 L 816.90 647.80 L 819.90 648.10 L 822.60 649.10 L 823.80 649.90 L 824.70 651.10 L 825.20 655.60 L 825.10 660.00 L 823.50 668.80 L 835.90 658.30 L 841.80 652.40 L 844.20 650.70 L 845.50 650.40 L 848.50 651.30 L 850.60 653.20 L 851.80 655.10 L 853.60 661.70 L 854.10 669.30 L 853.90 676.80 L 853.10 684.30 L 851.80 691.70 L 849.80 698.90 L 847.30 706.00 L 844.30 712.90 L 840.70 719.50 L 836.70 725.90 L 830.10 734.00 L 822.40 741.20 L 818.10 744.30 L 813.70 747.00 L 809.00 749.40 L 804.10 751.40 L 799.00 752.60 L 793.80 753.10 L 791.10 762.40 L 787.80 771.50 L 785.20 777.50 L 782.30 783.30 L 779.10 788.90 L 775.40 794.20 L 771.30 799.10 L 766.80 803.80 L 774.90 806.80 L 778.80 808.70 L 782.30 811.00 L 784.40 812.90 L 786.20 815.10 L 787.70 817.70 L 789.60 822.60 L 790.90 827.60 L 791.70 832.80 L 792.00 843.20 L 791.50 848.40 L 790.40 856.20 L 788.80 863.90 L 786.60 871.20 L 784.00 878.40 L 781.00 885.50 L 777.50 892.30 L 773.50 898.90 L 769.10 905.10 L 764.30 911.10 L 759.00 916.60 L 753.20 921.70 L 748.60 924.90 L 740.30 929.50 L 733.20 932.00 L 725.80 933.20 L 719.10 933.20 L 680.00 927.20 L 667.50 924.90 L 638.70 918.10 L 622.40 913.60 L 606.20 908.70 L 602.40 920.50 L 600.80 924.30 L 598.80 925.90 L 592.00 929.20 L 585.60 931.50 L 579.10 933.50 L 572.50 935.10 L 565.80 936.20 L 559.10 936.90 L 546.70 937.10 L 541.00 936.90 L 529.80 935.50 L 524.30 934.20 L 511.60 929.90 L 509.10 929.60 L 498.00 930.30 L 486.90 930.40 L 475.80 929.90 L 464.80 928.90 L 442.80 926.20 L 430.70 931.80 L 426.50 933.50 L 417.90 935.80 L 410.70 936.90 L 403.50 937.50 L 396.30 937.70 L 389.00 937.40 L 381.70 936.60 L 374.60 935.40 L 367.50 933.80 L 360.50 931.70 L 354.70 929.30 L 352.90 928.30 L 351.10 926.30 L 350.50 925.00 L 344.40 907.70 L 326.20 913.60 L 307.80 919.00 L 295.40 922.20 L 283.00 925.10 L 265.60 928.70 L 246.10 932.20 L 241.30 932.40 L 236.60 932.10 L 231.90 931.20 L 227.40 929.80 L 222.90 928.00 L 218.70 925.70 L 214.80 923.00 L 211.10 920.00 L 202.80 911.60 L 195.70 902.30 L 191.60 895.60 L 188.00 888.70 L 184.80 881.50 L 182.00 874.10 L 179.70 866.60 L 177.80 859.10 L 175.70 847.20 L 175.20 841.20 L 175.40 831.20 L 176.70 823.20 L 177.50 820.60 L 180.00 815.80 L 181.60 813.70 L 183.60 811.80 L 191.60 807.20 L 203.70 802.10 L 209.90 800.10 L 216.20 798.50 L 228.40 796.60 L 240.30 788.40 L 245.70 785.30 L 254.10 781.10 L 262.70 777.40 L 271.50 774.00 L 280.40 771.00 L 297.50 766.30 L 314.90 762.80 L 314.70 734.40 L 315.60 715.40 L 318.50 693.10 L 320.90 680.40 L 323.90 667.80 L 327.30 655.30 L 331.30 643.00 L 338.10 624.90 L 346.00 607.40 L 344.90 606.60 L 343.80 606.40 L 338.90 607.60 L 327.00 612.00 L 315.30 616.90 L 303.80 622.10 L 292.40 627.70 L 277.50 635.60 L 262.90 644.10 L 240.30 658.10 L 237.40 659.50 L 234.30 660.50 L 231.10 660.90 L 229.30 660.60 L 227.80 660.00 L 225.20 657.90 L 223.60 655.00 L 223.20 653.30 L 223.50 649.90 L 224.70 647.20 L 228.10 642.50 L 234.50 636.40 L 247.90 626.30 L 262.00 617.20 L 276.80 609.30 L 220.30 622.20 L 213.10 623.10 L 207.70 622.80 L 206.10 622.20 L 203.40 619.80 L 201.80 616.70 L 201.50 614.90 L 201.70 613.30 L 202.20 611.60 L 203.60 609.50 L 207.10 606.00 L 213.50 602.20 L 221.50 598.80 L 229.60 595.80 L 246.30 590.90 L 263.20 586.50 L 289.00 581.00 L 237.80 576.90 L 220.80 575.30 L 198.20 572.20 L 187.00 570.10 L 176.60 567.20 L 171.40 564.60 L 169.50 563.20 L 166.70 560.10 L 165.50 556.90 L 165.30 554.40 L 165.70 551.90 L 167.20 548.90 L 170.00 546.40 L 171.80 545.50 L 175.60 544.40 L 188.80 544.00 L 205.20 544.90 L 244.30 549.80 L 254.10 550.70 L 241.70 545.60 L 237.60 543.60 L 230.00 538.80 L 227.90 537.00 L 226.00 534.80 L 225.10 533.10 L 224.50 531.40 L 224.40 527.70 L 225.10 526.00 L 226.10 524.50 L 227.60 523.40 L 229.20 522.70 L 236.00 522.80 L 240.90 523.40 L 267.50 529.30 L 274.80 530.50 L 268.80 523.80 L 263.20 516.80 L 256.40 506.90 L 250.90 496.30 L 248.70 490.80 L 245.80 480.50 L 244.60 471.20 L 244.80 457.20 L 245.10 453.80 L 248.30 440.30 L 248.70 430.50 L 249.30 424.20 L 250.30 418.00 L 251.90 411.80 L 253.90 405.70 L 256.30 399.90 L 259.20 394.30 L 265.60 384.70 L 282.10 365.20 L 286.90 358.60 L 291.10 351.60 L 307.40 319.30 L 311.80 311.10 L 321.60 295.20 L 333.20 279.10 L 327.30 277.50 L 321.70 275.40 L 316.30 273.00 L 311.00 270.00 L 306.00 266.70 L 301.20 263.10 L 296.70 259.10 L 292.50 254.80 L 288.50 250.20 L 284.90 245.40 L 281.70 240.40 L 278.70 235.10 L 275.90 229.00 L 273.50 222.70 L 271.50 216.30 L 269.90 209.70 L 268.70 203.00 L 268.10 196.30 L 267.80 189.60 L 268.10 182.90 L 269.00 176.80 L 270.50 170.70 L 273.50 162.90 L 275.40 159.20 L 277.70 155.80 L 280.50 152.80 L 283.60 150.00 L 288.20 147.40 L 290.60 146.60 L 294.50 146.00 L 302.40 146.00 L 306.30 146.40 L 311.30 147.90 L 316.20 149.70 L 320.90 152.00 L 329.70 157.60 L 333.80 160.70 L 341.60 168.10 L 350.10 178.40 L 363.80 198.20 L 369.00 205.20 L 374.50 212.00 L 378.40 216.40 L 386.90 224.40 L 388.70 225.70 L 389.70 226.00 L 390.80 225.90 L 393.20 224.80 L 400.10 220.60 L 397.50 208.40 L 396.80 202.20 L 396.50 195.90 L 396.70 189.70 L 397.30 183.50 L 398.40 177.30 L 400.00 171.30 L 402.10 165.40 L 406.30 156.40 L 408.80 152.10 L 414.80 144.30 L 421.90 137.40 L 430.00 131.70 Z M 427.20 144.50 L 423.50 148.00 L 420.20 151.80 L 417.20 155.90 L 414.60 160.20 L 410.30 169.50 L 407.30 179.20 L 406.30 184.10 L 405.90 200.40 L 406.90 211.10 L 407.80 216.50 L 417.40 212.00 L 427.10 208.10 L 437.10 204.70 L 443.90 203.30 L 450.50 201.40 L 456.90 199.00 L 451.40 189.30 L 449.00 184.20 L 442.40 166.30 L 442.10 157.80 L 442.40 149.20 L 445.10 136.20 L 441.80 136.60 L 438.60 137.50 L 435.50 138.80 L 431.20 141.40 L 427.20 144.50 Z M 298.40 154.60 L 306.00 158.30 L 314.50 173.10 L 317.90 182.10 L 326.10 212.30 L 328.20 218.20 L 333.20 228.50 L 336.00 232.80 L 339.30 236.80 L 346.80 244.00 L 350.90 247.20 L 354.50 249.40 L 356.40 250.30 L 358.50 250.70 L 362.70 248.20 L 382.70 232.10 L 379.40 228.60 L 375.90 225.40 L 374.40 225.10 L 365.50 215.10 L 344.00 185.10 L 337.80 177.20 L 334.20 173.10 L 330.20 169.30 L 326.00 165.80 L 321.50 162.70 L 316.80 159.90 L 311.90 157.50 L 308.70 156.30 L 305.30 155.40 L 298.40 154.60 Z M 280.30 168.30 L 278.90 171.70 L 277.00 178.80 L 276.30 184.30 L 276.30 189.90 L 276.60 195.50 L 278.20 207.60 L 279.70 214.10 L 281.70 220.50 L 284.20 226.70 L 287.10 232.70 L 290.50 238.40 L 294.40 243.90 L 298.70 248.90 L 303.50 253.70 L 308.70 258.00 L 314.30 261.80 L 322.40 266.20 L 330.80 269.40 L 339.70 271.20 L 349.10 261.30 L 352.50 258.20 L 343.10 252.40 L 338.70 249.00 L 334.60 245.20 L 331.00 241.10 L 325.10 232.60 L 320.90 224.30 L 318.40 217.80 L 316.20 211.10 L 309.10 183.80 L 306.00 176.10 L 304.00 172.30 L 301.60 169.00 L 299.70 167.10 L 297.40 165.60 L 294.80 164.40 L 287.20 165.30 L 284.80 166.00 L 280.30 168.30 Z M 656.70 201.80 L 654.10 207.70 L 651.00 213.40 L 647.40 218.80 L 643.40 223.90 L 639.10 228.70 L 634.40 233.20 L 629.40 237.40 L 618.80 244.80 L 632.70 259.50 L 639.20 267.20 L 645.40 275.20 L 649.20 281.50 L 653.50 287.50 L 657.10 286.00 L 660.50 284.20 L 663.70 281.90 L 669.10 276.30 L 674.50 268.00 L 677.20 262.60 L 679.40 257.00 L 681.20 251.30 L 682.50 245.50 L 683.30 239.50 L 683.70 233.50 L 683.60 227.60 L 683.10 221.60 L 681.80 221.80 L 681.00 215.20 L 679.30 208.70 L 677.60 204.10 L 675.60 199.60 L 673.20 195.30 L 670.30 191.40 L 668.00 189.10 L 665.50 187.10 L 662.60 185.40 L 660.40 190.70 L 656.70 201.80 Z M 472.60 205.60 L 462.40 207.30 L 452.40 209.50 L 442.40 212.20 L 432.60 215.60 L 423.10 219.40 L 406.00 227.80 L 398.50 232.30 L 391.30 237.20 L 371.90 252.20 L 366.00 257.30 L 353.20 270.10 L 346.30 277.60 L 339.70 285.30 L 333.40 293.40 L 327.60 301.70 L 322.10 310.30 L 316.30 320.70 L 310.80 331.30 L 305.80 342.20 L 303.70 345.60 L 296.60 359.80 L 294.60 363.20 L 292.00 367.00 L 280.50 381.20 L 278.00 385.00 L 274.20 388.60 L 270.90 392.50 L 267.90 396.70 L 265.40 401.20 L 263.10 405.80 L 261.30 410.70 L 259.80 415.60 L 257.80 425.70 L 266.80 416.40 L 273.50 410.80 L 277.20 408.50 L 283.80 404.80 L 290.50 401.60 L 297.50 398.90 L 304.70 396.60 L 311.90 394.70 L 319.30 393.20 L 326.70 392.20 L 334.20 391.60 L 352.30 391.40 L 362.80 391.90 L 373.30 392.90 L 383.70 394.50 L 394.10 396.40 L 414.60 401.50 L 434.70 407.80 L 446.30 412.00 L 457.70 416.80 L 468.90 422.00 L 479.90 427.70 L 490.60 433.90 L 501.00 440.60 L 514.10 450.80 L 521.10 456.80 L 527.80 463.20 L 534.10 469.90 L 540.10 476.90 L 545.60 484.30 L 556.40 501.60 L 560.80 511.40 L 564.70 521.40 L 566.80 528.20 L 568.50 535.10 L 569.70 542.20 L 570.50 548.20 L 570.90 554.30 L 570.90 560.40 L 570.50 566.50 L 569.60 572.60 L 568.30 578.60 L 566.70 584.50 L 564.60 590.20 L 562.20 595.30 L 556.50 605.00 L 553.10 609.50 L 549.50 613.70 L 545.40 617.60 L 540.00 622.00 L 534.30 625.80 L 522.20 632.70 L 532.70 630.80 L 543.00 628.40 L 553.20 625.40 L 563.30 622.20 L 572.60 618.70 L 581.80 614.90 L 590.80 610.70 L 599.70 606.10 L 608.40 601.10 L 616.80 595.70 L 624.80 589.90 L 632.60 583.60 L 640.00 577.00 L 647.00 569.90 L 653.50 562.40 L 659.60 554.40 L 660.20 554.60 L 670.50 536.10 L 676.60 523.40 L 683.10 506.30 L 686.50 495.60 L 689.40 484.80 L 694.00 462.80 L 695.80 451.70 L 697.00 440.50 L 698.50 411.80 L 697.20 379.50 L 696.20 369.50 L 695.40 367.10 L 694.10 364.90 L 679.50 348.80 L 681.70 345.40 L 683.50 343.50 L 684.80 343.00 L 689.20 342.10 L 702.60 340.50 L 714.30 337.40 L 725.50 332.90 L 730.90 330.10 L 736.00 326.90 L 741.90 322.70 L 747.50 318.10 L 752.80 313.20 L 773.30 292.60 L 778.70 287.80 L 785.00 283.00 L 789.70 280.50 L 792.20 279.60 L 796.10 279.10 L 807.80 278.80 L 818.40 282.70 L 815.70 280.10 L 809.60 275.80 L 802.90 272.70 L 799.30 271.60 L 792.00 270.20 L 788.20 270.00 L 781.80 270.00 L 775.40 270.60 L 769.10 271.70 L 762.90 273.30 L 750.80 277.70 L 742.00 281.70 L 724.20 290.40 L 714.80 294.60 L 695.90 302.40 L 691.70 303.10 L 679.30 306.70 L 675.10 307.60 L 670.80 308.00 L 664.20 292.10 L 657.20 294.90 L 650.10 297.10 L 642.00 285.50 L 633.50 274.10 L 627.60 266.70 L 621.30 259.70 L 614.70 252.80 L 610.20 248.40 L 600.50 240.40 L 584.90 229.70 L 584.30 230.20 L 575.30 225.80 L 566.10 221.80 L 556.70 218.20 L 544.20 214.20 L 531.50 210.70 L 523.00 208.70 L 514.40 207.20 L 505.70 206.10 L 502.70 205.10 L 499.70 204.60 L 480.00 204.70 L 472.60 205.60 Z M 780.90 297.20 L 759.10 319.10 L 751.50 326.00 L 746.30 330.30 L 740.70 334.30 L 730.70 340.20 L 722.00 344.00 L 715.30 346.20 L 708.50 348.00 L 694.60 350.70 L 703.40 360.20 L 706.70 363.00 L 710.30 365.50 L 714.20 367.50 L 718.90 369.30 L 723.70 370.80 L 728.50 371.70 L 733.50 372.30 L 740.10 372.50 L 746.70 372.00 L 753.40 371.00 L 759.90 369.30 L 766.20 367.10 L 772.30 364.50 L 779.10 360.60 L 785.70 356.30 L 792.00 351.50 L 797.90 346.30 L 803.40 340.60 L 808.50 334.50 L 813.10 328.10 L 817.10 321.40 L 820.60 314.30 L 823.20 306.80 L 823.90 301.70 L 823.60 299.00 L 820.60 295.50 L 816.90 292.30 L 814.30 290.40 L 808.50 287.80 L 805.50 287.00 L 802.40 286.70 L 799.10 286.90 L 795.60 287.60 L 792.30 288.90 L 786.30 292.60 L 780.90 297.20 Z M 306.90 404.90 L 295.10 409.10 L 289.30 411.90 L 283.70 415.00 L 278.50 418.50 L 273.50 422.40 L 268.90 426.70 L 264.80 431.40 L 261.10 436.70 L 258.80 440.60 L 256.90 444.60 L 255.40 448.90 L 253.50 457.70 L 253.10 466.80 L 254.00 475.70 L 255.30 481.60 L 257.10 487.40 L 259.30 493.00 L 262.00 498.40 L 265.00 503.60 L 268.50 508.50 L 272.30 513.20 L 276.50 517.50 L 281.10 521.40 L 287.40 526.20 L 293.80 530.50 L 300.50 534.50 L 307.40 538.00 L 316.80 542.30 L 326.50 546.10 L 336.40 549.40 L 346.40 552.30 L 366.60 557.10 L 382.20 559.90 L 402.00 561.80 L 413.90 562.30 L 428.00 561.30 L 435.10 560.30 L 441.90 558.80 L 446.40 557.50 L 450.80 555.70 L 457.90 552.10 L 462.80 548.30 L 469.20 541.40 L 468.90 544.10 L 468.10 546.50 L 467.00 548.80 L 464.80 551.90 L 462.20 554.80 L 456.30 559.80 L 468.40 560.30 L 476.30 559.30 L 481.90 557.40 L 489.90 552.60 L 490.50 554.80 L 490.50 556.90 L 490.10 558.30 L 489.50 559.60 L 486.80 562.30 L 483.10 564.70 L 480.00 565.90 L 470.10 568.30 L 476.90 570.80 L 479.10 571.80 L 481.10 573.10 L 482.70 575.00 L 484.00 577.70 L 484.00 581.20 L 483.30 583.30 L 482.10 585.10 L 480.50 586.70 L 478.60 587.80 L 476.40 588.30 L 465.20 589.10 L 442.60 589.30 L 460.30 595.50 L 464.50 597.50 L 469.60 600.90 L 471.00 603.10 L 471.50 605.10 L 471.30 609.20 L 470.70 611.10 L 469.20 612.90 L 467.50 614.20 L 465.50 614.90 L 461.30 615.50 L 455.60 614.70 L 452.50 614.00 L 440.20 610.10 L 428.10 605.80 L 416.20 600.90 L 404.50 595.60 L 401.10 594.70 L 396.70 594.90 L 375.50 598.60 L 357.00 602.70 L 362.50 606.70 L 374.50 613.60 L 380.70 616.70 L 390.70 620.70 L 400.80 624.30 L 411.20 627.30 L 421.60 629.80 L 432.20 631.90 L 442.90 633.40 L 459.00 634.50 L 481.80 633.20 L 494.10 631.10 L 502.80 629.10 L 514.20 625.70 L 525.10 620.90 L 530.20 618.00 L 535.20 614.60 L 540.00 610.60 L 544.30 606.20 L 548.20 601.30 L 551.60 596.10 L 554.50 590.60 L 557.00 584.90 L 558.90 578.90 L 560.40 572.90 L 561.30 566.70 L 561.60 558.40 L 561.40 550.00 L 560.90 544.40 L 558.70 533.50 L 556.30 525.20 L 553.40 517.20 L 550.00 509.40 L 546.00 501.80 L 541.60 494.40 L 536.80 487.30 L 531.50 480.60 L 525.90 474.10 L 519.90 468.00 L 512.70 461.20 L 505.00 454.80 L 497.10 448.90 L 488.80 443.30 L 480.30 438.10 L 471.60 433.30 L 451.80 423.90 L 431.30 415.90 L 420.90 412.50 L 399.70 406.60 L 389.00 404.30 L 370.80 401.40 L 361.70 400.50 L 352.50 400.00 L 343.30 400.00 L 334.10 400.40 L 325.00 401.30 L 315.90 402.80 L 306.90 404.90 Z M 231.50 529.40 L 233.80 532.90 L 235.20 534.40 L 243.70 539.10 L 257.90 544.80 L 276.00 550.50 L 286.90 553.40 L 301.70 556.30 L 331.80 559.30 L 343.10 559.20 L 323.10 553.20 L 307.50 547.50 L 298.20 544.60 L 251.30 532.50 L 241.80 530.40 L 236.70 529.70 L 231.50 529.40 Z M 172.20 553.70 L 174.30 556.90 L 175.60 558.30 L 177.30 559.20 L 183.20 561.20 L 189.30 562.70 L 201.60 565.10 L 232.30 569.20 L 247.70 570.60 L 270.90 572.30 L 340.50 575.40 L 364.00 575.10 L 398.30 575.60 L 424.80 575.20 L 451.10 573.90 L 464.10 572.50 L 463.00 571.10 L 460.20 569.30 L 457.80 568.70 L 455.20 568.50 L 410.90 568.90 L 384.80 568.30 L 371.70 567.40 L 310.40 561.90 L 280.00 559.60 L 275.10 559.80 L 198.60 551.00 L 189.00 550.50 L 179.40 550.50 L 177.30 550.70 L 175.50 551.50 L 172.20 553.70 Z M 453.00 577.90 L 404.40 580.50 L 392.30 581.60 L 380.20 583.20 L 370.40 584.60 L 351.10 588.50 L 341.50 591.00 L 322.70 596.90 L 311.40 600.80 L 300.30 605.20 L 289.40 610.00 L 278.70 615.40 L 268.20 621.10 L 253.90 630.00 L 249.80 632.70 L 248.10 634.40 L 246.60 636.40 L 242.00 639.50 L 237.60 643.00 L 235.00 645.70 L 232.70 648.60 L 230.70 651.80 L 235.30 651.70 L 235.80 651.00 L 266.80 633.10 L 291.20 620.00 L 303.70 614.00 L 316.30 608.60 L 329.20 603.60 L 339.00 600.40 L 349.00 597.50 L 359.00 595.10 L 369.30 593.20 L 387.90 590.30 L 406.60 587.80 L 450.60 583.20 L 470.50 582.50 L 472.50 582.20 L 474.30 581.30 L 477.50 578.90 L 472.20 577.40 L 465.40 577.00 L 453.00 577.90 Z M 340.60 580.00 L 322.80 582.30 L 305.00 585.10 L 302.70 585.60 L 298.50 587.70 L 294.90 588.00 L 270.60 592.50 L 257.20 595.30 L 239.40 599.80 L 230.60 602.60 L 220.50 606.40 L 214.20 609.80 L 211.20 611.90 L 208.30 612.80 L 210.20 614.80 L 211.40 615.40 L 217.10 615.30 L 221.30 614.70 L 261.20 605.70 L 294.30 597.60 L 314.00 593.50 L 343.60 586.00 L 353.70 583.70 L 368.80 580.80 L 373.70 579.10 L 368.20 578.40 L 362.70 578.30 L 351.60 578.90 L 340.60 580.00 Z M 412.30 592.30 L 420.40 596.30 L 448.00 606.10 L 453.40 607.60 L 458.90 608.50 L 460.30 608.40 L 464.10 606.90 L 465.00 607.30 L 461.60 604.00 L 457.60 601.70 L 445.50 597.40 L 433.20 594.00 L 431.10 592.70 L 429.00 591.90 L 426.70 591.50 L 423.10 591.40 L 412.30 592.30 Z M 353.60 611.40 L 349.50 621.60 L 348.40 621.30 L 348.30 624.60 L 349.10 625.60 L 347.20 624.30 L 342.60 636.30 L 338.50 648.40 L 334.80 660.70 L 331.40 673.20 L 328.60 685.70 L 326.30 698.30 L 324.60 711.00 L 323.40 723.80 L 323.10 736.10 L 323.30 748.40 L 323.70 756.60 L 325.70 772.80 L 326.50 773.20 L 326.00 780.70 L 328.10 796.00 L 334.70 834.50 L 335.90 838.80 L 338.40 851.20 L 341.30 863.50 L 344.70 875.70 L 345.30 877.10 L 347.20 879.10 L 349.10 880.10 L 355.40 882.30 L 364.30 884.40 L 373.20 885.90 L 382.30 886.80 L 391.40 887.10 L 400.50 886.80 L 409.60 886.00 L 418.60 884.50 L 427.50 882.60 L 436.30 880.00 L 436.00 841.10 L 435.30 826.70 L 434.40 758.30 L 434.50 745.80 L 435.20 733.30 L 438.50 733.10 L 440.60 739.70 L 442.30 773.30 L 443.40 802.30 L 443.90 829.00 L 444.40 837.90 L 444.70 872.10 L 444.50 906.40 L 444.20 911.90 L 443.50 917.40 L 453.40 919.20 L 463.50 920.40 L 473.60 921.10 L 489.70 922.00 L 507.50 921.10 L 507.20 912.50 L 506.40 904.00 L 505.90 878.60 L 505.70 853.30 L 506.20 802.60 L 506.80 795.70 L 507.40 774.90 L 509.20 745.80 L 509.90 738.50 L 511.10 731.30 L 514.00 730.60 L 515.00 732.90 L 515.20 747.30 L 515.80 761.80 L 515.70 784.10 L 514.50 806.40 L 514.20 828.40 L 514.40 878.70 L 522.50 881.10 L 530.70 883.10 L 538.90 884.60 L 547.30 885.80 L 564.10 887.30 L 571.20 887.10 L 578.20 886.30 L 585.20 885.10 L 592.10 883.40 L 598.90 881.20 L 605.40 878.50 L 607.30 873.10 L 608.80 867.50 L 611.10 856.10 L 614.30 846.00 L 618.30 825.10 L 622.00 800.20 L 630.30 734.40 L 633.20 734.70 L 634.20 740.50 L 634.70 746.30 L 634.80 752.20 L 634.40 769.80 L 632.80 778.30 L 631.10 795.40 L 628.70 813.10 L 625.70 830.80 L 622.10 848.30 L 618.10 865.80 L 609.00 900.40 L 623.40 904.90 L 638.00 909.00 L 652.70 912.70 L 667.50 916.00 L 682.40 918.90 L 697.30 921.40 L 694.60 916.90 L 692.30 912.10 L 690.40 907.20 L 689.00 902.10 L 688.00 895.70 L 687.60 889.30 L 687.70 882.90 L 689.20 863.70 L 692.50 850.50 L 694.60 844.10 L 699.40 832.80 L 702.10 828.10 L 705.20 823.50 L 708.70 819.20 L 712.50 815.20 L 716.60 811.70 L 721.10 808.50 L 725.90 805.90 L 731.00 803.80 L 724.60 799.60 L 717.90 795.80 L 704.10 789.00 L 688.90 782.60 L 673.30 777.00 L 673.30 789.20 L 673.00 795.30 L 672.20 801.30 L 670.00 810.70 L 668.80 813.60 L 667.20 816.30 L 665.00 818.70 L 665.10 784.70 L 664.70 776.20 L 662.80 756.20 L 661.30 744.60 L 659.50 733.20 L 657.20 721.80 L 654.50 710.50 L 651.20 699.30 L 647.50 688.30 L 640.40 670.20 L 637.00 663.20 L 629.90 649.30 L 619.10 630.80 L 613.40 621.70 L 607.30 612.90 L 584.00 623.80 L 578.00 626.30 L 571.90 628.40 L 546.70 636.10 L 535.70 638.80 L 524.70 641.10 L 513.50 643.00 L 502.30 644.40 L 491.10 645.20 L 479.80 645.60 L 468.50 645.50 L 457.30 644.70 L 446.00 643.30 L 436.30 641.90 L 426.70 640.10 L 417.20 638.00 L 398.50 632.40 L 380.20 625.40 L 366.80 619.00 L 353.60 611.40 Z M 811.50 665.10 L 802.00 671.50 L 788.50 678.50 L 785.20 680.60 L 782.30 683.20 L 779.60 686.10 L 777.30 689.20 L 775.30 692.60 L 773.70 696.20 L 772.50 699.90 L 770.70 708.50 L 770.80 713.40 L 771.30 718.30 L 772.50 725.60 L 773.40 729.20 L 774.60 732.70 L 776.20 736.00 L 778.30 739.00 L 780.30 741.10 L 782.70 742.60 L 785.30 743.60 L 790.80 744.50 L 798.00 743.80 L 802.10 742.60 L 806.10 741.00 L 809.90 738.90 L 817.20 734.10 L 823.30 728.80 L 829.70 721.00 L 833.00 715.90 L 835.90 710.50 L 840.60 699.80 L 842.80 690.80 L 843.30 683.30 L 833.00 698.50 L 827.00 705.50 L 817.00 715.40 L 813.40 718.30 L 808.00 721.30 L 805.00 722.30 L 807.00 718.70 L 809.30 715.40 L 819.70 703.00 L 824.50 696.90 L 828.90 690.40 L 832.80 683.70 L 836.30 676.70 L 839.50 669.50 L 842.20 662.20 L 836.40 666.70 L 828.40 674.10 L 806.70 690.00 L 805.00 691.30 L 803.00 692.10 L 800.90 692.40 L 798.70 692.10 L 800.90 688.00 L 811.40 672.60 L 815.10 665.90 L 817.00 659.90 L 814.00 662.20 L 811.50 665.10 Z M 764.00 778.30 L 760.80 782.70 L 757.30 786.70 L 753.40 790.30 L 749.10 793.60 L 744.60 796.50 L 739.90 799.10 L 745.10 801.20 L 747.80 801.70 L 753.70 801.90 L 756.60 801.60 L 757.90 801.00 L 763.60 795.70 L 767.60 791.10 L 771.30 786.10 L 774.60 780.90 L 777.50 775.50 L 780.00 769.80 L 782.20 764.00 L 785.30 752.10 L 780.00 751.00 L 776.90 748.70 L 771.60 764.00 L 766.90 773.70 L 764.00 778.30 Z M 310.30 772.80 L 301.70 774.20 L 301.60 775.20 L 292.80 776.40 L 276.10 781.30 L 267.90 784.20 L 259.80 787.50 L 252.60 791.30 L 245.50 795.20 L 238.80 799.90 L 243.90 804.30 L 248.50 809.20 L 252.60 814.30 L 256.30 819.80 L 259.60 825.50 L 262.60 831.50 L 267.60 843.90 L 272.40 860.00 L 274.60 869.60 L 275.40 886.70 L 275.20 895.20 L 274.80 899.50 L 274.00 903.60 L 272.80 907.70 L 270.30 913.70 L 267.30 919.30 L 281.20 916.70 L 306.80 910.50 L 330.10 903.50 L 341.70 899.40 L 333.70 867.40 L 326.80 835.50 L 320.50 800.00 L 316.70 771.40 L 310.30 772.80 Z M 193.10 816.50 L 190.70 818.00 L 187.10 821.20 L 186.10 822.80 L 184.60 826.20 L 183.80 831.40 L 183.90 842.30 L 184.50 847.70 L 185.90 855.70 L 189.70 869.50 L 194.00 881.10 L 199.50 892.10 L 202.80 897.40 L 206.40 902.40 L 210.40 907.10 L 214.70 911.50 L 222.80 917.60 L 227.20 920.20 L 231.90 922.10 L 235.10 923.00 L 241.80 923.80 L 248.10 923.20 L 251.10 922.30 L 253.90 921.00 L 257.20 918.50 L 258.50 916.80 L 261.00 912.80 L 263.00 908.60 L 264.60 904.20 L 266.50 895.00 L 267.00 890.30 L 267.20 883.20 L 266.80 876.30 L 265.60 869.10 L 262.10 855.00 L 257.30 841.20 L 254.30 834.50 L 251.00 828.10 L 247.20 821.90 L 243.00 815.90 L 239.90 812.10 L 238.10 810.30 L 232.60 806.60 L 230.00 805.60 L 222.40 806.30 L 216.30 807.50 L 210.30 809.10 L 204.40 811.20 L 193.10 816.50 Z M 729.80 813.90 L 727.30 814.70 L 725.00 815.90 L 720.70 819.10 L 716.80 822.70 L 712.80 827.60 L 709.30 832.80 L 706.30 838.30 L 703.70 844.10 L 701.50 850.00 L 698.40 862.30 L 696.70 874.70 L 696.10 880.50 L 696.10 886.20 L 696.50 891.90 L 697.30 897.60 L 698.60 903.10 L 700.30 908.60 L 701.70 911.90 L 703.60 915.10 L 705.90 918.10 L 708.60 920.50 L 710.60 921.80 L 712.80 922.80 L 715.20 923.50 L 719.40 924.00 L 727.70 923.80 L 731.80 923.10 L 735.80 921.80 L 739.60 920.00 L 744.00 917.30 L 748.20 914.30 L 755.80 907.40 L 762.50 899.50 L 766.90 893.00 L 770.80 886.40 L 776.60 873.00 L 779.00 866.10 L 780.90 859.00 L 782.30 851.90 L 783.20 844.70 L 783.40 839.20 L 783.20 833.80 L 782.60 828.40 L 781.60 822.90 L 777.10 818.00 L 773.50 815.50 L 771.40 814.60 L 762.40 811.80 L 757.70 810.80 L 753.00 810.20 L 748.20 810.00 L 743.50 810.20 L 738.80 810.90 L 734.30 812.10 L 729.80 813.90 Z M 515.30 888.40 L 515.90 910.70 L 517.00 920.80 L 517.90 922.30 L 518.80 922.70 L 524.00 924.80 L 529.30 926.40 L 534.70 927.60 L 545.80 928.50 L 551.50 928.50 L 559.90 927.90 L 568.10 926.80 L 579.50 924.10 L 585.10 922.40 L 590.60 920.20 L 592.10 919.30 L 593.40 918.10 L 595.10 915.00 L 599.70 900.60 L 602.60 889.40 L 586.00 893.90 L 580.40 894.80 L 565.80 895.60 L 558.50 895.40 L 544.00 894.10 L 525.90 890.90 L 515.30 888.40 Z M 348.10 889.10 L 355.70 913.80 L 357.70 918.80 L 358.60 920.20 L 359.90 921.40 L 368.70 924.80 L 376.00 926.70 L 383.50 928.10 L 391.00 928.90 L 398.60 929.10 L 406.30 928.70 L 416.50 927.10 L 421.40 925.70 L 426.20 924.00 L 430.70 921.80 L 435.10 919.00 L 435.30 889.40 L 425.70 891.80 L 416.10 893.50 L 406.30 894.80 L 396.50 895.40 L 386.70 895.50 L 376.90 894.90 L 369.60 894.10 L 362.40 892.80 L 355.20 891.20 L 348.10 889.10 Z" fill="#030202" fill-rule="nonzero" group-id="2,8" node-id="164" stroke="none" target-height="809.9" target-width="688.8" target-x="165.3" target-y="127.8"></path><path d="M 370.90 282.10 L 376.00 280.80 L 381.20 280.10 L 386.40 279.90 L 391.70 280.20 L 396.80 281.00 L 401.90 282.30 L 406.90 284.10 L 411.60 286.30 L 416.10 289.00 L 417.60 290.10 L 419.30 292.30 L 419.60 293.40 L 419.40 295.80 L 418.00 297.40 L 415.20 299.30 L 410.90 296.50 L 406.30 294.00 L 401.50 292.00 L 396.60 290.40 L 391.50 289.50 L 383.10 289.20 L 367.90 290.90 L 366.70 288.10 L 366.40 285.10 L 369.20 282.80 L 370.90 282.10 Z" fill="#030202" fill-rule="nonzero" group-id="2,9" node-id="169" stroke="none" target-height="19.399994" target-width="53.200012" target-x="366.4" target-y="279.9"></path><path d="M 332.80 330.50 L 338.70 330.20 L 346.00 342.70 L 350.40 340.20 L 355.00 338.10 L 358.30 337.00 L 364.90 335.60 L 368.20 335.40 L 371.60 335.70 L 375.00 336.30 L 379.10 337.30 L 382.90 338.70 L 386.50 340.50 L 389.90 342.70 L 393.00 345.30 L 398.60 351.20 L 400.90 354.50 L 403.60 359.30 L 405.80 364.30 L 407.30 369.50 L 406.20 371.30 L 404.70 372.80 L 402.20 373.70 L 400.70 373.60 L 399.20 372.00 L 398.20 370.20 L 395.00 362.50 L 392.90 359.00 L 390.50 355.80 L 387.80 352.80 L 384.70 350.30 L 381.20 348.10 L 377.70 346.50 L 373.90 345.40 L 370.00 344.80 L 366.10 344.80 L 362.30 345.40 L 358.50 346.50 L 356.40 347.60 L 350.60 351.90 L 346.50 354.20 L 344.70 353.90 L 343.10 353.10 L 340.40 350.70 L 338.30 347.80 L 335.00 342.40 L 333.70 339.60 L 332.40 334.70 L 332.80 330.50 Z" fill="#030202" fill-rule="nonzero" group-id="2,10" node-id="174" stroke="none" target-height="43.5" target-width="74.899994" target-x="332.4" target-y="330.2"></path><path d="M 561.10 377.10 L 568.00 376.50 L 571.40 376.70 L 574.80 377.50 L 577.90 378.70 L 580.90 380.50 L 583.70 382.90 L 588.60 388.40 L 592.20 394.80 L 594.50 401.80 L 595.30 409.10 L 595.30 413.70 L 594.90 418.20 L 594.00 422.70 L 592.70 427.00 L 591.00 431.30 L 588.90 435.30 L 586.50 439.20 L 583.80 442.80 L 580.70 446.10 L 577.30 449.20 L 573.60 451.80 L 569.60 454.00 L 563.60 456.20 L 557.30 457.10 L 550.90 456.60 L 547.90 455.80 L 545.00 454.50 L 542.20 452.90 L 539.10 450.30 L 536.40 447.40 L 534.00 444.20 L 532.10 440.70 L 530.50 437.10 L 528.70 429.30 L 528.00 421.20 L 528.60 413.10 L 530.50 405.30 L 532.00 401.50 L 536.00 394.60 L 541.00 388.60 L 546.90 383.40 L 553.70 379.50 L 557.30 378.10 L 561.10 377.10 Z M 570.90 391.40 L 569.30 392.40 L 568.10 393.70 L 567.30 395.40 L 566.90 397.30 L 567.00 399.10 L 567.50 400.90 L 568.40 402.50 L 569.80 403.60 L 573.70 404.10 L 576.10 403.30 L 578.10 401.60 L 579.40 399.10 L 579.70 397.00 L 579.40 394.90 L 578.00 392.60 L 575.40 391.10 L 573.90 390.70 L 572.30 390.80 L 570.90 391.40 Z M 535.00 413.20 L 534.20 415.10 L 533.90 417.00 L 534.30 419.50 L 535.00 420.80 L 540.70 420.40 L 540.80 417.00 L 540.70 413.50 L 535.00 413.20 Z" fill="#030202" fill-rule="nonzero" group-id="2,11" node-id="179" stroke="none" target-height="80.600006" target-width="67.29999" target-x="528" target-y="376.5"></path><path d="M 330.10 428.60 L 332.90 427.90 L 335.80 427.80 L 338.70 428.20 L 341.50 429.10 L 344.10 430.40 L 346.50 432.00 L 349.50 434.90 L 352.10 438.10 L 354.20 441.70 L 355.80 445.60 L 357.00 449.50 L 357.80 453.60 L 358.10 457.90 L 357.30 465.30 L 355.50 470.80 L 354.10 473.40 L 350.40 477.90 L 346.60 480.60 L 342.10 482.10 L 337.40 482.30 L 335.10 481.90 L 330.80 480.30 L 328.00 478.40 L 325.50 476.20 L 323.40 473.80 L 320.10 468.20 L 318.90 465.10 L 317.30 458.70 L 317.00 455.40 L 317.00 450.40 L 317.60 445.60 L 318.50 442.00 L 319.80 438.60 L 321.70 435.40 L 324.00 432.60 L 327.80 429.70 L 330.10 428.60 Z M 333.70 438.00 L 331.90 438.70 L 329.20 441.00 L 327.80 443.30 L 326.70 445.80 L 325.70 451.20 L 325.50 455.30 L 325.80 459.40 L 326.50 463.40 L 327.70 467.40 L 329.30 471.10 L 331.60 474.50 L 332.80 475.90 L 335.90 477.70 L 337.70 478.10 L 339.50 478.00 L 341.30 477.40 L 343.50 476.00 L 345.40 474.10 L 346.80 472.00 L 348.00 469.60 L 349.20 464.50 L 349.50 460.40 L 349.30 456.30 L 348.60 452.30 L 347.30 448.40 L 344.70 443.70 L 343.00 441.50 L 340.30 439.20 L 338.80 438.40 L 337.10 437.80 L 335.40 437.60 L 333.70 438.00 Z" fill="#030202" fill-rule="nonzero" group-id="2,12" node-id="184" stroke="none" target-height="54.5" target-width="41.100006" target-x="317" target-y="427.8"></path><path d="M 453.00 470.20 L 456.00 469.30 L 459.20 469.10 L 462.40 469.50 L 465.40 470.40 L 469.00 472.50 L 472.10 475.70 L 473.20 477.50 L 474.10 479.50 L 474.80 482.80 L 475.00 486.10 L 475.00 489.80 L 474.50 493.50 L 473.50 497.00 L 470.50 503.70 L 468.40 506.80 L 463.50 512.40 L 460.70 514.80 L 457.70 516.90 L 454.30 518.60 L 450.80 519.70 L 447.20 520.30 L 444.70 520.20 L 439.90 519.10 L 437.60 518.00 L 435.50 516.50 L 432.10 512.70 L 429.90 508.10 L 429.00 503.10 L 429.00 500.60 L 429.80 496.10 L 431.10 491.70 L 432.90 487.50 L 435.20 483.60 L 438.00 480.00 L 441.20 476.80 L 443.80 474.70 L 449.70 471.40 L 453.00 470.20 Z M 455.30 479.10 L 452.20 480.50 L 449.30 482.20 L 446.70 484.40 L 443.30 488.10 L 438.80 494.70 L 436.20 500.10 L 435.40 503.00 L 435.00 505.90 L 435.20 508.90 L 435.80 510.90 L 437.00 512.70 L 438.70 514.10 L 440.60 515.00 L 443.40 515.30 L 444.80 515.00 L 447.90 514.00 L 450.70 512.60 L 453.30 510.80 L 457.90 506.50 L 462.40 499.80 L 465.20 493.30 L 466.10 488.50 L 466.00 486.10 L 465.00 483.10 L 464.00 481.70 L 462.90 480.50 L 460.10 478.90 L 456.90 478.70 L 455.30 479.10 Z" fill="#030202" fill-rule="nonzero" group-id="2,13" node-id="189" stroke="none" target-height="51.19998" target-width="46" target-x="429" target-y="469.1"></path><path d="M 427.20 144.50 L 431.20 141.40 L 435.50 138.80 L 438.60 137.50 L 441.80 136.60 L 445.10 136.20 L 442.40 149.20 L 442.10 157.80 L 442.40 166.30 L 441.50 163.50 L 441.00 160.60 L 440.70 148.70 L 439.50 154.20 L 438.80 159.60 L 438.60 165.10 L 439.90 185.20 L 439.80 199.80 L 439.60 201.20 L 439.00 202.50 L 437.10 204.70 L 427.10 208.10 L 417.40 212.00 L 407.80 216.50 L 406.90 211.10 L 405.90 200.40 L 406.30 184.10 L 408.70 174.30 L 412.30 164.80 L 417.20 155.90 L 420.20 151.80 L 423.50 148.00 L 427.20 144.50 Z" fill="#f1bdaf" fill-rule="nonzero" group-id="3,14" node-id="197" stroke="none" target-height="80.3" target-width="39.200012" target-x="405.9" target-y="136.2"></path><path d="M 280.30 168.30 L 284.80 166.00 L 287.20 165.30 L 294.80 164.40 L 297.40 165.60 L 299.70 167.10 L 301.60 169.00 L 304.00 172.30 L 306.00 176.10 L 309.10 183.80 L 316.20 211.10 L 318.40 217.80 L 320.90 224.30 L 325.10 232.60 L 331.00 241.10 L 334.60 245.20 L 338.70 249.00 L 343.10 252.40 L 352.50 258.20 L 349.10 261.30 L 339.70 271.20 L 335.20 270.50 L 326.50 267.90 L 318.30 264.10 L 314.30 261.80 L 308.70 258.00 L 303.50 253.70 L 298.70 248.90 L 294.40 243.90 L 290.50 238.40 L 287.10 232.70 L 284.20 226.70 L 281.70 220.50 L 279.70 214.10 L 278.20 207.60 L 276.60 195.50 L 276.30 189.90 L 276.30 184.30 L 277.00 178.80 L 277.70 175.20 L 280.30 168.30 Z" fill="#f1bdaf" fill-rule="nonzero" group-id="3,15" node-id="202" stroke="none" target-height="106.80002" target-width="76.20001" target-x="276.3" target-y="164.4"></path><path d="M 656.70 201.80 L 660.40 190.70 L 662.60 185.40 L 665.50 187.10 L 668.00 189.10 L 670.30 191.40 L 673.20 195.30 L 675.60 199.60 L 677.60 204.10 L 679.30 208.70 L 681.00 215.20 L 681.60 218.50 L 681.90 225.50 L 681.80 229.20 L 680.40 236.30 L 679.30 239.80 L 675.60 248.60 L 670.10 259.30 L 666.80 264.10 L 664.20 267.00 L 661.30 269.60 L 658.00 271.90 L 655.00 273.40 L 651.90 274.40 L 645.40 275.20 L 639.20 267.20 L 632.70 259.50 L 618.80 244.80 L 629.40 237.40 L 634.40 233.20 L 639.10 228.70 L 643.40 223.90 L 647.40 218.80 L 651.00 213.40 L 654.10 207.70 L 656.70 201.80 Z" fill="#f1bdaf" fill-rule="nonzero" group-id="3,16" node-id="207" stroke="none" target-height="89.80002" target-width="63.100037" target-x="618.8" target-y="185.4"></path><path d="M 780.90 297.20 L 786.30 292.60 L 792.30 288.90 L 795.60 287.60 L 799.10 286.90 L 802.40 286.70 L 805.50 287.00 L 808.50 287.80 L 814.30 290.40 L 816.90 292.30 L 820.60 295.50 L 823.60 299.00 L 823.90 301.70 L 823.20 306.80 L 820.60 314.30 L 817.10 321.40 L 813.10 328.10 L 808.50 334.50 L 803.40 340.60 L 797.90 346.30 L 792.00 351.50 L 785.70 356.30 L 779.10 360.60 L 772.30 364.50 L 766.20 367.10 L 759.90 369.30 L 753.40 371.00 L 746.70 372.00 L 740.10 372.50 L 733.50 372.30 L 728.50 371.70 L 723.70 370.80 L 718.90 369.30 L 714.20 367.50 L 710.30 365.50 L 706.70 363.00 L 703.40 360.20 L 694.60 350.70 L 708.50 348.00 L 715.30 346.20 L 722.00 344.00 L 730.70 340.20 L 740.70 334.30 L 746.30 330.30 L 751.50 326.00 L 759.10 319.10 L 780.90 297.20 Z" fill="#f1bdaf" fill-rule="nonzero" group-id="3,17" node-id="212" stroke="none" target-height="85.79999" target-width="129.30005" target-x="694.6" target-y="286.7"></path><path d="M 306.90 404.90 L 315.90 402.80 L 325.00 401.30 L 334.10 400.40 L 343.30 400.00 L 352.50 400.00 L 361.70 400.50 L 370.80 401.40 L 389.00 404.30 L 399.70 406.60 L 420.90 412.50 L 431.30 415.90 L 451.80 423.90 L 471.60 433.30 L 480.30 438.10 L 488.80 443.30 L 497.10 448.90 L 505.00 454.80 L 512.70 461.20 L 519.90 468.00 L 525.90 474.10 L 531.50 480.60 L 536.80 487.30 L 541.60 494.40 L 546.00 501.80 L 550.00 509.40 L 553.40 517.20 L 556.30 525.20 L 558.70 533.50 L 560.00 538.90 L 560.90 544.40 L 561.40 550.00 L 561.60 558.40 L 561.30 566.80 L 560.40 572.90 L 558.90 578.90 L 557.00 584.90 L 554.50 590.60 L 551.60 596.10 L 548.20 601.30 L 544.30 606.20 L 540.00 610.60 L 535.20 614.60 L 530.20 618.00 L 525.10 620.90 L 519.70 623.50 L 508.60 627.50 L 494.10 631.10 L 481.80 633.20 L 464.50 634.30 L 459.00 634.50 L 453.60 634.30 L 442.90 633.40 L 432.20 631.90 L 421.60 629.80 L 411.20 627.30 L 400.80 624.30 L 390.70 620.70 L 380.70 616.70 L 374.50 613.60 L 362.50 606.70 L 357.00 602.70 L 375.50 598.60 L 396.70 594.90 L 401.10 594.70 L 404.50 595.60 L 416.20 600.90 L 428.10 605.80 L 440.20 610.10 L 452.50 614.00 L 455.60 614.70 L 461.30 615.50 L 465.50 614.90 L 467.50 614.20 L 469.20 612.90 L 470.70 611.10 L 471.30 609.20 L 471.50 605.10 L 471.00 603.10 L 469.60 600.90 L 464.50 597.50 L 460.30 595.50 L 442.60 589.30 L 465.20 589.10 L 476.40 588.30 L 478.60 587.80 L 480.50 586.70 L 482.10 585.10 L 483.30 583.30 L 484.00 581.20 L 484.00 577.70 L 482.70 575.00 L 481.10 573.10 L 479.10 571.80 L 476.90 570.80 L 470.10 568.30 L 480.00 565.90 L 483.10 564.70 L 486.80 562.30 L 489.50 559.60 L 490.10 558.30 L 490.50 556.90 L 490.50 554.80 L 489.90 552.60 L 481.90 557.40 L 476.30 559.30 L 468.40 560.30 L 456.30 559.80 L 462.20 554.80 L 464.80 551.90 L 467.00 548.80 L 468.10 546.50 L 468.90 544.10 L 469.20 541.40 L 462.80 548.30 L 457.90 552.10 L 450.80 555.70 L 446.40 557.50 L 441.90 558.80 L 435.10 560.30 L 428.00 561.30 L 413.90 562.30 L 402.00 561.80 L 382.20 559.90 L 366.60 557.10 L 346.40 552.30 L 336.40 549.40 L 326.50 546.10 L 316.80 542.30 L 307.40 538.00 L 300.50 534.50 L 293.80 530.50 L 287.40 526.20 L 281.10 521.40 L 276.50 517.50 L 272.30 513.20 L 268.50 508.50 L 265.00 503.60 L 262.00 498.40 L 259.30 493.00 L 257.10 487.40 L 255.30 481.60 L 254.00 475.70 L 253.10 466.80 L 253.50 457.70 L 255.40 448.90 L 256.90 444.60 L 258.80 440.60 L 261.10 436.70 L 264.80 431.40 L 268.90 426.70 L 273.50 422.40 L 278.50 418.50 L 283.70 415.00 L 289.30 411.90 L 295.10 409.10 L 306.90 404.90 Z M 363.00 407.50 L 369.40 410.10 L 380.10 412.50 L 390.80 415.30 L 401.30 418.50 L 416.90 423.90 L 463.20 441.50 L 457.00 435.10 L 453.60 432.20 L 443.80 425.70 L 437.30 422.30 L 430.70 419.30 L 423.80 416.70 L 409.70 412.70 L 398.90 410.50 L 388.10 408.70 L 375.60 407.50 L 369.30 407.20 L 363.00 407.50 Z M 330.10 428.60 L 327.80 429.70 L 324.00 432.60 L 321.70 435.40 L 319.80 438.60 L 318.50 442.00 L 317.60 445.60 L 317.00 450.40 L 317.00 455.40 L 318.00 461.90 L 320.10 468.20 L 321.60 471.10 L 325.50 476.20 L 328.00 478.40 L 330.80 480.30 L 335.10 481.90 L 339.80 482.40 L 344.40 481.50 L 348.60 479.40 L 350.40 477.90 L 352.40 475.80 L 355.50 470.80 L 357.30 465.30 L 357.80 462.40 L 358.10 457.90 L 357.80 453.60 L 357.00 449.50 L 355.80 445.60 L 354.20 441.70 L 352.10 438.10 L 349.50 434.90 L 346.50 432.00 L 344.10 430.40 L 341.50 429.10 L 338.70 428.20 L 335.80 427.80 L 332.90 427.90 L 330.10 428.60 Z M 453.00 470.20 L 449.70 471.40 L 443.80 474.70 L 441.20 476.80 L 438.00 480.00 L 435.20 483.60 L 432.90 487.50 L 431.10 491.70 L 429.80 496.10 L 429.00 500.60 L 429.30 505.60 L 430.90 510.50 L 433.70 514.80 L 435.50 516.50 L 437.60 518.00 L 442.30 519.90 L 447.20 520.30 L 450.80 519.70 L 454.30 518.60 L 457.70 516.90 L 460.70 514.80 L 466.10 509.80 L 470.50 503.70 L 472.20 500.50 L 473.50 497.00 L 474.50 493.50 L 475.00 489.80 L 474.80 482.80 L 474.10 479.50 L 472.10 475.70 L 469.00 472.50 L 465.40 470.40 L 462.40 469.50 L 459.20 469.10 L 456.00 469.30 L 453.00 470.20 Z" fill="#f1bdaf" fill-rule="nonzero" group-id="3,18" node-id="217" stroke="none" target-height="234.5" target-width="308.49997" target-x="253.1" target-y="400"></path><path d="M 438.90 170.60 L 438.60 165.10 L 438.80 159.60 L 439.50 154.20 L 440.70 148.70 L 441.00 160.60 L 441.50 163.50 L 449.00 184.20 L 451.40 189.30 L 456.90 199.00 L 450.50 201.40 L 443.90 203.30 L 437.10 204.70 L 439.00 202.50 L 439.60 201.20 L 439.80 199.80 L 439.90 185.20 L 439.60 177.90 L 438.90 170.60 Z" fill="#373536" fill-rule="nonzero" group-id="4,19" node-id="225" stroke="none" target-height="56" target-width="19.799988" target-x="437.1" target-y="148.7"></path><path d="M 306.00 158.30 L 310.40 160.60 L 314.50 163.20 L 318.40 166.10 L 323.80 171.10 L 328.80 176.50 L 333.50 182.20 L 352.90 208.20 L 356.90 213.00 L 361.40 217.40 L 364.20 220.00 L 369.60 223.50 L 371.90 224.50 L 375.90 225.40 L 379.40 228.60 L 382.70 232.10 L 362.70 248.20 L 358.50 250.70 L 356.40 250.30 L 354.50 249.40 L 350.90 247.20 L 342.90 240.50 L 339.30 236.80 L 336.00 232.80 L 333.20 228.50 L 330.80 223.90 L 328.20 218.20 L 326.10 212.30 L 319.70 188.10 L 315.80 176.20 L 312.90 170.10 L 306.00 158.30 Z" fill="#373536" fill-rule="nonzero" group-id="4,20" node-id="230" stroke="none" target-height="92.399994" target-width="76.70001" target-x="306" target-y="158.3"></path><path d="M 472.60 205.60 L 480.00 204.70 L 496.60 204.50 L 502.70 205.10 L 505.70 206.10 L 498.90 206.20 L 503.70 209.00 L 508.70 211.30 L 513.80 213.30 L 535.00 219.60 L 545.80 223.80 L 551.20 226.50 L 556.40 229.60 L 561.50 233.00 L 566.20 236.80 L 570.70 241.00 L 584.90 229.70 L 600.50 240.40 L 610.20 248.40 L 614.70 252.80 L 621.30 259.70 L 627.60 266.70 L 633.50 274.10 L 642.00 285.50 L 650.10 297.10 L 657.20 294.90 L 664.20 292.10 L 670.80 308.00 L 675.10 307.60 L 679.30 306.70 L 691.70 303.10 L 695.90 302.40 L 692.80 304.00 L 698.50 303.80 L 709.70 302.30 L 715.20 301.10 L 726.00 297.50 L 763.50 282.10 L 769.60 280.30 L 775.80 279.00 L 782.20 278.10 L 788.70 277.60 L 795.10 277.60 L 801.40 278.00 L 807.80 278.80 L 796.10 279.10 L 792.20 279.60 L 789.70 280.50 L 785.00 283.00 L 778.70 287.80 L 773.30 292.60 L 752.80 313.20 L 747.50 318.10 L 741.90 322.70 L 736.00 326.90 L 730.90 330.10 L 725.50 332.90 L 720.00 335.30 L 708.50 339.10 L 702.60 340.50 L 689.20 342.10 L 684.80 343.00 L 682.50 344.30 L 679.50 348.80 L 694.10 364.90 L 695.40 367.10 L 696.20 369.50 L 697.20 379.50 L 698.50 411.80 L 696.60 446.10 L 694.00 462.80 L 691.90 473.80 L 689.40 484.80 L 686.50 495.60 L 683.10 506.30 L 676.60 523.40 L 673.70 529.80 L 670.50 536.10 L 660.20 554.60 L 646.20 551.30 L 639.80 549.20 L 636.20 547.50 L 632.90 545.30 L 629.80 542.90 L 627.10 540.10 L 624.30 533.80 L 623.40 530.50 L 622.90 527.10 L 623.30 523.30 L 624.10 519.50 L 626.40 512.20 L 617.00 512.30 L 607.50 512.00 L 591.00 510.30 L 577.10 507.40 L 570.20 505.40 L 555.80 500.10 L 556.40 501.60 L 545.60 484.30 L 540.10 476.90 L 534.10 469.90 L 527.80 463.20 L 521.10 456.80 L 514.10 450.80 L 501.00 440.60 L 501.70 413.20 L 503.30 395.00 L 507.00 373.40 L 509.70 360.80 L 512.90 348.30 L 516.60 336.00 L 520.90 323.80 L 525.60 311.80 L 529.60 303.00 L 538.40 285.90 L 548.50 269.50 L 554.10 261.70 L 560.10 254.10 L 566.40 246.70 L 555.30 248.20 L 549.80 249.30 L 544.40 250.90 L 541.60 252.10 L 536.70 255.30 L 526.80 264.30 L 523.30 267.00 L 520.20 269.00 L 517.00 270.50 L 513.60 271.50 L 510.00 272.10 L 506.40 272.10 L 502.80 271.70 L 499.40 270.80 L 496.10 269.30 L 493.00 267.40 L 489.80 263.90 L 487.20 258.50 L 486.20 255.00 L 485.00 247.90 L 483.30 226.30 L 482.50 219.10 L 480.60 209.70 L 479.20 205.00 L 472.60 205.60 Z M 561.10 377.10 L 557.30 378.10 L 553.70 379.50 L 546.90 383.40 L 541.00 388.60 L 536.00 394.60 L 532.00 401.50 L 530.50 405.30 L 528.60 413.10 L 528.00 421.20 L 528.70 429.30 L 530.50 437.10 L 532.10 440.70 L 534.00 444.20 L 536.40 447.40 L 539.10 450.30 L 542.20 452.90 L 545.00 454.50 L 547.90 455.80 L 554.10 457.10 L 560.50 456.90 L 566.70 455.30 L 569.60 454.00 L 573.60 451.80 L 577.30 449.20 L 580.70 446.10 L 583.80 442.80 L 586.50 439.20 L 588.90 435.30 L 591.00 431.30 L 592.70 427.00 L 594.00 422.70 L 594.90 418.20 L 595.30 413.70 L 595.10 405.40 L 593.50 398.30 L 590.50 391.50 L 586.30 385.50 L 580.90 380.50 L 577.90 378.70 L 574.80 377.50 L 571.40 376.70 L 568.00 376.50 L 561.10 377.10 Z" fill="#373536" fill-rule="nonzero" group-id="4,21" node-id="235" stroke="none" target-height="350.09998" target-width="335.19998" target-x="472.6" target-y="204.5"></path><path d="M 681.80 221.80 L 683.10 221.60 L 683.60 227.60 L 683.70 233.50 L 683.30 239.50 L 682.50 245.50 L 681.20 251.30 L 679.40 257.00 L 677.20 262.60 L 674.50 268.00 L 671.40 273.10 L 669.10 276.30 L 666.60 279.20 L 663.70 281.90 L 660.50 284.20 L 657.10 286.00 L 653.50 287.50 L 649.20 281.50 L 645.40 275.20 L 651.90 274.40 L 655.00 273.40 L 658.00 271.90 L 661.30 269.60 L 664.20 267.00 L 666.80 264.10 L 670.10 259.30 L 675.60 248.60 L 679.30 239.80 L 680.40 236.30 L 681.80 229.20 L 681.80 221.80 Z" fill="#373536" fill-rule="nonzero" group-id="4,22" node-id="240" stroke="none" target-height="65.899994" target-width="38.299988" target-x="645.4" target-y="221.6"></path><path d="M 420.50 230.50 L 422.50 230.60 L 426.00 232.20 L 430.50 236.10 L 436.60 242.60 L 439.90 247.50 L 441.00 250.20 L 439.60 252.20 L 435.90 255.40 L 432.70 257.20 L 425.60 259.60 L 422.10 260.50 L 416.00 260.80 L 414.00 260.50 L 411.80 259.30 L 410.90 258.20 L 410.50 254.90 L 410.70 251.60 L 411.40 248.40 L 412.40 245.20 L 417.40 234.50 L 418.80 232.40 L 420.50 230.50 Z" fill="#373536" fill-rule="nonzero" group-id="4,23" node-id="245" stroke="none" target-height="30.299988" target-width="30.5" target-x="410.5" target-y="230.5"></path><path d="M 294.60 363.20 L 296.60 359.80 L 303.70 345.60 L 305.80 342.20 L 304.70 344.90 L 308.40 348.30 L 311.90 352.00 L 314.00 354.70 L 317.20 360.60 L 318.20 363.70 L 318.60 367.00 L 318.40 372.00 L 317.10 374.60 L 315.50 376.10 L 313.50 377.40 L 309.30 379.10 L 301.60 381.10 L 293.80 382.60 L 278.00 385.00 L 280.50 381.20 L 292.00 367.00 L 294.60 363.20 Z" fill="#373536" fill-rule="nonzero" group-id="4,24" node-id="250" stroke="none" target-height="42.799988" target-width="40.600006" target-x="278" target-y="342.2"></path><path d="M 333.70 438.00 L 335.40 437.60 L 337.10 437.80 L 338.80 438.40 L 341.70 440.30 L 344.70 443.70 L 346.20 445.90 L 347.30 448.40 L 348.60 452.30 L 349.30 456.30 L 349.50 460.40 L 348.80 467.10 L 346.80 472.00 L 345.40 474.10 L 343.50 476.00 L 341.30 477.40 L 339.50 478.00 L 337.70 478.10 L 335.90 477.70 L 332.80 475.90 L 331.60 474.50 L 329.30 471.10 L 327.70 467.40 L 326.50 463.40 L 325.80 459.40 L 325.50 455.30 L 325.70 451.20 L 326.70 445.80 L 327.80 443.30 L 329.20 441.00 L 331.90 438.70 L 333.70 438.00 Z" fill="#373536" fill-rule="nonzero" group-id="4,25" node-id="255" stroke="none" target-height="40.5" target-width="24" target-x="325.5" target-y="437.6"></path><path d="M 455.30 479.10 L 456.90 478.70 L 460.10 478.90 L 462.90 480.50 L 464.00 481.70 L 465.00 483.10 L 466.00 486.10 L 466.10 488.50 L 465.80 490.90 L 464.40 495.60 L 462.40 499.80 L 457.90 506.50 L 453.30 510.80 L 450.70 512.60 L 447.90 514.00 L 444.80 515.00 L 442.00 515.30 L 438.70 514.10 L 437.00 512.70 L 435.80 510.90 L 435.20 508.90 L 435.00 505.90 L 435.40 503.00 L 436.20 500.10 L 438.80 494.70 L 443.30 488.10 L 446.70 484.40 L 449.30 482.20 L 452.20 480.50 L 455.30 479.10 Z" fill="#373536" fill-rule="nonzero" group-id="4,26" node-id="260" stroke="none" target-height="36.599976" target-width="31.100006" target-x="435" target-y="478.7"></path><path d="M 231.50 529.40 L 236.70 529.70 L 241.80 530.40 L 251.30 532.50 L 288.90 542.00 L 307.50 547.50 L 323.10 553.20 L 343.10 559.20 L 331.80 559.30 L 301.70 556.30 L 286.90 553.40 L 276.00 550.50 L 257.90 544.80 L 243.70 539.10 L 235.20 534.40 L 233.80 532.90 L 231.50 529.40 Z" fill="#373536" fill-rule="nonzero" group-id="4,27" node-id="265" stroke="none" target-height="29.899963" target-width="111.600006" target-x="231.5" target-y="529.4"></path><path d="M 609.60 552.40 L 614.00 553.70 L 620.40 560.30 L 622.20 562.70 L 623.80 565.30 L 625.00 568.10 L 625.20 569.70 L 624.70 572.50 L 623.70 574.50 L 620.50 577.70 L 614.90 580.60 L 611.00 581.90 L 608.30 582.40 L 603.00 582.60 L 601.60 582.20 L 599.80 580.70 L 599.00 579.20 L 598.50 577.40 L 598.20 569.70 L 604.80 563.40 L 606.60 560.90 L 609.60 552.40 Z" fill="#373536" fill-rule="nonzero" group-id="4,28" node-id="270" stroke="none" target-height="30.199951" target-width="27" target-x="598.2" target-y="552.4"></path><path d="M 172.20 553.70 L 199.50 555.60 L 226.70 558.30 L 259.30 561.00 L 268.10 561.10 L 275.10 559.80 L 280.00 559.60 L 330.90 563.60 L 371.70 567.40 L 384.80 568.30 L 410.90 568.90 L 455.20 568.50 L 457.80 568.70 L 460.20 569.30 L 463.00 571.10 L 464.10 572.50 L 451.10 573.90 L 424.80 575.20 L 398.30 575.60 L 364.00 575.10 L 340.50 575.40 L 270.90 572.30 L 247.70 570.60 L 232.30 569.20 L 201.60 565.10 L 189.30 562.70 L 183.20 561.20 L 177.30 559.20 L 175.60 558.30 L 174.30 556.90 L 172.20 553.70 Z" fill="#373536" fill-rule="nonzero" group-id="4,29" node-id="275" stroke="none" target-height="21.899963" target-width="291.90002" target-x="172.2" target-y="553.7"></path><path d="M 453.00 577.90 L 465.40 577.00 L 472.20 577.40 L 477.50 578.90 L 474.30 581.30 L 472.50 582.20 L 470.50 582.50 L 450.60 583.20 L 406.60 587.80 L 387.90 590.30 L 369.30 593.20 L 359.00 595.10 L 349.00 597.50 L 339.00 600.40 L 329.20 603.60 L 316.30 608.60 L 303.70 614.00 L 291.20 620.00 L 266.80 633.10 L 235.80 651.00 L 241.60 644.00 L 248.10 634.40 L 249.80 632.70 L 253.90 630.00 L 268.20 621.10 L 278.70 615.40 L 289.40 610.00 L 300.30 605.20 L 311.40 600.80 L 322.70 596.90 L 332.10 593.80 L 351.10 588.50 L 370.40 584.60 L 380.20 583.20 L 392.30 581.60 L 404.40 580.50 L 453.00 577.90 Z" fill="#373536" fill-rule="nonzero" group-id="4,30" node-id="280" stroke="none" target-height="74" target-width="241.7" target-x="235.8" target-y="577"></path><path d="M 340.60 580.00 L 351.60 578.90 L 362.70 578.30 L 368.20 578.40 L 373.70 579.10 L 368.80 580.80 L 353.70 583.70 L 343.60 586.00 L 314.00 593.50 L 294.30 597.60 L 261.20 605.70 L 221.30 614.70 L 217.10 615.30 L 211.40 615.40 L 210.20 614.80 L 208.30 612.80 L 216.30 610.50 L 231.20 605.40 L 256.80 598.60 L 293.40 590.20 L 301.10 587.80 L 298.50 587.70 L 302.70 585.60 L 322.80 582.30 L 340.60 580.00 Z" fill="#373536" fill-rule="nonzero" group-id="4,31" node-id="285" stroke="none" target-height="37.100037" target-width="165.40001" target-x="208.3" target-y="578.3"></path><path d="M 412.30 592.30 L 423.10 591.40 L 429.00 591.90 L 431.10 592.70 L 433.20 594.00 L 428.20 594.00 L 458.60 604.50 L 464.10 606.90 L 460.30 608.40 L 458.90 608.50 L 453.40 607.60 L 448.00 606.10 L 420.40 596.30 L 412.30 592.30 Z" fill="#373536" fill-rule="nonzero" group-id="4,32" node-id="290" stroke="none" target-height="17.099976" target-width="51.80002" target-x="412.3" target-y="591.4"></path><path d="M 571.90 628.40 L 584.00 623.80 L 607.30 612.90 L 613.40 621.70 L 619.10 630.80 L 629.90 649.30 L 640.40 670.20 L 643.20 677.50 L 640.90 679.30 L 637.00 683.50 L 632.50 690.80 L 626.50 702.40 L 624.30 706.10 L 623.00 707.50 L 621.60 708.60 L 620.00 709.20 L 616.50 709.40 L 613.00 708.40 L 610.10 706.30 L 608.40 703.90 L 607.00 701.40 L 602.40 690.80 L 600.90 688.30 L 599.00 686.10 L 597.30 684.90 L 595.40 684.20 L 593.40 684.00 L 584.80 684.10 L 582.60 683.70 L 578.30 682.10 L 576.50 680.70 L 574.90 679.00 L 573.40 676.40 L 572.50 673.50 L 572.20 670.50 L 572.40 667.50 L 573.00 664.60 L 575.50 659.10 L 582.70 649.40 L 584.20 646.80 L 584.50 645.30 L 583.90 642.70 L 582.90 640.90 L 575.10 632.40 L 571.90 628.40 Z" fill="#373536" fill-rule="nonzero" group-id="4,33" node-id="295" stroke="none" target-height="96.5" target-width="71.29999" target-x="571.9" target-y="612.9"></path><path d="M 347.20 624.30 L 352.20 627.70 L 357.60 632.70 L 362.10 638.70 L 368.70 649.70 L 372.70 654.20 L 375.20 655.90 L 377.50 656.90 L 382.30 657.70 L 393.40 657.30 L 399.50 657.80 L 404.10 659.60 L 405.90 661.00 L 408.60 664.40 L 409.90 667.50 L 410.60 670.80 L 410.70 677.50 L 406.00 725.20 L 405.40 729.20 L 403.50 735.60 L 400.90 740.30 L 399.30 742.10 L 397.50 743.50 L 395.50 744.50 L 391.10 745.50 L 388.80 745.60 L 385.30 745.20 L 382.00 744.20 L 376.10 741.20 L 369.60 736.10 L 358.50 726.00 L 353.10 722.30 L 350.10 720.80 L 347.10 720.20 L 341.10 719.90 L 336.60 720.50 L 332.10 721.40 L 323.40 723.80 L 324.60 711.00 L 326.30 698.30 L 328.60 685.70 L 331.40 673.20 L 334.80 660.70 L 338.50 648.40 L 342.60 636.30 L 347.20 624.30 Z" fill="#373536" fill-rule="nonzero" group-id="4,34" node-id="300" stroke="none" target-height="121.29999" target-width="87.30002" target-x="323.4" target-y="624.3"></path><path d="M 811.50 665.10 L 814.00 662.20 L 817.00 659.90 L 815.10 665.90 L 811.40 672.60 L 800.90 688.00 L 798.70 692.10 L 800.90 692.40 L 803.00 692.10 L 805.00 691.30 L 806.70 690.00 L 828.40 674.10 L 836.40 666.70 L 842.20 662.20 L 839.50 669.50 L 836.30 676.70 L 832.80 683.70 L 828.90 690.40 L 824.50 696.90 L 819.70 703.00 L 809.30 715.40 L 807.00 718.70 L 805.00 722.30 L 808.00 721.30 L 813.40 718.30 L 817.00 715.40 L 827.00 705.50 L 833.00 698.50 L 843.30 683.30 L 843.00 688.90 L 842.10 694.40 L 840.60 699.80 L 835.90 710.50 L 833.00 715.90 L 829.70 721.00 L 826.00 725.90 L 823.30 728.80 L 817.20 734.10 L 809.90 738.90 L 806.10 741.00 L 802.10 742.60 L 798.00 743.80 L 790.80 744.50 L 785.30 743.60 L 782.70 742.60 L 780.30 741.10 L 778.30 739.00 L 776.20 736.00 L 774.60 732.70 L 773.40 729.20 L 772.50 725.60 L 771.30 718.30 L 770.60 711.00 L 771.00 706.10 L 771.80 703.80 L 771.50 707.40 L 774.10 702.20 L 777.10 697.20 L 781.90 691.10 L 787.90 685.40 L 802.30 674.80 L 805.70 671.90 L 808.80 668.70 L 811.50 665.10 Z" fill="#373536" fill-rule="nonzero" group-id="4,35" node-id="305" stroke="none" target-height="84.599976" target-width="72.70001" target-x="770.6" target-y="659.9"></path><path d="M 515.00 732.90 L 516.00 736.90 L 516.60 741.10 L 516.70 757.80 L 528.10 756.20 L 533.90 755.90 L 542.50 755.80 L 551.20 756.40 L 554.80 757.00 L 558.30 758.10 L 560.60 759.20 L 564.50 762.00 L 566.20 763.80 L 567.50 765.80 L 568.50 768.10 L 569.40 771.30 L 569.90 777.80 L 569.50 782.70 L 567.30 792.40 L 563.20 804.90 L 560.30 812.60 L 551.80 831.30 L 546.20 842.20 L 540.60 851.10 L 536.60 855.10 L 532.50 857.10 L 530.10 857.50 L 525.70 857.30 L 522.50 856.30 L 519.50 854.80 L 516.70 852.80 L 514.20 850.50 L 514.50 806.40 L 515.70 784.10 L 515.90 772.90 L 515.00 732.90 Z" fill="#373536" fill-rule="nonzero" group-id="4,36" node-id="310" stroke="none" target-height="124.599976" target-width="55.700012" target-x="514.2" target-y="732.9"></path><path d="M 326.50 773.20 L 330.80 774.30 L 335.10 774.80 L 348.30 775.40 L 352.70 776.10 L 355.60 777.00 L 358.20 778.30 L 360.60 780.00 L 362.80 782.00 L 366.20 786.80 L 368.40 792.30 L 368.90 795.20 L 369.10 798.20 L 368.80 801.10 L 368.10 804.00 L 366.70 806.90 L 365.00 809.50 L 359.60 815.10 L 337.40 832.20 L 336.20 834.60 L 335.90 838.80 L 334.70 834.50 L 328.10 796.00 L 326.00 780.70 L 326.50 773.20 Z" fill="#373536" fill-rule="nonzero" group-id="4,37" node-id="315" stroke="none" target-height="65.599976" target-width="43.100006" target-x="326" target-y="773.2"></path><path d="M 292.80 776.40 L 301.60 775.20 L 298.80 790.80 L 297.10 797.70 L 295.40 801.00 L 294.20 802.40 L 292.80 803.50 L 291.00 804.20 L 287.90 804.40 L 284.80 803.90 L 279.00 801.60 L 273.70 798.40 L 264.70 790.70 L 259.80 787.50 L 276.10 781.30 L 292.80 776.40 Z" fill="#373536" fill-rule="nonzero" group-id="4,38" node-id="320" stroke="none" target-height="29.200012" target-width="41.80002" target-x="259.8" target-y="775.2"></path><path d="M 602.80 800.20 L 613.80 797.80 L 617.20 796.50 L 619.30 795.30 L 621.20 793.80 L 622.90 791.80 L 620.90 808.50 L 616.50 835.60 L 614.30 846.00 L 611.10 856.10 L 594.90 850.50 L 589.50 847.90 L 587.00 846.20 L 584.50 844.20 L 582.40 841.90 L 580.60 839.30 L 579.20 836.40 L 578.10 833.50 L 577.50 830.40 L 577.30 827.30 L 577.50 824.20 L 578.30 821.10 L 579.50 817.50 L 581.30 814.20 L 583.50 811.20 L 586.10 808.50 L 589.00 806.20 L 592.20 804.10 L 595.60 802.40 L 602.80 800.20 Z" fill="#373536" fill-rule="nonzero" group-id="4,39" node-id="325" stroke="none" target-height="64.29999" target-width="45.600037" target-x="577.3" target-y="791.8"></path><path d="M 236.10 809.00 L 238.10 810.30 L 239.90 812.10 L 243.00 815.90 L 247.20 821.90 L 251.00 828.10 L 254.30 834.50 L 259.90 848.00 L 262.10 855.00 L 264.00 862.00 L 266.80 876.30 L 267.20 883.20 L 267.00 890.30 L 266.50 895.00 L 264.60 904.20 L 263.00 908.60 L 261.00 912.80 L 257.20 918.50 L 253.90 921.00 L 251.10 922.30 L 248.10 923.20 L 241.80 923.80 L 238.40 923.60 L 231.90 922.10 L 227.20 920.20 L 222.80 917.60 L 214.70 911.50 L 210.40 907.10 L 206.40 902.40 L 202.80 897.40 L 199.50 892.10 L 196.60 886.70 L 191.70 875.30 L 187.90 863.60 L 185.90 855.70 L 184.50 847.70 L 183.90 842.30 L 183.80 831.40 L 184.60 826.20 L 185.30 824.50 L 185.50 825.70 L 193.40 821.60 L 201.50 817.90 L 209.90 814.80 L 218.50 812.30 L 227.20 810.40 L 236.10 809.00 Z" fill="#373536" fill-rule="nonzero" group-id="4,40" node-id="330" stroke="none" target-height="114.79999" target-width="83.40001" target-x="183.8" target-y="809"></path><path d="M 716.80 822.70 L 720.70 819.10 L 725.00 815.90 L 727.30 814.70 L 729.80 813.90 L 744.20 814.20 L 753.80 815.30 L 762.40 817.20 L 773.80 821.10 L 781.60 822.90 L 782.60 828.40 L 783.20 833.80 L 783.40 839.20 L 783.20 844.70 L 782.30 851.90 L 780.90 859.00 L 779.00 866.10 L 776.60 873.00 L 770.80 886.40 L 766.90 893.00 L 762.50 899.50 L 759.30 903.50 L 752.10 911.00 L 748.20 914.30 L 744.00 917.30 L 739.60 920.00 L 735.80 921.80 L 731.80 923.10 L 727.70 923.80 L 719.40 924.00 L 715.20 923.50 L 710.60 921.80 L 708.60 920.50 L 705.90 918.10 L 703.60 915.10 L 701.70 911.90 L 700.30 908.60 L 698.60 903.10 L 697.30 897.60 L 696.50 891.90 L 696.10 886.20 L 696.10 880.50 L 696.70 874.70 L 698.40 862.30 L 701.50 850.00 L 703.70 844.10 L 706.30 838.30 L 709.30 832.80 L 712.80 827.60 L 716.80 822.70 Z" fill="#373536" fill-rule="nonzero" group-id="4,41" node-id="335" stroke="none" target-height="110.099976" target-width="87.30005" target-x="696.1" target-y="813.9"></path><path d="M 363.10 850.90 L 366.00 849.70 L 369.00 848.80 L 372.10 848.50 L 376.70 848.50 L 381.50 849.20 L 386.10 850.40 L 390.50 851.80 L 389.60 858.70 L 388.90 862.20 L 387.80 865.40 L 386.60 867.40 L 385.10 869.00 L 383.10 870.40 L 381.40 870.60 L 378.20 870.10 L 373.80 867.80 L 369.90 864.70 L 366.20 860.80 L 364.60 858.60 L 363.40 856.20 L 362.80 852.80 L 363.10 850.90 Z" fill="#373536" fill-rule="nonzero" group-id="4,42" node-id="340" stroke="none" target-height="22.099976" target-width="27.700012" target-x="362.8" target-y="848.5"></path><path d="M 287.00 853.50 L 289.20 853.30 L 291.10 853.60 L 292.90 854.20 L 295.30 855.80 L 297.40 857.90 L 299.20 860.40 L 301.60 865.40 L 302.30 868.00 L 302.30 871.40 L 301.20 874.40 L 300.20 875.10 L 297.60 875.60 L 292.70 875.20 L 290.60 874.30 L 288.30 872.20 L 287.50 870.90 L 286.50 866.60 L 286.00 862.20 L 286.30 856.40 L 287.00 853.50 Z" fill="#373536" fill-rule="nonzero" group-id="4,43" node-id="345" stroke="none" target-height="22.299988" target-width="16.299988" target-x="286" target-y="853.3"></path><path d="M 515.30 888.40 L 525.90 890.90 L 544.00 894.10 L 558.50 895.40 L 565.80 895.60 L 580.40 894.80 L 586.00 893.90 L 602.60 889.40 L 599.70 900.60 L 596.40 911.70 L 594.30 916.60 L 592.10 919.30 L 590.60 920.20 L 585.10 922.40 L 579.50 924.10 L 568.10 926.80 L 559.90 927.90 L 551.50 928.50 L 545.80 928.50 L 534.70 927.60 L 529.30 926.40 L 524.00 924.80 L 518.80 922.70 L 517.40 921.60 L 516.60 918.10 L 515.90 910.70 L 515.30 888.40 Z" fill="#373536" fill-rule="nonzero" group-id="4,44" node-id="350" stroke="none" target-height="40.099976" target-width="87.29999" target-x="515.3" target-y="888.4"></path><path d="M 348.10 889.10 L 355.20 891.20 L 369.60 894.10 L 376.90 894.90 L 386.70 895.50 L 396.50 895.40 L 406.30 894.80 L 416.10 893.50 L 425.70 891.80 L 435.30 889.40 L 435.10 919.00 L 430.70 921.80 L 426.20 924.00 L 421.40 925.70 L 411.50 928.10 L 406.30 928.70 L 398.60 929.10 L 391.00 928.90 L 383.50 928.10 L 376.00 926.70 L 368.70 924.80 L 359.90 921.40 L 358.60 920.20 L 356.90 917.10 L 348.10 889.10 Z" fill="#373536" fill-rule="nonzero" group-id="4,45" node-id="355" stroke="none" target-height="40" target-width="87.19998" target-x="348.1" target-y="889.1"></path><path d="M 298.40 154.60 L 305.30 155.40 L 308.70 156.30 L 311.90 157.50 L 316.80 159.90 L 321.50 162.70 L 326.00 165.80 L 330.20 169.30 L 334.20 173.10 L 337.80 177.20 L 344.00 185.10 L 365.50 215.10 L 374.40 225.10 L 369.60 223.50 L 364.20 220.00 L 356.90 213.00 L 349.10 203.20 L 333.50 182.20 L 328.80 176.50 L 323.80 171.10 L 318.40 166.10 L 314.50 163.20 L 310.40 160.60 L 298.40 154.60 Z" fill="#cccbcb" fill-rule="nonzero" group-id="5,46" node-id="363" stroke="none" target-height="70.5" target-width="76" target-x="298.4" target-y="154.6"></path><path d="M 498.90 206.20 L 505.70 206.10 L 514.40 207.20 L 523.00 208.70 L 531.50 210.70 L 544.20 214.20 L 556.70 218.20 L 566.10 221.80 L 575.30 225.80 L 584.30 230.20 L 570.70 241.00 L 566.20 236.80 L 561.50 233.00 L 556.40 229.60 L 551.20 226.50 L 545.80 223.80 L 535.00 219.60 L 519.10 214.90 L 508.70 211.30 L 503.70 209.00 L 498.90 206.20 Z" fill="#cccbcb" fill-rule="nonzero" group-id="5,47" node-id="368" stroke="none" target-height="34.899994" target-width="85.399994" target-x="498.9" target-y="206.1"></path><path d="M 733.40 285.90 L 742.00 281.70 L 756.80 275.30 L 769.10 271.70 L 775.40 270.60 L 781.80 270.00 L 792.00 270.20 L 799.30 271.60 L 802.90 272.70 L 809.60 275.80 L 812.70 277.90 L 818.40 282.70 L 807.80 278.80 L 801.40 278.00 L 795.10 277.60 L 788.70 277.60 L 782.20 278.10 L 775.80 279.00 L 769.60 280.30 L 763.50 282.10 L 726.00 297.50 L 720.70 299.50 L 709.70 302.30 L 704.10 303.20 L 692.80 304.00 L 695.90 302.40 L 714.80 294.60 L 733.40 285.90 Z" fill="#cccbcb" fill-rule="nonzero" group-id="5,48" node-id="373" stroke="none" target-height="34" target-width="125.60004" target-x="692.8" target-y="270"></path><path d="M 627.10 540.10 L 629.80 542.90 L 632.90 545.30 L 636.20 547.50 L 639.80 549.20 L 646.20 551.30 L 659.60 554.40 L 653.50 562.40 L 647.00 569.90 L 640.00 577.00 L 632.60 583.60 L 624.80 589.90 L 616.80 595.70 L 608.40 601.10 L 599.70 606.10 L 590.80 610.70 L 581.80 614.90 L 572.60 618.70 L 563.30 622.20 L 543.00 628.40 L 532.70 630.80 L 522.20 632.70 L 534.30 625.80 L 540.00 622.00 L 545.40 617.60 L 549.50 613.70 L 553.10 609.50 L 556.50 605.00 L 559.50 600.20 L 564.60 590.20 L 570.80 588.00 L 576.90 585.30 L 582.70 582.10 L 588.30 578.40 L 593.40 574.30 L 598.20 569.70 L 598.50 577.40 L 599.00 579.20 L 600.50 581.50 L 603.00 582.60 L 608.30 582.40 L 614.90 580.60 L 618.60 578.90 L 622.20 576.20 L 623.70 574.50 L 624.70 572.50 L 625.20 569.70 L 625.00 568.10 L 623.80 565.30 L 622.20 562.70 L 620.40 560.30 L 614.00 553.70 L 620.80 547.20 L 627.10 540.10 Z" fill="#cccbcb" fill-rule="nonzero" group-id="5,49" node-id="378" stroke="none" target-height="92.60004" target-width="137.39996" target-x="522.2" target-y="540.1"></path><path d="M 172.20 553.70 L 175.50 551.50 L 177.30 550.70 L 189.00 550.50 L 198.60 551.00 L 208.20 552.00 L 275.10 559.80 L 271.60 560.70 L 264.60 561.20 L 259.30 561.00 L 226.70 558.30 L 199.50 555.70 L 172.20 553.70 Z" fill="#cccbcb" fill-rule="nonzero" group-id="5,50" node-id="383" stroke="none" target-height="10.700012" target-width="102.90001" target-x="172.2" target-y="550.5"></path><path d="M 284.20 590.00 L 294.90 588.00 L 298.50 587.70 L 301.10 587.80 L 293.40 590.20 L 256.80 598.60 L 244.00 601.80 L 231.20 605.40 L 211.20 611.90 L 214.20 609.80 L 220.50 606.40 L 230.60 602.60 L 239.40 599.80 L 257.20 595.30 L 284.20 590.00 Z" fill="#cccbcb" fill-rule="nonzero" group-id="5,51" node-id="388" stroke="none" target-height="24.200012" target-width="89.90001" target-x="211.2" target-y="587.7"></path><path d="M 428.20 594.00 L 433.20 594.00 L 445.50 597.40 L 459.70 602.70 L 461.60 604.00 L 465.00 607.30 L 458.60 604.50 L 428.20 594.00 Z" fill="#cccbcb" fill-rule="nonzero" group-id="5,52" node-id="393" stroke="none" target-height="13.299988" target-width="36.799988" target-x="428.2" target-y="594"></path><path d="M 353.60 611.40 L 371.30 621.40 L 380.20 625.40 L 398.50 632.40 L 417.20 638.00 L 426.70 640.10 L 436.30 641.90 L 457.30 644.70 L 468.50 645.50 L 479.80 645.60 L 491.10 645.20 L 502.30 644.40 L 513.50 643.00 L 524.70 641.10 L 535.70 638.80 L 553.00 634.30 L 571.90 628.40 L 578.50 636.20 L 573.40 637.00 L 568.30 638.30 L 553.50 643.30 L 536.80 648.10 L 524.90 651.00 L 512.90 653.40 L 500.90 655.30 L 484.70 656.60 L 465.80 656.80 L 455.10 656.20 L 444.40 655.00 L 433.80 653.40 L 423.30 651.20 L 412.90 648.60 L 402.60 645.50 L 392.50 641.90 L 377.00 635.40 L 360.80 626.50 L 355.30 623.80 L 349.50 621.60 L 353.60 611.40 Z" fill="#cccbcb" fill-rule="nonzero" group-id="5,53" node-id="398" stroke="none" target-height="45.399963" target-width="229" target-x="349.5" target-y="611.4"></path><path d="M 230.70 651.80 L 232.70 648.60 L 235.00 645.70 L 237.60 643.00 L 242.00 639.50 L 246.60 636.40 L 244.30 640.30 L 241.60 644.00 L 235.30 651.70 L 230.70 651.80 Z" fill="#cccbcb" fill-rule="nonzero" group-id="5,54" node-id="403" stroke="none" target-height="15.399963" target-width="15.900009" target-x="230.7" target-y="636.4"></path><path d="M 791.90 676.60 L 802.00 671.50 L 811.50 665.10 L 808.80 668.70 L 805.70 671.90 L 802.30 674.80 L 787.90 685.40 L 781.90 691.10 L 777.10 697.20 L 774.10 702.20 L 771.50 707.40 L 771.80 703.80 L 772.50 699.90 L 773.70 696.20 L 775.30 692.60 L 777.30 689.20 L 779.60 686.10 L 782.30 683.20 L 785.20 680.60 L 788.50 678.50 L 791.90 676.60 Z" fill="#cccbcb" fill-rule="nonzero" group-id="5,55" node-id="408" stroke="none" target-height="42.30005" target-width="40" target-x="771.5" target-y="665.1"></path><path d="M 440.60 739.70 L 441.90 745.50 L 442.60 751.30 L 444.30 796.20 L 445.00 806.80 L 447.30 824.40 L 450.60 838.20 L 454.60 849.70 L 457.30 855.30 L 460.40 860.50 L 462.80 863.80 L 468.40 869.60 L 471.80 872.20 L 475.50 874.20 L 479.30 875.90 L 483.40 877.00 L 487.50 877.70 L 491.70 877.90 L 495.90 877.70 L 500.10 877.10 L 504.10 876.00 L 504.40 837.90 L 504.90 825.20 L 505.50 838.80 L 505.80 897.90 L 506.90 908.30 L 507.50 921.10 L 489.70 922.00 L 473.60 921.10 L 463.50 920.40 L 453.40 919.20 L 443.50 917.40 L 444.20 911.90 L 444.50 906.40 L 444.70 872.10 L 444.40 837.90 L 443.90 829.00 L 443.10 793.40 L 440.60 739.70 Z" fill="#cccbcb" fill-rule="nonzero" group-id="5,56" node-id="413" stroke="none" target-height="182.29999" target-width="66.899994" target-x="440.6" target-y="739.7"></path><path d="M 780.00 751.00 L 785.30 752.10 L 782.20 764.00 L 780.00 769.80 L 777.50 775.50 L 774.60 780.90 L 771.30 786.10 L 767.60 791.10 L 763.60 795.70 L 759.10 800.00 L 757.90 801.00 L 756.60 801.60 L 750.60 801.90 L 760.70 791.70 L 763.80 788.00 L 769.30 780.20 L 771.80 775.60 L 774.00 770.90 L 775.80 766.00 L 780.00 751.00 Z" fill="#cccbcb" fill-rule="nonzero" group-id="5,57" node-id="418" stroke="none" target-height="50.900024" target-width="34.700012" target-x="750.6" target-y="751"></path><path d="M 631.10 795.40 L 632.80 778.30 L 634.40 769.80 L 633.00 790.80 L 631.30 827.60 L 631.10 837.50 L 631.30 848.00 L 632.40 858.50 L 634.30 865.20 L 635.70 868.40 L 637.00 870.70 L 640.40 874.40 L 643.50 876.70 L 650.50 880.00 L 662.10 883.60 L 670.10 885.70 L 686.40 888.90 L 687.40 872.00 L 689.20 863.70 L 687.70 882.90 L 687.60 889.30 L 688.00 895.70 L 689.00 902.10 L 690.40 907.20 L 692.30 912.10 L 694.60 916.90 L 697.30 921.40 L 682.40 918.90 L 667.50 916.00 L 652.70 912.70 L 638.00 909.00 L 623.40 904.90 L 609.00 900.40 L 613.80 883.10 L 618.10 865.80 L 622.10 848.30 L 625.70 830.80 L 628.70 813.10 L 631.10 795.40 Z" fill="#cccbcb" fill-rule="nonzero" group-id="5,58" node-id="423" stroke="none" target-height="151.60004" target-width="88.29999" target-x="609" target-y="769.8"></path><path d="M 310.30 772.80 L 316.70 771.40 L 320.50 800.00 L 326.80 835.50 L 333.70 867.40 L 341.70 899.40 L 330.10 903.50 L 306.80 910.50 L 281.20 916.70 L 267.30 919.30 L 270.30 913.70 L 272.80 907.70 L 274.00 903.60 L 274.80 899.50 L 275.20 895.20 L 275.40 886.70 L 274.60 869.60 L 275.60 874.10 L 276.60 883.00 L 276.40 892.00 L 275.80 896.50 L 276.70 890.80 L 289.60 888.20 L 296.00 886.60 L 302.10 884.40 L 306.00 882.50 L 309.80 880.30 L 313.30 877.60 L 316.90 873.80 L 320.00 868.20 L 321.30 864.50 L 322.70 856.90 L 323.40 842.80 L 322.60 825.30 L 321.40 814.80 L 317.00 783.30 L 315.90 772.80 L 310.30 772.80 Z" fill="#cccbcb" fill-rule="nonzero" group-id="5,59" node-id="428" stroke="none" target-height="147.89996" target-width="74.400024" target-x="267.3" target-y="771.4"></path><path d="M 193.10 816.50 L 204.40 811.20 L 210.30 809.10 L 216.30 807.50 L 222.40 806.30 L 230.00 805.60 L 232.60 806.60 L 236.10 809.00 L 227.20 810.40 L 218.50 812.30 L 209.90 814.80 L 201.50 817.90 L 193.40 821.60 L 185.50 825.70 L 185.30 824.50 L 187.10 821.20 L 190.70 818.00 L 193.10 816.50 Z" fill="#cccbcb" fill-rule="nonzero" group-id="5,60" node-id="433" stroke="none" target-height="20.100037" target-width="50.800003" target-x="185.3" target-y="805.6"></path><path d="M 729.80 813.90 L 734.30 812.10 L 738.80 810.90 L 743.50 810.20 L 748.20 810.00 L 753.00 810.20 L 757.70 810.80 L 767.00 813.10 L 773.50 815.50 L 777.10 818.00 L 781.60 822.90 L 773.80 821.10 L 762.40 817.20 L 753.80 815.30 L 744.20 814.20 L 729.80 813.90 Z" fill="#cccbcb" fill-rule="nonzero" group-id="5,61" node-id="438" stroke="none" target-height="12.900024" target-width="51.799988" target-x="729.8" target-y="810"></path><path d="M 335.90 838.80 L 336.20 834.60 L 337.40 832.20 L 338.40 831.20 L 339.40 837.70 L 340.90 844.10 L 344.10 853.80 L 351.30 873.00 L 355.40 882.30 L 349.10 880.10 L 347.20 879.10 L 345.30 877.10 L 341.30 863.50 L 338.40 851.20 L 335.90 838.80 Z" fill="#cccbcb" fill-rule="nonzero" group-id="5,62" node-id="443" stroke="none" target-height="51.099976" target-width="19.5" target-x="335.9" target-y="831.2"></path><path d="M 603.50 853.20 L 611.10 856.10 L 608.80 867.50 L 607.30 873.10 L 605.40 878.50 L 598.90 881.20 L 592.10 883.40 L 585.20 885.10 L 578.20 886.30 L 571.20 887.10 L 564.10 887.30 L 567.40 883.40 L 573.60 877.70 L 576.30 875.80 L 590.00 868.10 L 596.60 863.20 L 599.40 860.40 L 601.00 858.20 L 603.50 853.20 Z" fill="#cccbcb" fill-rule="nonzero" group-id="5,63" node-id="448" stroke="none" target-height="34.099976" target-width="47" target-x="564.1" target-y="853.2"></path><path d="M 413.70 223.90 L 423.10 219.40 L 432.60 215.60 L 442.40 212.20 L 452.40 209.50 L 462.40 207.30 L 472.60 205.60 L 479.20 205.00 L 480.60 209.70 L 482.50 219.10 L 483.30 226.30 L 485.00 247.90 L 486.20 255.00 L 487.20 258.50 L 489.80 263.90 L 493.00 267.40 L 496.10 269.30 L 499.40 270.80 L 502.80 271.70 L 506.40 272.10 L 510.00 272.10 L 513.60 271.50 L 517.00 270.50 L 520.20 269.00 L 526.80 264.30 L 536.70 255.30 L 541.60 252.10 L 544.40 250.90 L 549.80 249.30 L 555.30 248.20 L 566.40 246.70 L 560.10 254.10 L 554.10 261.70 L 548.50 269.50 L 543.30 277.60 L 538.40 285.90 L 529.60 303.00 L 525.60 311.80 L 520.90 323.80 L 516.60 336.00 L 512.90 348.30 L 509.70 360.80 L 507.00 373.40 L 503.30 395.00 L 501.70 413.20 L 501.00 440.60 L 490.60 433.90 L 479.90 427.70 L 468.90 422.00 L 457.70 416.80 L 446.30 412.00 L 434.70 407.80 L 414.60 401.50 L 394.10 396.40 L 383.70 394.50 L 373.30 392.90 L 362.80 391.90 L 352.30 391.40 L 334.20 391.60 L 326.70 392.20 L 319.30 393.20 L 311.90 394.70 L 304.70 396.60 L 297.50 398.90 L 290.50 401.60 L 283.80 404.80 L 277.20 408.50 L 273.50 410.80 L 266.80 416.40 L 257.80 425.70 L 259.80 415.60 L 261.30 410.70 L 263.10 405.80 L 265.40 401.20 L 267.90 396.70 L 270.90 392.50 L 274.20 388.60 L 278.00 385.00 L 293.80 382.60 L 301.60 381.10 L 309.30 379.10 L 313.50 377.40 L 315.50 376.10 L 317.90 373.40 L 318.60 370.40 L 318.60 367.00 L 318.20 363.70 L 317.20 360.60 L 314.00 354.70 L 311.90 352.00 L 308.40 348.30 L 304.70 344.90 L 310.80 331.30 L 316.30 320.70 L 322.10 310.30 L 327.60 301.70 L 333.40 293.40 L 339.70 285.30 L 346.30 277.60 L 353.20 270.10 L 366.00 257.40 L 371.90 252.20 L 391.30 237.20 L 398.50 232.30 L 406.00 227.80 L 413.70 223.90 Z M 420.50 230.50 L 418.80 232.40 L 417.40 234.50 L 415.10 239.20 L 412.40 245.20 L 410.70 251.60 L 410.50 254.90 L 410.90 258.20 L 412.90 260.00 L 416.00 260.80 L 422.10 260.50 L 429.20 258.60 L 432.70 257.20 L 435.90 255.40 L 437.90 254.00 L 441.00 250.20 L 439.90 247.50 L 438.40 244.90 L 436.60 242.60 L 430.50 236.10 L 426.00 232.20 L 424.30 231.20 L 422.50 230.60 L 420.50 230.50 Z M 370.90 282.10 L 369.20 282.80 L 366.40 285.10 L 366.70 288.10 L 367.90 290.90 L 383.10 289.20 L 391.50 289.50 L 396.60 290.40 L 401.50 292.00 L 406.30 294.00 L 410.90 296.50 L 415.20 299.30 L 418.00 297.40 L 419.40 295.80 L 419.60 293.40 L 419.30 292.30 L 417.60 290.10 L 416.10 289.00 L 411.60 286.30 L 406.90 284.10 L 401.90 282.30 L 396.80 281.00 L 391.70 280.20 L 386.40 279.90 L 381.20 280.10 L 376.00 280.80 L 370.90 282.10 Z M 332.80 330.50 L 332.40 334.70 L 333.70 339.60 L 335.00 342.40 L 338.30 347.80 L 340.40 350.70 L 343.10 353.10 L 344.70 353.90 L 346.50 354.20 L 350.60 351.90 L 356.40 347.60 L 358.50 346.50 L 362.30 345.40 L 366.10 344.80 L 370.00 344.80 L 373.90 345.40 L 377.70 346.50 L 381.20 348.10 L 384.70 350.30 L 387.80 352.80 L 390.50 355.80 L 392.90 359.00 L 395.00 362.50 L 399.20 372.00 L 400.70 373.60 L 402.20 373.70 L 404.70 372.80 L 406.20 371.30 L 407.30 369.50 L 405.80 364.30 L 403.60 359.30 L 400.90 354.50 L 395.90 348.10 L 389.90 342.70 L 386.50 340.50 L 382.90 338.70 L 379.10 337.30 L 375.00 336.30 L 371.60 335.70 L 368.20 335.40 L 364.90 335.60 L 358.30 337.00 L 355.00 338.10 L 350.40 340.20 L 346.00 342.70 L 338.70 330.20 L 332.80 330.50 Z" fill="#fdfdfd" fill-rule="nonzero" group-id="6,64" node-id="456" stroke="none" target-height="235.6" target-width="308.60004" target-x="257.8" target-y="205"></path><path d="M 570.90 391.40 L 572.30 390.80 L 573.90 390.70 L 575.40 391.10 L 578.00 392.60 L 579.40 394.90 L 579.70 397.00 L 579.40 399.10 L 578.10 401.60 L 576.10 403.30 L 573.70 404.10 L 569.80 403.60 L 568.40 402.50 L 567.50 400.90 L 567.00 399.10 L 566.90 397.30 L 567.30 395.40 L 568.10 393.70 L 569.30 392.40 L 570.90 391.40 Z" fill="#fdfdfd" fill-rule="nonzero" group-id="6,65" node-id="461" stroke="none" target-height="13.399994" target-width="12.799988" target-x="566.9" target-y="390.7"></path><path d="M 363.00 407.50 L 369.30 407.20 L 375.60 407.50 L 388.10 408.70 L 398.90 410.50 L 409.70 412.70 L 416.80 414.50 L 430.70 419.30 L 437.30 422.30 L 443.80 425.70 L 453.60 432.20 L 457.00 435.10 L 463.20 441.50 L 416.90 423.90 L 401.30 418.50 L 390.80 415.30 L 380.10 412.50 L 369.40 410.10 L 363.00 407.50 Z" fill="#fdfdfd" fill-rule="nonzero" group-id="6,66" node-id="466" stroke="none" target-height="34.299988" target-width="100.20001" target-x="363" target-y="407.2"></path><path d="M 535.00 413.20 L 540.70 413.50 L 540.70 420.40 L 535.00 420.80 L 534.30 419.50 L 533.90 417.00 L 534.20 415.10 L 535.00 413.20 Z" fill="#fdfdfd" fill-rule="nonzero" group-id="6,67" node-id="471" stroke="none" target-height="7.5999756" target-width="6.799988" target-x="533.9" target-y="413.2"></path><path d="M 555.80 500.10 L 570.20 505.40 L 577.10 507.40 L 591.00 510.30 L 607.50 512.00 L 617.00 512.30 L 626.40 512.20 L 624.10 519.50 L 623.30 523.30 L 622.90 527.10 L 623.40 530.50 L 624.30 533.80 L 627.10 540.10 L 620.80 547.20 L 614.00 553.70 L 609.60 552.40 L 606.60 560.90 L 604.80 563.40 L 593.40 574.30 L 588.30 578.40 L 582.70 582.10 L 576.90 585.30 L 570.80 588.00 L 564.60 590.20 L 566.70 584.50 L 568.30 578.60 L 569.60 572.60 L 570.50 566.50 L 570.90 560.40 L 570.90 554.30 L 570.50 548.20 L 568.50 535.10 L 566.80 528.20 L 564.70 521.40 L 560.80 511.40 L 555.80 500.10 Z" fill="#fdfdfd" fill-rule="nonzero" group-id="6,68" node-id="476" stroke="none" target-height="90.100006" target-width="71.29999" target-x="555.8" target-y="500.1"></path><path d="M 348.40 621.30 L 355.30 623.80 L 360.80 626.50 L 377.00 635.40 L 382.60 637.90 L 392.50 641.90 L 402.60 645.50 L 412.90 648.60 L 423.30 651.20 L 433.80 653.40 L 444.40 655.00 L 455.10 656.20 L 465.80 656.80 L 484.70 656.60 L 500.90 655.30 L 512.90 653.40 L 524.90 651.00 L 536.80 648.10 L 553.50 643.30 L 568.30 638.30 L 573.40 637.00 L 578.50 636.20 L 582.90 640.90 L 583.90 642.70 L 584.50 645.30 L 584.20 646.80 L 582.70 649.40 L 575.50 659.10 L 573.00 664.60 L 572.40 667.50 L 572.20 670.50 L 572.50 673.50 L 573.40 676.40 L 574.90 679.00 L 576.50 680.70 L 578.30 682.10 L 580.30 683.10 L 584.80 684.10 L 593.40 684.00 L 595.40 684.20 L 597.30 684.90 L 599.00 686.10 L 600.90 688.30 L 602.40 690.80 L 607.00 701.40 L 608.40 703.90 L 610.10 706.30 L 611.50 707.50 L 614.70 709.10 L 618.30 709.50 L 621.60 708.60 L 623.00 707.50 L 626.50 702.40 L 634.60 687.00 L 638.80 681.30 L 643.20 677.50 L 647.50 688.30 L 651.20 699.30 L 654.50 710.50 L 657.20 721.80 L 659.50 733.20 L 661.30 744.60 L 662.80 756.20 L 664.70 776.20 L 665.10 784.70 L 665.00 818.70 L 667.20 816.30 L 668.80 813.60 L 670.00 810.70 L 672.20 801.30 L 673.00 795.30 L 673.30 789.20 L 673.30 777.00 L 688.90 782.60 L 704.10 789.00 L 717.90 795.80 L 724.60 799.60 L 731.00 803.80 L 725.90 805.90 L 721.10 808.50 L 716.60 811.70 L 712.50 815.20 L 708.70 819.20 L 705.20 823.50 L 702.10 828.10 L 699.40 832.80 L 694.60 844.10 L 692.50 850.50 L 688.10 867.80 L 687.00 876.20 L 686.40 888.90 L 678.20 887.50 L 662.10 883.60 L 650.50 880.00 L 643.50 876.70 L 640.40 874.40 L 638.60 872.70 L 635.70 868.40 L 633.20 861.90 L 631.70 853.30 L 631.10 837.50 L 631.30 827.60 L 633.00 790.80 L 634.10 776.80 L 634.80 752.20 L 634.20 740.50 L 633.20 734.70 L 630.30 734.40 L 624.40 782.30 L 622.90 791.80 L 621.20 793.80 L 619.30 795.30 L 617.20 796.50 L 613.80 797.80 L 599.10 801.10 L 592.20 804.10 L 589.00 806.20 L 586.10 808.50 L 583.50 811.20 L 581.30 814.20 L 579.60 817.50 L 578.30 821.10 L 577.50 824.20 L 577.30 827.30 L 577.50 830.40 L 578.10 833.50 L 579.20 836.40 L 580.60 839.30 L 582.40 841.90 L 584.50 844.20 L 587.00 846.20 L 592.10 849.30 L 603.40 853.20 L 602.40 855.90 L 599.40 860.40 L 596.60 863.20 L 593.40 865.80 L 590.00 868.10 L 576.30 875.80 L 573.60 877.70 L 567.40 883.40 L 564.10 887.30 L 555.70 886.70 L 538.90 884.60 L 530.70 883.10 L 522.50 881.10 L 514.40 878.70 L 514.20 850.50 L 516.70 852.80 L 519.50 854.80 L 522.50 856.30 L 525.70 857.30 L 527.90 857.60 L 532.50 857.10 L 534.70 856.20 L 538.30 853.60 L 540.60 851.10 L 546.20 842.20 L 551.80 831.30 L 557.10 820.10 L 563.20 804.90 L 565.90 797.10 L 568.50 787.60 L 569.50 782.70 L 569.90 777.80 L 569.80 774.60 L 568.50 768.10 L 567.50 765.80 L 566.20 763.80 L 564.50 762.00 L 560.60 759.20 L 554.80 757.00 L 551.20 756.40 L 542.50 755.80 L 533.90 755.90 L 522.40 756.90 L 516.70 757.80 L 516.70 745.30 L 516.00 736.90 L 515.00 732.90 L 514.00 730.60 L 511.10 731.30 L 509.90 738.50 L 509.20 745.80 L 507.40 774.90 L 506.80 795.70 L 506.20 802.60 L 505.70 853.30 L 505.90 878.60 L 506.40 904.00 L 505.80 897.90 L 505.70 891.80 L 505.50 838.80 L 504.90 825.20 L 504.40 837.90 L 504.10 876.00 L 500.10 877.10 L 495.90 877.70 L 491.70 877.90 L 487.50 877.70 L 483.40 877.00 L 479.30 875.90 L 475.50 874.20 L 471.80 872.20 L 468.40 869.60 L 462.80 863.80 L 460.40 860.50 L 457.30 855.30 L 454.60 849.70 L 452.50 844.00 L 448.80 831.30 L 446.20 817.40 L 445.00 806.80 L 444.30 796.20 L 442.90 757.20 L 441.90 745.50 L 440.60 739.70 L 438.50 733.10 L 435.20 733.30 L 434.50 745.80 L 434.40 758.30 L 435.30 826.70 L 436.00 841.10 L 436.30 880.00 L 427.50 882.60 L 418.60 884.50 L 409.60 886.00 L 400.50 886.80 L 391.40 887.10 L 382.30 886.80 L 373.20 885.90 L 364.30 884.40 L 355.40 882.30 L 351.30 873.00 L 344.10 853.80 L 340.90 844.10 L 339.40 837.70 L 338.40 831.20 L 356.00 818.10 L 359.60 815.10 L 365.00 809.50 L 366.70 806.90 L 368.10 804.00 L 368.80 801.10 L 369.10 798.20 L 368.40 792.30 L 366.20 786.80 L 362.80 782.00 L 360.60 780.00 L 358.20 778.30 L 355.60 777.00 L 352.70 776.10 L 348.30 775.40 L 335.10 774.80 L 330.80 774.30 L 325.70 772.80 L 323.70 756.60 L 323.30 748.40 L 323.10 736.10 L 323.40 723.80 L 332.10 721.40 L 336.60 720.50 L 341.10 719.90 L 347.10 720.20 L 350.10 720.80 L 353.10 722.30 L 358.50 726.00 L 373.40 739.20 L 378.90 742.80 L 382.00 744.20 L 385.30 745.20 L 388.80 745.60 L 393.30 745.20 L 397.50 743.50 L 399.30 742.10 L 400.90 740.30 L 402.40 738.00 L 404.40 733.10 L 405.40 729.20 L 406.90 717.10 L 410.90 674.20 L 410.60 670.80 L 409.90 667.50 L 408.60 664.40 L 405.90 661.00 L 404.10 659.60 L 401.80 658.50 L 397.10 657.50 L 393.40 657.30 L 386.00 657.70 L 379.90 657.50 L 375.20 655.90 L 372.70 654.20 L 368.70 649.70 L 362.10 638.70 L 357.60 632.70 L 355.00 630.10 L 349.10 625.60 L 348.30 624.60 L 348.40 621.30 Z M 363.10 850.90 L 362.80 852.80 L 363.40 856.20 L 364.60 858.60 L 368.00 862.80 L 373.80 867.80 L 376.00 869.10 L 379.80 870.50 L 383.10 870.40 L 385.10 869.00 L 386.60 867.40 L 387.80 865.40 L 388.90 862.20 L 390.50 851.80 L 381.50 849.20 L 376.70 848.50 L 372.10 848.50 L 369.00 848.80 L 366.00 849.70 L 363.10 850.90 Z" fill="#fdfdfd" fill-rule="nonzero" group-id="6,69" node-id="481" stroke="none" target-height="282.7" target-width="407.9" target-x="323.1" target-y="621.3"></path><path d="M 764.00 778.30 L 766.90 773.70 L 771.60 764.00 L 776.90 748.70 L 780.00 751.00 L 778.10 758.60 L 774.00 770.90 L 771.80 775.60 L 766.70 784.20 L 760.70 791.70 L 750.60 801.90 L 745.10 801.20 L 739.90 799.10 L 744.60 796.50 L 749.10 793.60 L 753.40 790.30 L 757.30 786.70 L 760.80 782.70 L 764.00 778.30 Z" fill="#fdfdfd" fill-rule="nonzero" group-id="6,70" node-id="486" stroke="none" target-height="53.200012" target-width="40.099976" target-x="739.9" target-y="748.7"></path><path d="M 301.70 774.20 L 310.30 772.80 L 315.90 772.80 L 322.60 825.30 L 323.40 842.80 L 323.20 849.80 L 322.20 860.70 L 321.30 864.50 L 320.00 868.20 L 318.30 871.70 L 315.20 875.80 L 313.30 877.60 L 309.80 880.30 L 306.00 882.50 L 302.10 884.40 L 296.00 886.60 L 289.60 888.20 L 276.70 890.80 L 275.80 896.50 L 276.70 887.50 L 276.60 883.00 L 275.60 874.10 L 272.40 860.00 L 269.70 850.30 L 265.30 837.60 L 259.60 825.50 L 256.30 819.80 L 252.60 814.30 L 248.50 809.20 L 243.90 804.30 L 238.80 799.90 L 245.50 795.20 L 259.80 787.50 L 264.70 790.70 L 273.70 798.40 L 279.00 801.60 L 284.80 803.90 L 287.90 804.40 L 291.00 804.20 L 292.80 803.50 L 295.40 801.00 L 296.30 799.40 L 297.60 795.90 L 299.80 785.60 L 301.70 774.20 Z M 287.00 853.50 L 286.30 856.40 L 286.00 862.20 L 286.50 866.60 L 287.50 870.90 L 289.30 873.40 L 292.00 875.00 L 293.40 875.40 L 297.60 875.60 L 300.20 875.10 L 301.20 874.40 L 302.30 871.40 L 302.30 868.00 L 300.60 863.00 L 297.40 857.90 L 295.30 855.80 L 292.90 854.20 L 291.10 853.60 L 289.20 853.30 L 287.00 853.50 Z" fill="#fdfdfd" fill-rule="nonzero" group-id="6,71" node-id="491" stroke="none" target-height="123.70001" target-width="84.59999" target-x="238.8" target-y="772.8"></path></g></svg>