<?xml version="1.0" standalone="no"?><!DOCTYPE svg PUBLIC "-//W3C//DTD SVG 1.1//EN" "http://www.w3.org/Graphics/SVG/1.1/DTD/svg11.dtd"><svg height="1239" node-id="1" sillyvg="true" template-height="1239" template-width="1024" version="1.1" viewBox="0 0 1024 1239" width="1024" xmlns="http://www.w3.org/2000/svg" xmlns:xlink="http://www.w3.org/1999/xlink"><defs node-id="123"><clipPath id="master_svg0_2_0640" node-id="3"><path d="M 0.00 0.00 L 1024.00 0.00 L 1024.00 1238.70 L 0.00 1238.70 Z" fill="#000000" fill-rule="nonzero" node-id="126" stroke="none" target-height="1238.7" target-width="1024" target-x="0" target-y="0"></path></clipPath></defs><g clip-path="url(#master_svg0_2_0640)" id="sillyvg_g_0" node-id="130"><path d="M 0.00 0.00 L 1024.00 0.00 L 1024.00 1238.70 L 0.00 1238.70 L 0.00 0.00 Z M 382.50 72.20 L 378.00 76.90 L 374.00 82.00 L 370.30 87.40 L 367.00 92.90 L 361.30 104.60 L 357.70 114.80 L 356.40 120.10 L 355.40 128.90 L 355.80 136.10 L 356.80 139.50 L 358.30 142.50 L 360.20 145.30 L 362.60 147.80 L 365.20 150.10 L 375.20 157.00 L 382.10 162.30 L 388.80 167.80 L 395.20 173.60 L 401.30 179.70 L 407.10 186.20 L 415.80 197.40 L 419.80 203.30 L 423.30 209.40 L 426.40 215.80 L 428.80 222.50 L 429.80 226.20 L 430.10 229.80 L 429.90 233.50 L 427.70 248.30 L 427.50 252.00 L 427.40 266.80 L 428.00 276.60 L 431.00 292.60 L 433.80 303.60 L 443.00 336.30 L 449.90 365.80 L 453.50 384.50 L 456.60 403.20 L 459.00 422.00 L 460.70 437.90 L 461.90 453.80 L 462.40 469.70 L 462.60 485.70 L 462.10 517.60 L 460.80 535.20 L 458.30 558.00 L 456.10 569.20 L 443.60 568.20 L 431.10 567.70 L 418.50 567.80 L 399.80 569.10 L 381.20 571.90 L 372.00 573.90 L 362.90 576.20 L 353.90 579.00 L 345.10 582.20 L 332.90 587.80 L 327.00 591.10 L 321.40 594.80 L 316.10 599.00 L 311.20 603.50 L 307.80 607.20 L 304.80 611.20 L 302.20 615.40 L 297.80 624.80 L 296.30 629.60 L 295.30 634.60 L 294.50 642.20 L 294.20 649.90 L 294.80 665.30 L 295.90 671.60 L 297.50 677.90 L 299.40 684.00 L 301.80 690.00 L 308.40 703.60 L 308.70 704.70 L 306.50 713.50 L 306.10 718.60 L 307.20 724.40 L 310.00 733.70 L 309.50 747.00 L 309.70 750.30 L 311.30 760.40 L 306.10 765.60 L 303.90 768.60 L 302.00 771.70 L 299.30 778.50 L 298.50 782.00 L 298.10 785.70 L 298.10 793.40 L 298.60 797.30 L 299.50 801.20 L 300.90 805.00 L 302.70 808.50 L 305.00 811.70 L 307.70 814.70 L 310.80 817.20 L 316.90 820.50 L 319.80 821.40 L 331.50 823.50 L 328.80 826.70 L 325.80 829.60 L 312.80 840.30 L 290.20 860.50 L 279.80 871.40 L 275.10 877.20 L 270.80 883.40 L 266.80 889.90 L 264.30 894.90 L 262.30 900.00 L 260.70 905.30 L 259.60 910.70 L 259.00 916.10 L 258.80 921.70 L 259.10 927.20 L 260.00 932.60 L 261.30 938.00 L 263.40 944.60 L 266.10 951.00 L 269.30 957.00 L 273.10 962.80 L 277.30 968.30 L 282.00 973.40 L 287.00 978.30 L 292.30 982.70 L 297.90 986.70 L 306.90 991.40 L 323.60 998.50 L 330.90 1001.30 L 338.40 1003.60 L 346.10 1005.60 L 356.40 1007.70 L 366.80 1009.20 L 384.40 1010.80 L 391.50 1010.90 L 420.10 1009.40 L 421.80 1027.10 L 423.90 1044.70 L 426.60 1062.30 L 430.10 1082.90 L 430.20 1086.10 L 413.70 1084.10 L 405.20 1083.60 L 396.70 1083.60 L 388.40 1084.30 L 380.10 1085.50 L 374.00 1086.80 L 368.00 1088.60 L 362.10 1090.90 L 356.40 1093.60 L 351.90 1096.10 L 347.70 1099.10 L 343.80 1102.50 L 340.30 1106.20 L 337.10 1110.30 L 334.40 1114.70 L 332.20 1119.30 L 330.50 1124.10 L 328.90 1131.20 L 328.10 1133.00 L 324.00 1139.30 L 322.80 1142.40 L 322.10 1145.70 L 321.90 1149.00 L 322.10 1152.40 L 322.70 1155.70 L 323.80 1159.00 L 327.00 1164.90 L 329.50 1168.10 L 332.30 1170.80 L 335.40 1173.20 L 338.80 1175.20 L 346.10 1178.50 L 357.50 1181.70 L 368.60 1183.70 L 379.70 1185.00 L 390.90 1185.60 L 402.20 1185.80 L 413.40 1185.50 L 424.60 1184.80 L 433.60 1184.00 L 451.50 1181.30 L 460.30 1179.30 L 469.00 1176.90 L 477.60 1174.10 L 485.90 1170.30 L 489.70 1167.90 L 493.30 1165.10 L 497.10 1160.60 L 500.40 1154.20 L 501.50 1150.30 L 502.00 1144.90 L 501.10 1139.60 L 500.20 1137.10 L 497.50 1132.50 L 496.70 1130.10 L 495.30 1122.50 L 493.30 1117.40 L 490.10 1112.40 L 487.20 1109.00 L 482.20 1104.20 L 481.50 1103.10 L 481.10 1101.90 L 478.30 1081.00 L 477.40 1070.50 L 476.30 1049.30 L 476.10 1038.50 L 476.40 1027.70 L 477.20 1009.20 L 478.70 993.60 L 490.80 988.80 L 502.60 983.50 L 514.30 977.80 L 525.80 971.80 L 537.10 965.30 L 548.20 958.40 L 558.90 951.20 L 569.40 943.60 L 579.70 935.60 L 591.70 925.60 L 594.00 924.80 L 599.20 933.50 L 603.80 942.40 L 607.90 951.50 L 611.50 960.90 L 614.60 970.50 L 617.10 980.20 L 619.20 990.00 L 620.70 1000.00 L 621.80 1010.10 L 622.30 1020.10 L 622.40 1030.10 L 622.00 1040.10 L 619.70 1072.20 L 618.20 1088.20 L 616.00 1104.10 L 610.00 1110.40 L 607.30 1113.90 L 605.00 1117.50 L 603.80 1120.10 L 602.90 1122.90 L 601.60 1130.20 L 597.80 1138.30 L 597.20 1145.70 L 597.80 1153.10 L 599.00 1156.20 L 602.30 1161.80 L 606.80 1166.50 L 609.30 1168.60 L 613.50 1171.20 L 617.90 1173.30 L 630.00 1177.60 L 645.50 1181.30 L 655.00 1182.90 L 674.00 1184.90 L 697.30 1185.30 L 708.90 1185.10 L 720.60 1184.50 L 728.30 1183.60 L 735.90 1182.40 L 743.50 1180.70 L 754.10 1177.20 L 759.20 1174.80 L 764.00 1171.80 L 766.90 1169.60 L 769.50 1167.00 L 771.90 1164.00 L 773.50 1161.40 L 775.80 1155.80 L 776.40 1152.80 L 776.80 1148.80 L 776.60 1144.80 L 775.90 1140.80 L 775.00 1138.70 L 770.00 1131.50 L 768.20 1124.60 L 766.60 1119.90 L 764.40 1115.50 L 761.80 1111.30 L 758.80 1107.30 L 755.50 1103.70 L 751.80 1100.30 L 747.80 1097.30 L 743.60 1094.70 L 737.80 1091.80 L 731.90 1089.30 L 725.80 1087.30 L 719.50 1085.80 L 713.20 1084.60 L 700.30 1083.40 L 693.80 1083.40 L 685.20 1083.80 L 676.60 1084.60 L 668.20 1086.00 L 672.60 1059.70 L 674.30 1046.50 L 675.50 1033.20 L 675.80 1024.30 L 675.80 1015.50 L 675.30 1006.60 L 674.20 995.90 L 672.70 985.40 L 670.80 974.90 L 668.40 964.40 L 665.50 954.10 L 662.30 943.90 L 658.60 933.90 L 654.50 924.00 L 650.00 914.30 L 645.10 904.80 L 639.80 895.50 L 633.50 885.40 L 633.50 883.30 L 651.60 860.10 L 660.30 848.10 L 668.50 835.70 L 676.20 823.10 L 683.60 810.30 L 690.50 797.20 L 697.00 783.90 L 703.10 770.50 L 708.80 756.80 L 714.10 743.00 L 719.00 729.00 L 723.50 714.90 L 731.40 686.30 L 734.80 671.90 L 740.60 642.90 L 756.90 650.30 L 765.30 653.60 L 773.80 656.60 L 782.40 659.00 L 791.20 661.00 L 800.00 662.60 L 808.90 663.50 L 822.10 663.60 L 826.20 663.10 L 830.30 662.10 L 834.30 660.70 L 838.00 658.80 L 841.50 656.60 L 844.50 654.20 L 849.80 648.80 L 853.20 644.30 L 856.20 639.40 L 861.30 629.30 L 867.00 614.00 L 869.20 606.20 L 872.80 590.30 L 875.70 570.20 L 876.90 558.00 L 878.20 530.70 L 881.80 527.00 L 884.90 522.90 L 887.40 518.50 L 889.50 513.80 L 891.20 508.90 L 892.80 501.40 L 893.80 499.20 L 899.40 491.10 L 902.10 485.90 L 904.30 480.60 L 905.90 475.10 L 907.10 469.40 L 908.30 457.90 L 908.30 449.20 L 907.70 440.60 L 906.90 436.90 L 906.80 433.20 L 907.70 425.70 L 908.20 417.30 L 908.20 408.90 L 907.90 403.30 L 907.20 397.70 L 906.00 392.20 L 903.80 384.70 L 902.40 381.00 L 899.20 375.50 L 895.50 371.80 L 892.30 369.70 L 889.00 368.20 L 885.40 367.20 L 874.40 365.40 L 866.10 360.80 L 861.80 359.10 L 857.20 357.80 L 856.50 354.80 L 855.50 345.60 L 852.20 331.70 L 849.90 325.00 L 847.20 318.40 L 845.50 315.20 L 841.90 310.30 L 838.10 307.50 L 834.60 306.10 L 831.00 305.30 L 826.20 305.20 L 820.90 306.70 L 818.30 308.00 L 816.00 309.60 L 813.90 311.60 L 810.60 316.30 L 808.70 320.30 L 807.40 324.40 L 806.00 329.80 L 805.20 335.30 L 804.90 346.20 L 805.90 357.20 L 808.80 373.40 L 797.10 370.70 L 789.10 369.50 L 785.10 369.30 L 781.10 369.50 L 773.20 370.90 L 765.60 373.60 L 762.00 375.40 L 754.70 380.30 L 751.30 383.40 L 748.10 386.80 L 745.30 390.60 L 740.60 398.70 L 738.70 403.00 L 736.00 412.00 L 732.70 397.80 L 728.90 383.80 L 724.50 369.90 L 719.70 356.10 L 714.50 342.50 L 708.80 329.10 L 703.50 318.10 L 697.90 307.20 L 691.90 296.60 L 685.50 286.10 L 678.60 275.90 L 671.30 266.00 L 663.70 256.50 L 655.60 247.40 L 648.80 240.30 L 641.70 233.60 L 634.30 227.20 L 626.60 221.10 L 610.40 209.80 L 601.90 204.60 L 593.20 199.90 L 584.30 195.50 L 572.20 190.20 L 559.80 185.40 L 547.30 181.20 L 524.50 174.50 L 513.20 170.60 L 504.90 167.00 L 496.80 162.80 L 486.60 156.20 L 481.80 152.40 L 476.60 147.70 L 471.60 142.60 L 462.70 131.70 L 454.90 119.90 L 449.80 110.70 L 442.10 94.80 L 438.60 88.70 L 434.60 82.90 L 427.60 75.00 L 419.60 68.10 L 415.90 65.80 L 412.00 63.80 L 409.20 62.90 L 406.40 62.30 L 400.70 62.30 L 398.10 62.70 L 395.60 63.50 L 392.00 65.10 L 388.60 67.20 L 382.50 72.20 Z" fill="#fefefe" fill-rule="nonzero" group-id="1,9" node-id="136" stroke="none" target-height="1238.7" target-width="1024" target-x="0" target-y="0"></path><path d="M 815.30 332.60 L 817.40 324.30 L 820.00 319.30 L 821.80 317.00 L 824.50 318.60 L 826.90 320.50 L 829.00 322.70 L 832.30 327.90 L 835.50 337.40 L 837.90 348.60 L 838.30 357.70 L 825.70 363.40 L 818.20 368.40 L 816.30 359.50 L 815.10 350.60 L 814.70 344.60 L 814.70 338.60 L 815.30 332.60 Z" fill="#fefefe" fill-rule="nonzero" group-id="1,10" node-id="141" stroke="none" target-height="51.399994" target-width="23.599976" target-x="814.7" target-y="317"></path><path d="M 829.10 371.10 L 832.30 369.50 L 835.70 368.40 L 842.80 367.10 L 850.00 367.30 L 853.60 367.90 L 860.50 370.00 L 853.10 374.40 L 848.90 378.20 L 847.20 380.60 L 845.20 384.40 L 843.50 388.40 L 842.40 392.50 L 841.00 401.00 L 840.70 411.80 L 840.90 418.20 L 837.90 418.90 L 835.10 418.90 L 832.30 418.30 L 829.70 417.30 L 827.30 415.90 L 825.00 414.00 L 823.10 411.90 L 820.10 406.90 L 819.10 404.10 L 818.50 401.30 L 818.20 395.00 L 818.70 388.10 L 819.40 384.70 L 820.50 381.50 L 822.00 378.50 L 823.90 375.70 L 826.20 373.20 L 829.10 371.10 Z" fill="#fefefe" fill-rule="nonzero" group-id="1,11" node-id="146" stroke="none" target-height="51.799988" target-width="42.299988" target-x="818.2" target-y="367.1"></path><path d="M 861.10 377.20 L 865.20 376.10 L 869.40 375.50 L 873.70 375.50 L 878.10 376.00 L 882.20 377.00 L 886.20 378.40 L 888.40 390.20 L 889.20 396.10 L 890.20 412.60 L 890.20 430.20 L 888.90 444.20 L 887.70 451.10 L 884.30 464.70 L 882.30 470.10 L 879.90 475.30 L 877.00 480.40 L 873.80 485.10 L 870.00 489.50 L 863.20 495.80 L 860.80 498.50 L 860.00 500.00 L 859.60 501.70 L 857.20 516.20 L 856.10 519.70 L 854.40 523.00 L 852.90 524.70 L 850.30 525.40 L 845.00 525.40 L 840.70 524.20 L 836.40 522.40 L 833.60 520.90 L 829.00 517.10 L 827.10 514.80 L 825.70 512.20 L 824.70 509.20 L 834.20 509.30 L 839.00 509.00 L 843.60 508.10 L 843.70 505.00 L 833.70 503.80 L 823.80 501.40 L 819.10 499.60 L 814.50 497.40 L 809.90 494.70 L 805.60 491.60 L 781.50 472.40 L 767.20 460.10 L 760.50 453.40 L 754.60 446.70 L 752.10 443.00 L 749.80 439.10 L 748.00 435.00 L 746.70 430.80 L 746.00 421.10 L 746.10 416.30 L 747.40 408.40 L 749.70 402.40 L 751.90 398.50 L 754.50 394.90 L 757.40 391.50 L 760.70 388.50 L 764.20 385.80 L 768.00 383.50 L 772.10 381.60 L 776.30 380.30 L 780.70 379.40 L 786.00 379.20 L 791.20 379.60 L 796.40 380.50 L 801.50 381.90 L 811.30 385.60 L 811.20 399.80 L 811.50 403.40 L 812.40 406.80 L 813.80 410.60 L 815.80 414.10 L 818.30 417.30 L 821.30 420.00 L 825.80 422.80 L 828.30 423.80 L 830.70 424.20 L 833.10 424.10 L 835.40 423.70 L 838.70 422.50 L 841.90 420.80 L 844.80 425.90 L 846.60 428.30 L 848.60 430.50 L 850.90 432.20 L 856.10 434.40 L 858.70 434.80 L 861.30 434.60 L 863.90 434.10 L 866.30 433.10 L 868.60 431.80 L 870.60 430.00 L 872.20 428.00 L 874.70 422.50 L 875.70 415.90 L 875.80 402.60 L 875.00 396.30 L 874.10 393.20 L 871.80 392.80 L 871.10 395.00 L 870.70 397.40 L 870.40 405.90 L 869.20 417.20 L 867.80 421.50 L 866.70 423.60 L 864.20 426.30 L 861.40 427.50 L 859.20 427.60 L 857.20 427.10 L 855.30 426.10 L 853.70 424.80 L 851.00 421.40 L 849.80 419.00 L 848.40 414.10 L 848.00 410.20 L 848.50 398.40 L 849.40 394.30 L 851.60 387.30 L 854.40 382.40 L 856.20 380.30 L 858.40 378.60 L 861.10 377.20 Z M 786.20 395.30 L 784.10 396.00 L 780.40 398.20 L 778.00 400.50 L 775.90 403.10 L 772.20 408.50 L 768.50 415.50 L 767.00 419.20 L 765.50 425.40 L 765.60 430.70 L 766.50 432.90 L 767.70 434.70 L 769.20 436.40 L 771.90 438.40 L 775.00 440.10 L 792.10 446.60 L 797.70 447.70 L 801.30 444.50 L 804.50 440.80 L 810.10 432.80 L 811.00 431.20 L 811.70 428.00 L 811.10 422.90 L 809.60 417.90 L 806.20 409.20 L 804.30 404.90 L 801.90 400.90 L 800.60 399.30 L 797.60 397.00 L 794.90 395.90 L 792.00 395.20 L 789.10 395.10 L 786.20 395.30 Z M 811.10 437.10 L 821.60 444.60 L 829.40 451.40 L 833.60 455.90 L 841.30 465.30 L 840.80 461.60 L 839.70 458.00 L 838.20 454.50 L 836.30 451.20 L 834.10 448.10 L 831.50 445.20 L 828.60 442.70 L 825.50 440.60 L 822.20 439.00 L 818.60 437.80 L 815.00 437.20 L 811.10 437.10 Z" fill="#fefefe" fill-rule="nonzero" group-id="1,12" node-id="151" stroke="none" target-height="149.90002" target-width="144.20001" target-x="746" target-y="375.5"></path><path d="M 791.00 415.10 L 792.10 415.10 L 793.60 416.20 L 796.00 420.70 L 796.40 422.40 L 796.30 424.30 L 795.00 427.70 L 793.80 429.20 L 791.10 428.60 L 788.70 427.40 L 784.10 424.50 L 785.30 421.80 L 787.00 419.40 L 791.00 415.10 Z" fill="#fefefe" fill-rule="nonzero" group-id="1,13" node-id="156" stroke="none" target-height="14.100006" target-width="12.300049" target-x="784.1" target-y="415.1"></path><path d="M 530.60 416.90 L 534.90 416.20 L 539.10 416.10 L 543.40 416.60 L 547.60 417.70 L 551.40 419.40 L 555.10 421.70 L 559.10 424.90 L 562.50 428.50 L 565.60 432.50 L 568.20 436.70 L 570.50 441.20 L 574.10 450.70 L 576.50 460.50 L 576.90 467.90 L 576.90 475.40 L 576.40 482.90 L 573.90 493.00 L 570.10 502.90 L 567.70 507.50 L 564.90 511.80 L 559.80 517.70 L 553.60 522.60 L 550.50 524.40 L 547.30 525.70 L 543.80 526.60 L 540.30 527.10 L 536.90 527.10 L 533.30 526.70 L 529.90 525.80 L 526.60 524.60 L 523.50 522.90 L 519.90 520.50 L 516.70 517.80 L 513.70 514.80 L 511.00 511.50 L 506.50 504.30 L 503.90 498.50 L 501.80 492.50 L 500.20 486.90 L 499.20 481.20 L 498.60 475.40 L 498.50 469.60 L 498.90 463.80 L 499.70 458.10 L 500.90 452.40 L 502.60 446.90 L 506.50 437.80 L 511.00 431.00 L 516.50 424.90 L 519.70 422.40 L 523.10 420.10 L 526.80 418.30 L 530.60 416.90 Z M 532.10 436.70 L 529.60 437.60 L 525.20 440.30 L 522.40 442.90 L 519.90 445.90 L 517.90 449.30 L 516.50 452.90 L 526.60 460.50 L 526.70 465.20 L 523.50 468.10 L 518.00 467.10 L 512.40 466.80 L 512.20 475.20 L 512.60 479.40 L 513.50 483.60 L 516.20 491.50 L 518.20 495.30 L 520.50 498.80 L 523.20 502.00 L 525.70 504.20 L 528.40 506.10 L 531.40 507.70 L 536.70 509.00 L 541.10 508.90 L 546.20 507.40 L 548.50 506.10 L 551.70 503.80 L 554.50 500.90 L 556.90 497.60 L 558.80 494.10 L 560.60 489.60 L 561.90 484.90 L 562.70 480.20 L 563.10 475.30 L 562.90 465.60 L 559.40 465.80 L 552.70 467.40 L 548.90 467.10 L 546.70 466.20 L 545.80 465.20 L 545.50 463.80 L 545.80 462.60 L 546.50 461.50 L 549.30 458.50 L 554.00 455.90 L 556.20 454.40 L 558.20 452.60 L 557.90 450.50 L 557.10 448.70 L 554.80 445.30 L 552.00 442.20 L 550.20 440.50 L 546.20 438.00 L 542.80 436.70 L 539.30 436.00 L 534.50 436.10 L 532.10 436.70 Z" fill="#fefefe" fill-rule="nonzero" group-id="1,14" node-id="161" stroke="none" target-height="110.99997" target-width="78.400024" target-x="498.5" target-y="416.1"></path><path d="M 633.60 416.70 L 639.90 416.20 L 646.20 417.10 L 652.20 419.30 L 657.70 422.60 L 660.20 424.60 L 663.50 427.90 L 666.40 431.50 L 668.90 435.20 L 671.20 439.20 L 674.70 447.70 L 676.80 456.70 L 677.40 464.60 L 677.50 472.60 L 676.70 483.10 L 674.60 493.40 L 672.80 498.40 L 670.70 503.30 L 666.60 510.30 L 664.10 513.60 L 658.50 519.60 L 655.30 522.10 L 651.80 524.20 L 648.10 525.80 L 644.10 527.00 L 641.00 527.50 L 637.80 527.70 L 634.70 527.30 L 628.70 525.60 L 625.80 524.30 L 621.80 521.80 L 618.10 518.80 L 614.50 515.20 L 611.30 511.30 L 608.60 507.00 L 606.30 502.50 L 604.30 497.80 L 601.50 487.90 L 600.10 477.90 L 599.80 472.20 L 600.00 466.60 L 600.50 461.00 L 601.50 455.50 L 602.90 450.00 L 604.80 444.70 L 607.10 439.60 L 609.80 434.60 L 612.70 430.40 L 616.00 426.60 L 618.50 424.30 L 624.10 420.40 L 627.10 418.80 L 633.60 416.70 Z M 632.60 436.80 L 629.30 438.50 L 626.20 440.70 L 623.50 443.40 L 621.10 446.40 L 619.10 449.60 L 617.40 453.00 L 622.00 455.80 L 626.90 458.00 L 628.50 461.10 L 628.90 462.80 L 628.90 464.40 L 627.90 466.30 L 626.90 467.10 L 613.50 465.60 L 613.50 476.60 L 614.10 482.10 L 615.30 487.50 L 617.80 494.30 L 621.10 499.90 L 624.90 503.90 L 629.60 507.00 L 634.90 508.90 L 640.50 509.20 L 643.00 508.80 L 647.60 507.10 L 650.70 505.10 L 653.50 502.60 L 656.00 499.70 L 658.00 496.60 L 660.40 491.80 L 662.20 486.80 L 663.60 481.50 L 664.20 477.50 L 664.40 469.60 L 663.90 465.50 L 653.30 466.80 L 648.00 466.20 L 647.50 464.90 L 647.70 463.70 L 650.60 458.90 L 653.90 457.10 L 660.10 452.90 L 658.90 450.10 L 655.60 444.80 L 653.60 442.40 L 648.80 438.50 L 646.30 437.20 L 643.70 436.30 L 640.90 435.90 L 638.10 435.80 L 632.60 436.80 Z" fill="#fefefe" fill-rule="nonzero" group-id="1,15" node-id="166" stroke="none" target-height="111.5" target-width="77.70001" target-x="599.8" target-y="416.2"></path><path d="M 743.80 449.60 L 746.00 451.50 L 752.70 459.30 L 757.80 464.50 L 768.70 474.30 L 796.00 496.40 L 801.40 500.50 L 807.10 504.30 L 813.10 507.60 L 816.30 515.70 L 820.40 522.40 L 825.70 528.10 L 832.00 532.60 L 832.10 540.90 L 831.10 557.40 L 830.00 565.60 L 826.70 581.80 L 824.50 589.80 L 820.80 600.80 L 817.50 606.90 L 815.30 609.40 L 813.60 610.70 L 811.60 611.70 L 809.30 612.30 L 804.90 611.90 L 796.20 610.20 L 789.90 608.10 L 783.60 605.60 L 747.70 589.80 L 748.00 581.00 L 748.80 572.20 L 749.30 538.20 L 749.10 521.30 L 748.50 504.30 L 747.40 487.40 L 743.80 454.80 L 743.80 449.60 Z" fill="#fefefe" fill-rule="nonzero" group-id="1,16" node-id="171" stroke="none" target-height="162.69998" target-width="88.29999" target-x="743.8" target-y="449.6"></path><path d="M 517.90 557.40 L 529.20 563.40 L 535.10 565.90 L 547.20 570.00 L 562.80 573.60 L 572.30 575.10 L 588.00 576.20 L 591.90 576.20 L 604.20 575.20 L 612.50 574.20 L 620.90 572.80 L 629.10 570.90 L 637.20 568.60 L 645.10 565.80 L 660.00 559.60 L 659.40 568.30 L 657.80 573.90 L 656.40 576.30 L 655.20 577.60 L 651.90 579.70 L 644.50 582.50 L 636.90 584.90 L 621.40 588.70 L 605.70 591.20 L 587.10 591.80 L 568.40 591.10 L 552.10 588.10 L 544.00 586.00 L 536.10 583.40 L 526.10 578.90 L 521.30 576.10 L 519.70 571.60 L 518.70 566.90 L 517.90 557.40 Z" fill="#fefefe" fill-rule="nonzero" group-id="1,17" node-id="176" stroke="none" target-height="34.399963" target-width="142.09998" target-x="517.9" target-y="557.4"></path><path d="M 359.00 631.00 L 365.40 628.30 L 378.60 624.10 L 388.70 621.80 L 398.90 620.10 L 409.20 618.80 L 428.50 617.60 L 437.50 617.60 L 446.40 618.90 L 438.80 643.50 L 434.70 655.70 L 425.40 679.70 L 420.20 691.50 L 414.70 703.10 L 408.70 714.50 L 402.40 725.70 L 399.50 721.50 L 396.30 717.60 L 392.60 714.00 L 386.40 709.50 L 379.50 706.30 L 376.60 698.50 L 375.40 696.00 L 372.10 691.60 L 370.00 689.70 L 365.40 686.80 L 361.60 685.20 L 357.60 684.10 L 349.40 683.20 L 347.00 676.40 L 343.40 662.50 L 342.10 655.40 L 341.90 651.70 L 342.10 648.10 L 343.50 643.40 L 344.70 641.20 L 346.60 638.90 L 351.10 635.10 L 359.00 631.00 Z" fill="#fefefe" fill-rule="nonzero" group-id="1,18" node-id="181" stroke="none" target-height="108.10004" target-width="104.5" target-x="341.9" target-y="617.6"></path><path d="M 338.70 694.90 L 345.10 694.50 L 349.10 695.40 L 350.90 696.60 L 353.40 698.90 L 355.50 701.50 L 362.10 713.20 L 368.30 721.40 L 373.60 730.30 L 375.60 735.00 L 377.00 739.90 L 378.30 749.70 L 378.10 759.60 L 376.50 769.40 L 373.30 778.80 L 371.20 783.30 L 368.10 788.80 L 364.50 794.20 L 358.90 800.60 L 352.40 806.20 L 345.10 810.50 L 338.90 812.50 L 330.90 813.30 L 326.10 813.30 L 323.10 812.50 L 320.30 811.30 L 317.60 809.80 L 315.10 807.90 L 312.90 805.70 L 311.10 803.20 L 309.60 800.50 L 308.70 797.60 L 308.20 794.40 L 308.10 785.60 L 309.10 779.80 L 311.80 774.50 L 313.70 772.00 L 316.90 769.40 L 318.70 768.50 L 325.90 775.10 L 329.10 778.70 L 334.90 786.50 L 339.20 793.60 L 340.30 794.80 L 341.90 795.50 L 342.10 792.30 L 341.90 789.20 L 341.30 786.20 L 339.10 780.50 L 334.70 774.00 L 331.60 770.60 L 325.70 765.20 L 322.50 761.10 L 321.40 758.60 L 320.40 754.60 L 319.30 746.40 L 319.40 742.20 L 320.00 738.20 L 321.20 734.30 L 322.50 731.80 L 324.10 729.70 L 326.00 727.90 L 329.20 725.60 L 339.90 719.80 L 339.60 719.00 L 338.50 718.20 L 336.20 718.30 L 330.00 720.20 L 318.20 724.90 L 316.80 720.90 L 315.90 716.90 L 316.00 714.90 L 318.10 709.80 L 319.80 707.00 L 321.90 704.60 L 326.90 700.50 L 329.70 698.80 L 334.20 696.60 L 338.70 694.90 Z" fill="#fefefe" fill-rule="nonzero" group-id="1,19" node-id="186" stroke="none" target-height="118.79999" target-width="70.19998" target-x="308.1" target-y="694.5"></path><path d="M 606.00 1146.10 L 610.00 1149.00 L 618.60 1153.80 L 625.40 1156.80 L 632.40 1159.20 L 639.50 1161.30 L 646.70 1163.10 L 656.00 1164.90 L 665.40 1166.20 L 674.90 1167.10 L 684.40 1167.60 L 683.60 1174.80 L 677.30 1174.80 L 670.90 1174.40 L 645.70 1171.80 L 634.90 1169.10 L 624.30 1165.60 L 619.20 1163.20 L 614.40 1160.40 L 612.20 1158.50 L 610.30 1156.50 L 608.80 1154.10 L 606.60 1148.90 L 606.00 1146.10 Z" fill="#fefefe" fill-rule="nonzero" group-id="1,20" node-id="191" stroke="none" target-height="28.700073" target-width="78.400024" target-x="606" target-y="1146.1"></path><path d="M 331.70 1148.80 L 342.50 1156.10 L 346.40 1158.00 L 353.50 1160.70 L 360.80 1162.90 L 368.10 1164.60 L 383.00 1166.80 L 401.90 1167.80 L 413.20 1167.70 L 412.60 1175.00 L 404.20 1175.70 L 395.80 1175.70 L 387.50 1175.30 L 362.40 1172.90 L 356.30 1171.70 L 350.20 1169.90 L 346.30 1168.30 L 342.60 1166.40 L 339.10 1164.00 L 336.80 1162.10 L 335.00 1159.90 L 333.40 1157.30 L 332.30 1154.60 L 331.70 1151.80 L 331.70 1148.80 Z" fill="#fefefe" fill-rule="nonzero" group-id="1,21" node-id="196" stroke="none" target-height="26.899902" target-width="81.5" target-x="331.7" target-y="1148.8"></path><path d="M 382.50 72.20 L 388.60 67.20 L 392.00 65.10 L 395.60 63.50 L 398.10 62.70 L 400.70 62.30 L 406.40 62.30 L 409.20 62.90 L 412.00 63.80 L 415.90 65.80 L 419.60 68.10 L 427.60 75.00 L 434.60 82.90 L 438.60 88.70 L 442.10 94.80 L 449.80 110.70 L 454.90 119.90 L 462.70 131.70 L 471.60 142.60 L 476.60 147.70 L 481.80 152.40 L 486.60 156.20 L 496.80 162.80 L 504.90 167.00 L 513.20 170.60 L 524.50 174.50 L 547.30 181.20 L 559.80 185.40 L 572.20 190.20 L 584.30 195.50 L 593.20 199.90 L 601.90 204.60 L 610.40 209.80 L 626.60 221.10 L 634.30 227.20 L 641.70 233.60 L 648.80 240.30 L 655.60 247.40 L 663.70 256.50 L 671.30 266.00 L 678.60 275.90 L 685.50 286.10 L 691.90 296.60 L 697.90 307.20 L 703.50 318.10 L 708.80 329.10 L 714.50 342.50 L 719.70 356.10 L 724.50 369.90 L 728.90 383.80 L 732.70 397.80 L 736.00 412.00 L 738.70 403.00 L 740.60 398.70 L 745.30 390.60 L 748.10 386.80 L 751.30 383.40 L 754.70 380.30 L 762.00 375.40 L 765.60 373.60 L 773.20 370.90 L 781.10 369.50 L 785.10 369.30 L 789.10 369.50 L 797.10 370.70 L 808.80 373.40 L 805.90 357.20 L 804.90 346.20 L 805.20 335.30 L 806.00 329.80 L 807.40 324.40 L 808.70 320.30 L 810.60 316.30 L 813.90 311.60 L 816.00 309.60 L 818.30 308.00 L 820.90 306.70 L 826.20 305.20 L 831.00 305.30 L 834.60 306.10 L 838.10 307.50 L 841.90 310.30 L 845.50 315.20 L 847.20 318.40 L 849.90 325.00 L 852.20 331.70 L 855.50 345.60 L 856.50 354.80 L 857.20 357.80 L 861.80 359.10 L 866.10 360.80 L 874.40 365.40 L 885.40 367.20 L 889.00 368.20 L 892.30 369.70 L 895.50 371.80 L 899.20 375.50 L 902.40 381.00 L 903.80 384.70 L 906.00 392.20 L 907.20 397.70 L 907.90 403.30 L 908.20 408.90 L 908.20 417.30 L 907.70 425.70 L 906.80 433.20 L 906.90 436.90 L 907.70 440.60 L 908.30 449.20 L 908.30 457.90 L 907.90 463.70 L 907.10 469.40 L 905.90 475.10 L 904.30 480.60 L 902.10 485.90 L 899.40 491.10 L 893.80 499.20 L 892.80 501.40 L 891.20 508.90 L 889.50 513.80 L 887.40 518.50 L 884.90 522.90 L 881.80 527.00 L 878.20 530.70 L 876.90 558.00 L 875.70 570.20 L 872.80 590.30 L 869.20 606.20 L 867.00 614.00 L 861.30 629.30 L 856.20 639.40 L 853.20 644.30 L 849.80 648.80 L 844.50 654.20 L 841.50 656.60 L 838.00 658.80 L 834.30 660.70 L 830.30 662.10 L 826.20 663.10 L 822.10 663.60 L 808.90 663.50 L 800.00 662.60 L 791.20 661.00 L 782.40 659.00 L 773.80 656.60 L 765.30 653.60 L 756.90 650.30 L 740.60 642.90 L 734.80 671.90 L 731.40 686.30 L 723.50 714.90 L 719.00 729.00 L 714.10 743.00 L 708.80 756.80 L 703.10 770.50 L 697.00 783.90 L 690.50 797.20 L 683.60 810.30 L 676.20 823.10 L 668.50 835.70 L 660.30 848.10 L 651.60 860.10 L 633.50 883.30 L 633.30 884.40 L 633.50 885.40 L 639.80 895.50 L 645.10 904.80 L 650.00 914.30 L 654.50 924.00 L 658.60 933.90 L 662.30 943.90 L 665.50 954.10 L 668.40 964.40 L 670.80 974.90 L 672.70 985.40 L 674.20 995.90 L 675.30 1006.60 L 675.80 1015.50 L 675.80 1024.30 L 675.50 1033.20 L 674.30 1046.50 L 672.60 1059.70 L 668.20 1086.00 L 676.60 1084.60 L 685.20 1083.80 L 693.80 1083.40 L 700.30 1083.40 L 713.20 1084.60 L 719.50 1085.80 L 725.80 1087.30 L 731.90 1089.30 L 737.80 1091.80 L 743.60 1094.70 L 747.80 1097.30 L 751.80 1100.30 L 755.50 1103.70 L 758.80 1107.30 L 761.80 1111.30 L 764.40 1115.50 L 766.60 1119.90 L 768.20 1124.60 L 770.00 1131.50 L 775.00 1138.70 L 775.90 1140.80 L 776.60 1144.80 L 776.80 1148.80 L 776.40 1152.80 L 775.80 1155.80 L 773.50 1161.40 L 769.50 1166.90 L 766.90 1169.60 L 764.00 1171.80 L 759.20 1174.80 L 754.10 1177.20 L 743.50 1180.70 L 735.90 1182.40 L 728.30 1183.60 L 720.60 1184.50 L 708.90 1185.10 L 697.30 1185.30 L 674.00 1184.90 L 655.00 1182.90 L 645.50 1181.30 L 630.00 1177.60 L 617.90 1173.30 L 613.50 1171.20 L 609.30 1168.60 L 606.80 1166.50 L 602.30 1161.80 L 599.00 1156.20 L 597.80 1153.10 L 597.20 1145.70 L 597.80 1138.30 L 601.60 1130.20 L 602.90 1122.90 L 605.00 1117.50 L 607.30 1113.90 L 610.00 1110.40 L 616.00 1104.10 L 618.20 1088.20 L 619.70 1072.20 L 622.00 1040.10 L 622.40 1030.10 L 622.30 1020.10 L 621.80 1010.10 L 620.70 1000.00 L 619.20 990.00 L 617.10 980.20 L 614.60 970.50 L 611.50 960.90 L 607.90 951.50 L 603.80 942.40 L 599.20 933.50 L 594.00 924.80 L 591.70 925.60 L 579.70 935.60 L 569.40 943.60 L 558.90 951.20 L 548.20 958.40 L 537.10 965.30 L 525.80 971.80 L 514.30 977.80 L 502.60 983.50 L 490.80 988.80 L 478.70 993.60 L 477.20 1009.20 L 476.40 1027.70 L 476.10 1038.50 L 476.30 1049.30 L 477.40 1070.50 L 478.30 1081.00 L 481.10 1101.90 L 481.50 1103.10 L 482.20 1104.20 L 487.20 1109.00 L 490.10 1112.40 L 493.30 1117.40 L 495.30 1122.50 L 496.70 1130.10 L 497.50 1132.50 L 500.20 1137.10 L 501.10 1139.60 L 502.00 1144.90 L 501.50 1150.30 L 500.40 1154.20 L 497.10 1160.60 L 493.30 1165.10 L 489.70 1167.90 L 485.90 1170.30 L 477.60 1174.10 L 469.00 1176.90 L 460.30 1179.30 L 451.50 1181.30 L 442.60 1182.80 L 424.60 1184.80 L 413.40 1185.50 L 402.20 1185.80 L 390.90 1185.60 L 379.70 1185.00 L 368.60 1183.70 L 357.50 1181.70 L 346.10 1178.50 L 338.80 1175.20 L 335.40 1173.20 L 332.30 1170.80 L 329.50 1168.10 L 327.00 1164.90 L 323.80 1159.00 L 322.70 1155.70 L 322.10 1152.40 L 321.90 1149.00 L 322.10 1145.70 L 322.80 1142.40 L 324.00 1139.30 L 328.10 1133.00 L 328.90 1131.20 L 330.50 1124.10 L 332.20 1119.30 L 334.40 1114.70 L 337.10 1110.30 L 340.30 1106.20 L 343.80 1102.50 L 347.70 1099.10 L 351.90 1096.10 L 356.40 1093.60 L 362.10 1090.90 L 368.00 1088.60 L 374.00 1086.80 L 380.10 1085.50 L 388.40 1084.30 L 396.70 1083.60 L 405.20 1083.60 L 413.70 1084.10 L 430.20 1086.10 L 430.10 1082.90 L 426.60 1062.30 L 423.90 1044.70 L 421.80 1027.10 L 420.10 1009.40 L 391.50 1010.90 L 384.40 1010.80 L 366.80 1009.20 L 356.40 1007.70 L 346.10 1005.60 L 330.90 1001.30 L 323.60 998.50 L 306.90 991.40 L 297.90 986.70 L 292.30 982.70 L 287.00 978.30 L 282.00 973.40 L 277.30 968.30 L 273.10 962.80 L 269.30 957.00 L 266.10 951.00 L 263.40 944.60 L 261.30 938.00 L 260.00 932.60 L 259.10 927.20 L 258.80 921.70 L 259.00 916.10 L 259.60 910.70 L 260.70 905.30 L 262.30 900.00 L 264.30 894.90 L 266.80 889.90 L 270.80 883.40 L 275.10 877.20 L 279.80 871.40 L 290.20 860.50 L 312.80 840.30 L 325.80 829.60 L 331.50 823.50 L 319.80 821.40 L 316.90 820.50 L 310.80 817.20 L 307.70 814.70 L 305.00 811.70 L 302.70 808.50 L 300.90 805.00 L 299.50 801.20 L 298.60 797.30 L 298.10 793.40 L 298.10 785.70 L 298.50 782.00 L 299.30 778.50 L 302.00 771.70 L 303.90 768.60 L 306.10 765.60 L 311.30 760.40 L 309.70 750.30 L 309.50 747.00 L 310.00 733.70 L 307.20 724.40 L 306.10 718.60 L 306.50 713.50 L 308.70 704.70 L 308.40 703.60 L 301.80 690.00 L 299.40 684.00 L 297.50 677.90 L 295.90 671.60 L 294.80 665.30 L 294.20 649.90 L 294.50 642.20 L 295.30 634.60 L 296.30 629.60 L 297.80 624.80 L 302.20 615.40 L 304.80 611.20 L 307.80 607.20 L 311.20 603.50 L 316.10 599.00 L 321.40 594.80 L 327.00 591.10 L 332.90 587.80 L 345.10 582.20 L 353.90 579.00 L 362.90 576.20 L 372.00 573.90 L 381.20 571.90 L 399.80 569.10 L 418.50 567.80 L 431.10 567.70 L 443.60 568.20 L 456.10 569.20 L 458.30 558.00 L 460.80 535.20 L 462.10 517.60 L 462.50 501.60 L 462.40 469.70 L 461.90 453.80 L 460.70 437.90 L 459.00 422.00 L 456.60 403.20 L 453.50 384.50 L 449.90 365.80 L 443.00 336.30 L 433.80 303.60 L 431.00 292.60 L 428.00 276.60 L 427.40 266.80 L 427.50 252.00 L 427.70 248.30 L 429.90 233.50 L 430.10 229.80 L 429.80 226.20 L 428.80 222.50 L 426.40 215.80 L 423.30 209.40 L 419.80 203.30 L 415.80 197.40 L 407.10 186.20 L 401.30 179.70 L 395.20 173.60 L 388.80 167.80 L 382.10 162.30 L 375.20 157.00 L 365.20 150.10 L 362.60 147.80 L 360.20 145.30 L 358.30 142.50 L 356.80 139.50 L 355.80 136.10 L 355.40 128.90 L 356.40 120.10 L 357.70 114.80 L 361.30 104.60 L 367.00 92.90 L 370.30 87.40 L 374.00 82.00 L 378.00 76.90 L 382.50 72.20 Z M 392.40 75.90 L 388.90 79.10 L 382.60 86.10 L 378.50 91.90 L 374.90 98.10 L 369.60 109.50 L 367.60 115.40 L 366.00 121.50 L 365.10 129.80 L 365.20 134.00 L 366.00 136.90 L 366.80 138.10 L 368.40 139.60 L 370.40 140.60 L 372.60 141.20 L 374.90 141.20 L 377.70 140.30 L 382.80 135.50 L 386.20 131.40 L 389.30 126.90 L 393.30 119.80 L 396.70 112.50 L 399.20 106.00 L 402.40 94.80 L 403.80 85.70 L 404.10 81.10 L 403.90 76.50 L 403.30 71.90 L 401.30 71.80 L 397.50 72.70 L 392.40 75.90 Z M 411.30 74.40 L 411.50 80.80 L 411.20 87.10 L 410.50 93.30 L 409.20 99.50 L 407.50 105.60 L 405.40 111.50 L 402.90 117.30 L 400.10 122.90 L 415.00 118.30 L 417.90 117.20 L 420.40 115.80 L 422.70 114.00 L 425.80 111.00 L 434.20 100.60 L 431.30 95.50 L 428.00 90.60 L 424.40 86.00 L 420.50 81.60 L 416.10 77.80 L 411.30 74.40 Z M 426.20 123.30 L 423.20 125.00 L 420.00 126.30 L 406.90 129.90 L 400.50 132.80 L 394.40 136.30 L 392.30 137.80 L 383.60 147.20 L 377.50 146.80 L 385.90 152.90 L 394.00 159.40 L 401.80 166.30 L 407.40 171.70 L 417.70 183.30 L 422.40 189.50 L 426.80 195.90 L 430.70 202.60 L 434.30 209.50 L 437.40 216.70 L 439.50 223.40 L 440.10 232.30 L 440.00 237.60 L 439.10 238.10 L 438.10 242.40 L 437.20 251.10 L 437.10 264.40 L 437.80 275.70 L 440.30 289.70 L 442.30 298.00 L 451.90 333.00 L 456.50 351.60 L 460.60 370.40 L 464.10 389.30 L 467.00 408.40 L 469.40 427.40 L 471.10 446.60 L 472.20 465.80 L 472.40 495.90 L 472.00 510.90 L 469.60 542.70 L 467.60 559.40 L 465.10 576.00 L 462.10 592.60 L 458.60 609.10 L 454.40 625.40 L 449.60 641.50 L 439.30 671.00 L 433.90 684.30 L 428.00 697.50 L 421.70 710.40 L 407.00 738.80 L 406.70 740.30 L 407.70 746.70 L 408.00 751.50 L 407.60 761.00 L 405.70 770.30 L 404.10 774.80 L 402.20 779.20 L 399.80 783.40 L 395.80 789.00 L 391.50 794.20 L 386.60 799.10 L 381.40 803.60 L 375.90 807.70 L 370.00 811.30 L 363.90 814.40 L 357.60 817.10 L 349.10 820.00 L 347.40 821.00 L 343.70 824.50 L 337.50 831.60 L 302.10 862.30 L 290.20 874.30 L 282.00 884.10 L 276.50 892.50 L 274.20 896.90 L 272.30 901.60 L 270.80 906.50 L 276.80 907.10 L 282.60 908.30 L 288.40 909.90 L 294.00 912.00 L 299.40 914.50 L 304.70 917.40 L 309.70 920.70 L 314.40 924.30 L 318.80 928.30 L 322.80 932.80 L 326.30 937.50 L 330.70 945.30 L 333.70 953.70 L 334.50 957.90 L 334.80 962.10 L 334.70 966.30 L 334.20 970.60 L 333.30 974.70 L 331.80 978.60 L 329.90 982.40 L 327.50 985.80 L 324.60 988.90 L 333.20 992.00 L 341.90 994.60 L 350.70 996.80 L 359.70 998.50 L 368.70 999.80 L 377.70 1000.60 L 386.80 1001.00 L 395.90 1000.90 L 405.50 1000.40 L 424.60 998.10 L 443.40 994.40 L 461.90 989.30 L 471.00 986.20 L 482.10 982.10 L 493.00 977.50 L 503.70 972.60 L 514.30 967.30 L 524.70 961.60 L 544.80 949.20 L 554.60 942.50 L 567.30 933.20 L 579.60 923.30 L 591.50 913.00 L 601.70 903.30 L 611.50 893.30 L 620.90 883.00 L 630.00 872.40 L 638.70 861.40 L 647.10 850.20 L 655.10 838.70 L 662.70 827.00 L 669.90 815.00 L 676.80 802.80 L 683.20 790.30 L 689.30 777.70 L 695.00 765.00 L 700.30 752.00 L 709.90 725.50 L 714.30 711.90 L 722.00 684.60 L 726.40 666.10 L 730.10 647.50 L 733.20 628.80 L 735.70 610.00 L 737.70 591.10 L 739.10 572.20 L 739.40 525.00 L 739.00 509.20 L 738.10 493.50 L 734.90 461.80 L 732.60 445.70 L 729.90 429.80 L 726.60 413.90 L 722.80 398.20 L 718.40 382.60 L 714.70 371.00 L 706.30 348.20 L 701.60 337.00 L 695.60 324.00 L 689.10 311.30 L 682.00 298.80 L 676.20 289.70 L 670.20 280.80 L 663.80 272.20 L 657.10 263.80 L 650.00 255.70 L 642.60 248.00 L 634.80 240.60 L 626.70 233.50 L 614.10 223.70 L 607.50 219.30 L 597.30 213.10 L 586.80 207.50 L 576.10 202.40 L 565.10 197.60 L 555.00 193.90 L 534.40 187.40 L 523.90 184.70 L 509.20 179.50 L 502.10 176.40 L 495.10 173.00 L 488.40 169.10 L 481.80 164.80 L 475.30 159.60 L 469.10 153.90 L 463.40 147.80 L 458.00 141.20 L 453.10 134.50 L 448.50 127.40 L 440.90 113.80 L 438.10 109.40 L 430.70 119.20 L 428.60 121.40 L 426.20 123.30 Z M 821.80 317.00 L 820.00 319.30 L 817.40 324.30 L 815.30 332.60 L 814.70 338.60 L 814.70 344.60 L 815.10 350.60 L 816.30 359.50 L 818.20 368.40 L 825.70 363.40 L 829.80 361.40 L 834.00 359.70 L 842.90 359.00 L 845.00 358.50 L 847.00 357.60 L 846.20 349.50 L 844.70 341.40 L 842.60 333.50 L 839.90 325.80 L 837.90 321.60 L 835.20 317.80 L 833.50 316.20 L 831.40 315.10 L 829.70 314.70 L 828.10 314.70 L 824.90 315.60 L 821.80 317.00 Z M 829.10 371.10 L 826.20 373.20 L 823.90 375.70 L 822.00 378.50 L 820.50 381.50 L 819.40 384.70 L 818.70 388.10 L 818.20 395.00 L 818.50 401.30 L 819.10 404.10 L 820.10 406.90 L 823.10 411.90 L 825.00 414.00 L 827.30 415.90 L 829.70 417.30 L 832.30 418.30 L 835.10 418.90 L 837.90 418.90 L 840.90 418.20 L 840.70 411.80 L 841.00 401.00 L 842.40 392.50 L 843.50 388.40 L 845.20 384.40 L 847.20 380.60 L 848.90 378.20 L 853.10 374.40 L 860.50 370.00 L 853.60 367.90 L 850.00 367.30 L 842.80 367.10 L 835.70 368.40 L 829.10 371.10 Z M 861.10 377.20 L 858.40 378.60 L 856.20 380.30 L 854.40 382.40 L 851.60 387.30 L 849.40 394.30 L 848.50 398.40 L 848.00 410.20 L 848.40 414.10 L 849.80 419.00 L 851.00 421.40 L 853.70 424.80 L 855.30 426.10 L 857.20 427.10 L 859.20 427.60 L 861.40 427.50 L 864.20 426.30 L 866.70 423.60 L 867.80 421.50 L 869.20 417.20 L 870.40 405.90 L 870.70 397.40 L 871.10 395.00 L 871.80 392.80 L 874.10 393.20 L 875.00 396.30 L 875.80 402.60 L 875.70 415.90 L 874.70 422.50 L 872.20 428.00 L 870.60 430.00 L 868.60 431.80 L 866.30 433.10 L 863.90 434.10 L 861.30 434.60 L 858.70 434.80 L 856.10 434.40 L 850.90 432.20 L 848.60 430.50 L 846.60 428.30 L 844.80 425.90 L 841.90 420.80 L 838.70 422.50 L 835.40 423.70 L 830.70 424.20 L 828.30 423.80 L 825.80 422.80 L 821.30 420.00 L 818.30 417.30 L 815.80 414.10 L 813.80 410.60 L 812.40 406.80 L 811.50 403.40 L 811.20 399.80 L 811.30 385.60 L 801.50 381.90 L 796.40 380.50 L 791.20 379.60 L 786.00 379.20 L 780.70 379.40 L 776.30 380.30 L 772.10 381.60 L 768.00 383.50 L 764.20 385.80 L 760.70 388.50 L 757.40 391.50 L 754.50 394.90 L 751.90 398.50 L 749.70 402.40 L 748.40 405.30 L 746.70 411.50 L 746.10 416.30 L 746.00 421.10 L 746.70 430.80 L 748.00 435.00 L 749.80 439.10 L 752.10 443.00 L 754.60 446.70 L 760.50 453.40 L 767.20 460.10 L 774.20 466.40 L 805.60 491.60 L 814.50 497.40 L 819.10 499.60 L 823.80 501.40 L 828.70 502.80 L 833.70 503.80 L 843.70 505.00 L 843.60 508.10 L 839.00 509.00 L 834.20 509.30 L 824.70 509.20 L 825.70 512.20 L 827.10 514.80 L 829.00 517.10 L 831.20 519.20 L 836.40 522.40 L 840.70 524.20 L 845.00 525.40 L 854.10 526.10 L 858.70 525.90 L 863.20 525.20 L 868.90 523.20 L 871.60 521.70 L 874.40 519.60 L 876.80 517.10 L 878.80 514.20 L 880.30 511.10 L 881.40 507.80 L 882.10 504.30 L 872.70 507.10 L 870.30 507.50 L 867.00 507.30 L 866.50 506.90 L 865.20 504.30 L 874.50 500.50 L 879.00 498.10 L 883.20 495.30 L 885.70 493.10 L 887.90 490.70 L 889.90 487.90 L 892.50 483.50 L 894.50 478.90 L 896.00 474.20 L 897.90 464.40 L 898.40 459.40 L 898.50 451.80 L 898.00 444.40 L 896.80 436.90 L 898.10 422.00 L 898.30 409.60 L 897.80 400.90 L 896.10 392.30 L 893.00 384.20 L 891.80 382.20 L 890.30 380.50 L 887.80 378.90 L 882.20 377.00 L 878.10 376.00 L 873.70 375.50 L 869.40 375.50 L 865.20 376.10 L 861.10 377.20 Z M 743.80 449.60 L 743.80 454.80 L 747.40 487.40 L 748.50 504.30 L 749.10 521.30 L 749.30 538.20 L 748.80 572.20 L 748.00 581.00 L 747.70 589.80 L 783.60 605.60 L 789.90 608.10 L 796.20 610.20 L 804.90 611.90 L 809.30 612.30 L 811.60 611.70 L 813.60 610.70 L 815.30 609.40 L 817.50 606.90 L 820.80 600.80 L 824.50 589.80 L 826.70 581.80 L 830.00 565.60 L 831.10 557.40 L 831.80 549.20 L 832.10 540.90 L 832.00 532.60 L 825.70 528.10 L 820.40 522.40 L 816.30 515.70 L 813.10 507.60 L 807.10 504.30 L 801.40 500.50 L 796.00 496.40 L 768.70 474.30 L 757.80 464.50 L 752.70 459.30 L 746.00 451.50 L 743.80 449.60 Z M 359.00 631.00 L 351.10 635.10 L 346.60 638.90 L 344.70 641.20 L 343.50 643.40 L 342.10 648.10 L 341.90 651.70 L 342.10 655.40 L 343.40 662.50 L 347.00 676.40 L 349.40 683.20 L 357.60 684.10 L 361.60 685.20 L 365.40 686.80 L 370.00 689.70 L 372.10 691.60 L 375.40 696.00 L 376.60 698.50 L 379.50 706.30 L 386.40 709.50 L 392.60 714.00 L 396.30 717.60 L 399.50 721.50 L 402.40 725.70 L 408.70 714.50 L 414.70 703.10 L 420.20 691.50 L 425.40 679.70 L 434.70 655.70 L 438.80 643.50 L 446.40 618.90 L 442.00 618.10 L 437.50 617.60 L 428.50 617.60 L 409.20 618.80 L 398.90 620.10 L 388.70 621.80 L 378.60 624.10 L 365.40 628.30 L 359.00 631.00 Z M 338.70 694.90 L 334.20 696.60 L 329.70 698.80 L 326.90 700.50 L 321.90 704.60 L 319.80 707.00 L 318.10 709.80 L 316.00 714.90 L 315.90 716.90 L 316.80 720.90 L 318.20 724.90 L 330.00 720.20 L 336.20 718.30 L 338.50 718.20 L 339.60 719.00 L 339.90 719.80 L 329.20 725.60 L 326.00 727.90 L 324.10 729.70 L 322.50 731.80 L 321.20 734.30 L 320.00 738.20 L 319.40 742.20 L 319.30 746.40 L 320.40 754.60 L 321.40 758.60 L 322.50 761.10 L 325.70 765.20 L 331.60 770.60 L 334.70 774.00 L 337.50 777.80 L 339.10 780.50 L 341.30 786.20 L 341.90 789.20 L 342.10 792.30 L 341.90 795.50 L 340.30 794.80 L 339.20 793.60 L 334.90 786.50 L 329.10 778.70 L 325.90 775.10 L 318.70 768.50 L 316.90 769.40 L 313.70 772.00 L 311.80 774.50 L 309.10 779.80 L 308.10 785.60 L 308.20 794.40 L 308.70 797.60 L 309.60 800.50 L 311.10 803.20 L 312.90 805.70 L 315.10 807.90 L 317.60 809.80 L 320.30 811.30 L 323.10 812.50 L 326.10 813.30 L 334.80 813.90 L 339.10 813.60 L 345.50 812.70 L 351.80 811.10 L 358.00 808.90 L 363.90 806.20 L 369.60 803.00 L 375.10 799.30 L 380.20 795.30 L 384.90 790.70 L 388.10 787.10 L 393.70 779.10 L 396.10 774.70 L 398.10 769.80 L 399.50 764.80 L 400.30 759.50 L 400.60 754.20 L 400.20 748.90 L 399.20 743.60 L 397.70 738.50 L 395.60 733.70 L 393.00 729.10 L 390.60 726.00 L 388.00 723.00 L 381.80 718.00 L 378.70 716.30 L 375.60 715.20 L 372.30 714.40 L 362.10 713.20 L 365.50 710.00 L 369.40 707.30 L 369.00 704.80 L 368.20 702.60 L 367.00 700.50 L 363.60 697.00 L 359.40 694.60 L 354.70 693.40 L 346.60 693.30 L 342.60 693.80 L 338.70 694.90 Z M 269.80 914.00 L 269.90 918.90 L 276.40 920.10 L 282.80 922.00 L 289.00 924.40 L 295.00 927.30 L 300.60 930.70 L 306.00 934.60 L 309.70 937.90 L 316.40 945.20 L 320.90 951.20 L 322.80 952.60 L 324.10 952.50 L 324.90 951.80 L 323.60 948.30 L 322.00 944.90 L 320.00 941.80 L 316.60 937.40 L 312.90 933.30 L 308.90 929.80 L 304.60 926.60 L 300.10 923.70 L 295.40 921.10 L 285.50 917.10 L 280.30 915.70 L 275.10 914.60 L 269.80 914.00 Z M 606.00 1146.10 L 606.60 1148.90 L 608.80 1154.10 L 610.30 1156.50 L 612.20 1158.50 L 614.40 1160.40 L 619.20 1163.20 L 624.30 1165.60 L 629.50 1167.50 L 645.70 1171.80 L 645.90 1172.20 L 656.70 1173.90 L 667.50 1175.10 L 689.30 1176.10 L 711.00 1175.80 L 725.90 1174.40 L 733.30 1173.30 L 740.60 1171.70 L 745.40 1170.40 L 754.60 1166.60 L 758.00 1164.50 L 761.00 1162.00 L 762.80 1160.00 L 765.60 1155.60 L 767.20 1150.60 L 767.50 1147.90 L 765.10 1149.10 L 756.40 1155.00 L 754.10 1156.20 L 746.80 1159.40 L 739.30 1161.90 L 731.70 1163.90 L 723.90 1165.40 L 716.10 1166.40 L 708.10 1167.10 L 696.20 1167.60 L 684.40 1167.60 L 674.90 1167.10 L 665.40 1166.20 L 656.00 1164.80 L 646.70 1163.10 L 639.50 1161.30 L 632.40 1159.20 L 625.40 1156.80 L 618.60 1153.80 L 610.00 1149.00 L 606.00 1146.10 Z M 473.70 1156.30 L 463.90 1159.50 L 454.00 1162.20 L 443.90 1164.30 L 433.70 1165.90 L 423.50 1167.00 L 413.20 1167.70 L 401.90 1167.80 L 390.60 1167.40 L 383.00 1166.80 L 368.10 1164.60 L 360.80 1162.90 L 353.50 1160.70 L 346.40 1158.00 L 342.50 1156.10 L 331.70 1148.80 L 331.70 1151.80 L 332.30 1154.60 L 333.40 1157.30 L 335.00 1159.80 L 336.80 1162.10 L 339.10 1164.00 L 342.60 1166.40 L 346.30 1168.30 L 350.20 1169.90 L 356.30 1171.70 L 367.60 1174.10 L 378.00 1175.60 L 385.90 1176.10 L 409.70 1176.20 L 421.20 1175.60 L 440.40 1173.70 L 455.50 1171.00 L 463.00 1169.10 L 470.30 1166.70 L 477.50 1163.90 L 481.10 1162.20 L 484.50 1160.00 L 486.60 1158.20 L 489.90 1154.10 L 491.10 1151.80 L 491.90 1149.30 L 492.30 1146.50 L 478.50 1154.20 L 473.70 1156.30 Z" fill="#010101" fill-rule="nonzero" group-id="2,22" node-id="204" stroke="none" target-height="1123.5" target-width="649.5" target-x="258.8" target-y="62.3"></path><path d="M 410.50 133.40 L 411.30 132.60 L 412.90 132.80 L 421.60 139.30 L 487.40 195.00 L 491.60 200.40 L 489.00 199.00 L 486.50 197.40 L 479.40 191.50 L 464.00 181.40 L 454.30 174.30 L 445.00 166.70 L 436.00 158.80 L 427.30 150.50 L 410.50 133.40 Z" fill="#010101" fill-rule="nonzero" group-id="2,23" node-id="209" stroke="none" target-height="67.79999" target-width="81.100006" target-x="410.5" target-y="132.6"></path><path d="M 520.90 209.00 L 525.60 208.90 L 530.30 209.30 L 534.80 210.20 L 539.30 211.60 L 548.00 215.20 L 560.60 221.60 L 569.70 227.20 L 578.60 233.30 L 587.20 239.70 L 595.60 246.60 L 603.50 253.80 L 611.20 261.40 L 618.20 269.20 L 624.90 277.30 L 631.30 285.70 L 637.40 294.40 L 643.00 303.30 L 648.20 312.40 L 652.30 321.00 L 654.10 325.40 L 655.50 329.80 L 656.50 334.40 L 656.90 339.20 L 655.10 337.90 L 652.50 334.50 L 646.00 321.90 L 640.10 311.50 L 633.70 301.50 L 626.80 291.70 L 619.60 282.20 L 612.00 273.00 L 602.90 263.50 L 593.40 254.40 L 583.40 245.80 L 575.70 239.60 L 567.70 233.90 L 559.40 228.60 L 546.00 220.90 L 520.90 209.00 Z" fill="#010101" fill-rule="nonzero" group-id="2,24" node-id="214" stroke="none" target-height="130.30002" target-width="136" target-x="520.9" target-y="208.9"></path><path d="M 474.50 254.30 L 477.20 256.40 L 479.70 258.80 L 487.20 269.10 L 495.10 282.90 L 502.80 299.10 L 508.70 314.60 L 512.50 326.50 L 516.50 341.80 L 517.20 348.60 L 514.50 348.00 L 512.30 344.10 L 510.50 340.00 L 492.30 292.40 L 486.80 279.50 L 480.90 266.80 L 474.50 254.30 Z" fill="#010101" fill-rule="nonzero" group-id="2,25" node-id="219" stroke="none" target-height="94.3" target-width="42.700012" target-x="474.5" target-y="254.3"></path><path d="M 498.70 368.40 L 502.70 365.00 L 506.90 362.10 L 511.50 359.80 L 516.30 357.90 L 521.30 356.50 L 526.40 355.70 L 531.50 355.50 L 536.70 355.70 L 541.80 356.60 L 547.30 358.00 L 552.70 360.00 L 555.00 361.50 L 557.00 363.60 L 555.30 366.80 L 554.10 368.10 L 552.60 369.10 L 549.40 370.40 L 546.10 371.30 L 532.60 374.00 L 526.90 375.30 L 521.30 377.10 L 515.90 379.30 L 508.00 383.10 L 496.50 389.20 L 492.40 390.20 L 490.30 390.10 L 488.20 389.40 L 488.80 384.10 L 489.60 381.50 L 491.30 377.90 L 493.40 374.50 L 498.70 368.40 Z" fill="#010101" fill-rule="nonzero" group-id="2,26" node-id="224" stroke="none" target-height="34.700012" target-width="68.79999" target-x="488.2" target-y="355.5"></path><path d="M 605.20 363.20 L 607.80 361.50 L 613.40 359.00 L 617.90 357.80 L 622.50 357.00 L 631.80 356.10 L 637.50 356.10 L 643.20 356.60 L 648.90 357.60 L 654.50 359.10 L 659.80 361.10 L 665.00 363.50 L 669.90 366.50 L 674.40 370.00 L 678.60 374.00 L 682.40 378.90 L 684.00 381.60 L 685.70 386.50 L 685.90 390.70 L 684.20 391.50 L 682.60 391.70 L 680.90 391.40 L 661.90 381.70 L 654.60 378.80 L 647.00 376.30 L 639.30 374.40 L 631.50 373.10 L 616.00 371.50 L 608.40 370.00 L 607.10 369.40 L 605.20 367.30 L 604.70 366.00 L 604.70 364.60 L 605.20 363.20 Z" fill="#010101" fill-rule="nonzero" group-id="2,27" node-id="229" stroke="none" target-height="35.600006" target-width="81.20001" target-x="604.7" target-y="356.1"></path><path d="M 525.60 388.50 L 527.10 390.10 L 529.00 393.90 L 529.90 397.00 L 531.40 406.70 L 539.30 406.80 L 547.10 408.20 L 550.80 409.40 L 557.90 412.90 L 561.10 415.10 L 568.00 421.30 L 571.40 425.40 L 574.40 429.70 L 577.00 434.20 L 579.20 439.00 L 582.70 449.00 L 585.00 459.30 L 585.60 473.50 L 585.20 480.60 L 584.30 487.60 L 583.30 492.20 L 580.40 501.30 L 577.90 506.80 L 574.90 512.10 L 571.50 517.20 L 565.50 524.10 L 558.50 529.90 L 555.00 532.00 L 551.30 533.70 L 547.40 535.00 L 543.40 535.80 L 539.30 536.10 L 535.20 536.00 L 531.20 535.50 L 527.30 534.50 L 523.50 533.00 L 517.20 529.50 L 514.30 527.40 L 510.40 523.80 L 506.70 519.90 L 503.50 515.60 L 500.50 511.10 L 497.70 506.00 L 495.40 500.70 L 493.50 495.10 L 492.00 489.40 L 490.90 483.70 L 490.30 477.90 L 489.80 472.90 L 489.90 468.00 L 490.30 463.10 L 492.60 448.40 L 484.20 444.10 L 475.60 440.10 L 476.20 435.70 L 477.90 431.50 L 495.30 439.50 L 497.40 436.00 L 498.90 432.10 L 487.70 420.60 L 488.80 418.90 L 490.30 417.40 L 493.80 415.00 L 498.70 420.00 L 503.90 424.70 L 511.60 417.30 L 514.40 415.10 L 517.70 412.90 L 528.10 407.30 L 525.60 388.50 Z M 530.60 416.90 L 526.80 418.30 L 523.10 420.10 L 519.70 422.40 L 516.50 424.90 L 511.00 431.00 L 506.50 437.80 L 502.60 446.90 L 500.90 452.40 L 499.70 458.10 L 498.90 463.80 L 498.50 469.60 L 498.60 475.40 L 499.20 481.20 L 500.20 486.90 L 501.80 492.50 L 503.90 498.50 L 506.50 504.30 L 511.00 511.50 L 516.70 517.80 L 519.90 520.50 L 523.50 522.90 L 526.60 524.60 L 529.90 525.80 L 533.30 526.70 L 536.90 527.10 L 540.30 527.10 L 543.80 526.60 L 547.30 525.70 L 550.50 524.40 L 556.80 520.30 L 559.80 517.70 L 564.90 511.80 L 567.70 507.50 L 570.10 502.90 L 573.90 493.00 L 576.40 482.90 L 576.90 475.40 L 576.90 467.90 L 576.50 460.50 L 574.10 450.70 L 570.50 441.20 L 568.20 436.70 L 565.60 432.50 L 562.50 428.50 L 559.10 424.90 L 555.10 421.70 L 551.40 419.40 L 547.60 417.70 L 543.40 416.60 L 539.10 416.10 L 534.90 416.20 L 530.60 416.90 Z" fill="#010101" fill-rule="nonzero" group-id="2,28" node-id="234" stroke="none" target-height="147.59998" target-width="109.99997" target-x="475.6" target-y="388.5"></path><path d="M 788.50 405.90 L 790.60 405.30 L 794.80 405.40 L 798.80 407.00 L 800.60 408.20 L 802.30 409.60 L 804.80 413.10 L 807.50 419.40 L 809.80 425.90 L 810.10 427.60 L 809.90 429.20 L 808.30 432.30 L 804.30 438.30 L 801.70 440.80 L 799.50 441.30 L 798.20 441.00 L 793.80 439.50 L 780.80 434.30 L 778.70 433.30 L 776.80 431.90 L 775.10 430.10 L 774.10 428.00 L 773.80 426.50 L 773.80 425.00 L 774.30 423.40 L 777.70 416.50 L 779.90 413.30 L 782.40 410.40 L 785.20 407.90 L 788.50 405.90 Z M 791.00 415.10 L 787.00 419.40 L 785.30 421.80 L 784.10 424.50 L 788.70 427.40 L 791.10 428.60 L 793.80 429.20 L 795.00 427.70 L 796.30 424.30 L 796.40 422.40 L 796.00 420.70 L 793.60 416.20 L 792.10 415.10 L 791.00 415.10 Z" fill="#010101" fill-rule="nonzero" group-id="2,29" node-id="239" stroke="none" target-height="36" target-width="36.299988" target-x="773.8" target-y="405.3"></path><path d="M 629.50 408.30 L 633.00 407.40 L 640.00 406.80 L 643.50 407.20 L 648.10 408.10 L 652.60 409.60 L 656.90 411.70 L 661.00 414.30 L 664.70 417.20 L 670.80 423.30 L 672.50 423.90 L 681.60 414.20 L 683.10 414.40 L 685.80 416.00 L 689.20 419.50 L 679.30 432.20 L 679.30 434.00 L 681.00 439.20 L 698.10 432.30 L 701.00 439.80 L 698.30 441.40 L 687.00 446.80 L 684.30 448.40 L 685.60 454.60 L 686.50 460.90 L 686.90 467.30 L 686.80 473.70 L 686.30 480.10 L 685.40 486.40 L 683.90 492.60 L 682.10 498.70 L 679.70 504.70 L 677.60 509.00 L 672.30 517.10 L 666.00 524.30 L 662.40 527.50 L 658.50 530.30 L 654.40 532.70 L 650.00 534.80 L 646.60 535.90 L 643.20 536.60 L 639.70 536.80 L 632.70 536.20 L 629.20 535.40 L 622.60 532.80 L 619.50 531.20 L 615.60 528.50 L 612.00 525.40 L 608.70 522.10 L 605.70 518.50 L 602.10 513.30 L 599.10 507.80 L 596.60 502.00 L 594.50 495.50 L 592.90 488.80 L 591.90 482.00 L 591.40 475.20 L 591.40 468.40 L 591.90 461.50 L 593.00 454.70 L 594.60 448.10 L 596.60 441.60 L 598.70 436.60 L 601.20 431.90 L 604.10 427.30 L 607.50 423.00 L 611.10 419.10 L 615.20 415.60 L 618.50 413.30 L 625.60 409.60 L 629.50 408.30 Z M 633.60 416.70 L 627.10 418.80 L 624.10 420.40 L 618.50 424.30 L 616.00 426.60 L 612.70 430.40 L 609.80 434.60 L 607.10 439.60 L 604.80 444.70 L 602.90 450.00 L 601.50 455.50 L 600.50 461.00 L 600.00 466.60 L 599.80 472.20 L 600.10 477.90 L 601.50 487.90 L 604.30 497.80 L 606.30 502.50 L 608.60 507.00 L 611.30 511.30 L 614.50 515.20 L 618.10 518.80 L 621.80 521.80 L 625.80 524.30 L 628.70 525.60 L 634.70 527.30 L 637.80 527.70 L 641.00 527.50 L 648.10 525.80 L 651.80 524.20 L 655.30 522.10 L 661.40 516.80 L 664.10 513.60 L 668.70 506.90 L 672.80 498.40 L 674.60 493.40 L 675.90 488.30 L 677.30 477.90 L 677.40 464.60 L 676.80 456.70 L 675.90 452.20 L 673.10 443.40 L 668.90 435.20 L 666.40 431.50 L 663.50 427.90 L 660.20 424.60 L 657.70 422.60 L 652.20 419.30 L 649.30 418.10 L 643.10 416.50 L 639.90 416.20 L 633.60 416.70 Z" fill="#010101" fill-rule="nonzero" group-id="2,30" node-id="244" stroke="none" target-height="130" target-width="109.599976" target-x="591.4" target-y="406.8"></path><path d="M 811.10 437.10 L 815.00 437.20 L 818.60 437.80 L 822.20 439.00 L 825.50 440.60 L 828.60 442.70 L 831.50 445.20 L 834.10 448.10 L 836.30 451.20 L 838.20 454.50 L 839.70 458.00 L 840.80 461.60 L 841.30 465.30 L 833.60 455.90 L 829.40 451.40 L 821.60 444.60 L 811.10 437.10 Z" fill="#010101" fill-rule="nonzero" group-id="2,31" node-id="249" stroke="none" target-height="28.199982" target-width="30.200012" target-x="811.1" target-y="437.1"></path><path d="M 526.60 460.50 L 527.00 457.10 L 527.60 455.40 L 528.90 453.10 L 530.70 451.20 L 532.90 449.70 L 535.30 448.70 L 538.70 448.50 L 540.50 448.90 L 542.60 449.80 L 545.80 452.70 L 549.30 458.50 L 545.80 462.60 L 545.50 463.80 L 545.80 465.20 L 546.70 466.20 L 547.70 466.80 L 552.70 467.40 L 552.90 471.20 L 552.60 478.80 L 552.00 482.50 L 550.90 486.10 L 547.90 491.60 L 544.40 495.30 L 540.80 497.20 L 537.50 497.60 L 534.30 496.90 L 530.90 494.70 L 527.80 490.80 L 525.20 485.40 L 524.20 482.10 L 523.60 478.60 L 523.20 473.40 L 523.50 468.10 L 526.70 465.20 L 526.60 460.50 Z" fill="#010101" fill-rule="nonzero" group-id="2,32" node-id="254" stroke="none" target-height="49.100006" target-width="29.700012" target-x="523.2" target-y="448.5"></path><path d="M 626.90 458.00 L 630.00 453.50 L 631.80 451.40 L 633.90 449.70 L 637.20 448.50 L 641.00 448.70 L 644.20 450.10 L 646.20 451.90 L 649.30 456.50 L 650.60 458.90 L 648.30 462.50 L 647.70 463.70 L 647.50 464.90 L 648.00 466.20 L 653.30 469.40 L 653.40 473.80 L 653.10 478.30 L 652.20 482.80 L 650.80 487.10 L 649.60 489.80 L 646.20 494.70 L 644.40 496.40 L 642.20 497.60 L 639.80 498.40 L 637.40 498.50 L 635.80 498.20 L 632.90 496.60 L 629.00 492.30 L 627.60 489.80 L 626.00 485.80 L 624.90 481.50 L 623.90 472.80 L 624.00 471.10 L 624.70 469.70 L 627.90 466.30 L 628.90 464.40 L 628.90 462.80 L 628.50 461.10 L 626.90 458.00 Z" fill="#010101" fill-rule="nonzero" group-id="2,33" node-id="259" stroke="none" target-height="50" target-width="29.5" target-x="623.9" target-y="448.5"></path><path d="M 509.30 552.40 L 509.60 550.70 L 510.30 549.00 L 511.40 547.60 L 512.70 546.40 L 514.40 545.60 L 516.10 545.30 L 523.50 551.00 L 526.10 552.60 L 534.40 556.40 L 542.90 559.60 L 551.60 562.20 L 560.50 564.20 L 569.40 565.70 L 578.50 566.60 L 587.60 567.00 L 596.60 566.90 L 605.70 566.20 L 613.90 565.10 L 630.20 561.60 L 638.20 559.20 L 646.00 556.40 L 653.60 552.90 L 655.30 552.00 L 656.50 550.70 L 658.60 547.60 L 660.30 547.90 L 661.70 548.70 L 666.20 553.90 L 670.10 557.20 L 674.40 560.00 L 679.00 562.40 L 683.70 564.30 L 693.50 567.50 L 693.30 574.30 L 690.30 574.40 L 684.50 573.60 L 680.30 572.40 L 676.20 570.60 L 668.60 566.40 L 666.10 574.80 L 663.00 582.90 L 659.40 590.90 L 655.30 598.60 L 650.60 605.90 L 645.30 612.90 L 641.40 617.60 L 637.20 622.00 L 632.70 626.00 L 627.90 629.70 L 622.80 633.00 L 617.40 635.80 L 611.80 638.20 L 606.10 640.00 L 600.10 641.40 L 594.40 642.20 L 588.60 642.50 L 582.80 642.40 L 577.00 641.70 L 571.40 640.70 L 565.80 639.10 L 560.40 637.00 L 555.30 634.50 L 550.30 631.40 L 545.00 627.60 L 540.20 623.40 L 535.80 618.80 L 531.70 613.90 L 528.00 608.70 L 521.50 597.60 L 513.70 580.70 L 511.90 575.30 L 510.60 569.60 L 509.70 563.90 L 509.30 558.20 L 509.30 552.40 Z M 517.90 557.40 L 518.70 566.90 L 519.70 571.60 L 521.30 576.10 L 526.10 578.90 L 531.00 581.30 L 536.10 583.40 L 544.00 586.00 L 552.10 588.10 L 568.40 591.10 L 587.10 591.80 L 605.70 591.20 L 621.40 588.70 L 636.90 584.90 L 644.50 582.50 L 651.90 579.70 L 655.20 577.60 L 656.40 576.30 L 657.80 573.90 L 659.40 568.30 L 660.00 559.60 L 645.10 565.80 L 637.20 568.60 L 629.10 570.90 L 620.90 572.80 L 612.50 574.20 L 604.20 575.20 L 591.90 576.20 L 588.00 576.20 L 572.30 575.10 L 562.80 573.60 L 547.20 570.00 L 535.10 565.90 L 529.20 563.40 L 517.90 557.40 Z M 543.50 615.70 L 545.90 618.40 L 548.50 620.80 L 556.90 626.20 L 566.40 630.90 L 574.50 633.30 L 580.10 634.20 L 585.70 634.60 L 591.30 634.50 L 596.80 633.90 L 602.30 632.80 L 607.70 631.30 L 613.00 629.30 L 618.10 627.00 L 622.90 624.20 L 628.40 620.60 L 631.40 617.60 L 632.60 615.70 L 627.60 614.50 L 622.70 613.70 L 617.60 613.40 L 610.00 613.60 L 602.40 614.20 L 587.30 616.10 L 573.20 614.00 L 555.90 613.50 L 547.60 614.50 L 543.50 615.70 Z" fill="#010101" fill-rule="nonzero" group-id="2,34" node-id="264" stroke="none" target-height="97.20001" target-width="184.20001" target-x="509.3" target-y="545.3"></path><path d="M 508.70 612.60 L 509.10 611.40 L 510.40 610.00 L 513.70 609.50 L 515.30 613.10 L 514.40 619.70 L 511.80 630.10 L 509.90 635.10 L 509.30 636.00 L 508.50 636.40 L 504.50 636.30 L 504.50 632.30 L 505.10 628.30 L 508.70 612.60 Z" fill="#010101" fill-rule="nonzero" group-id="2,35" node-id="269" stroke="none" target-height="26.900024" target-width="10.799988" target-x="504.5" target-y="609.5"></path><path d="M 677.00 636.00 L 678.60 635.80 L 680.10 636.00 L 681.50 636.70 L 682.60 637.70 L 683.30 639.00 L 683.50 642.40 L 682.60 646.40 L 681.70 648.10 L 680.50 649.70 L 679.00 650.70 L 676.70 651.20 L 675.30 651.00 L 673.90 650.10 L 672.90 649.10 L 672.30 647.80 L 671.80 645.70 L 672.00 643.40 L 672.70 641.10 L 673.80 639.00 L 675.30 637.20 L 677.00 636.00 Z" fill="#010101" fill-rule="nonzero" group-id="2,36" node-id="274" stroke="none" target-height="15.400024" target-width="11.700012" target-x="671.8" target-y="635.8"></path><path d="M 555.50 646.20 L 559.10 645.80 L 560.90 646.00 L 569.60 648.40 L 581.30 650.70 L 586.00 651.20 L 598.90 651.30 L 600.90 651.60 L 602.80 652.20 L 603.60 653.40 L 603.90 654.60 L 603.70 655.90 L 603.10 656.90 L 602.10 657.60 L 600.70 657.90 L 594.90 658.40 L 589.10 658.60 L 583.30 658.30 L 577.50 657.70 L 571.70 656.60 L 566.10 655.10 L 560.70 653.20 L 555.30 650.90 L 555.50 646.20 Z" fill="#010101" fill-rule="nonzero" group-id="2,37" node-id="279" stroke="none" target-height="12.799988" target-width="48.600037" target-x="555.3" target-y="645.8"></path><path d="M 493.20 669.30 L 493.70 668.10 L 494.60 667.30 L 497.00 666.90 L 499.50 667.20 L 499.60 670.40 L 499.10 673.50 L 498.20 676.50 L 496.90 679.50 L 493.20 686.10 L 491.50 687.10 L 488.20 687.40 L 488.20 684.20 L 488.70 681.10 L 489.60 678.10 L 493.20 669.30 Z" fill="#010101" fill-rule="nonzero" group-id="2,38" node-id="284" stroke="none" target-height="20.5" target-width="11.399994" target-x="488.2" target-y="666.9"></path><path d="M 663.30 668.30 L 666.40 667.90 L 667.90 668.30 L 669.20 669.00 L 670.20 670.00 L 670.80 671.50 L 670.60 675.70 L 670.10 677.80 L 669.10 679.70 L 667.90 681.40 L 666.30 682.80 L 664.90 683.20 L 662.40 682.90 L 660.70 681.90 L 659.40 680.30 L 658.80 679.10 L 658.60 676.40 L 660.20 671.80 L 662.10 669.30 L 663.30 668.30 Z" fill="#010101" fill-rule="nonzero" group-id="2,39" node-id="289" stroke="none" target-height="15.299988" target-width="12.200012" target-x="658.6" target-y="667.9"></path><path d="M 650.90 699.10 L 652.20 698.50 L 654.90 698.50 L 656.90 699.30 L 658.50 700.60 L 658.80 705.60 L 658.50 708.20 L 657.70 710.70 L 656.60 713.00 L 655.00 714.80 L 652.20 716.40 L 650.40 716.70 L 648.50 715.90 L 647.10 714.80 L 646.20 713.50 L 645.60 711.90 L 645.40 708.40 L 646.00 705.60 L 648.30 701.40 L 650.90 699.10 Z" fill="#010101" fill-rule="nonzero" group-id="2,40" node-id="294" stroke="none" target-height="18.200012" target-width="13.399963" target-x="645.4" target-y="698.5"></path><path d="M 476.30 708.40 L 480.40 702.30 L 481.80 701.20 L 483.60 700.50 L 482.40 705.40 L 480.60 710.30 L 476.40 719.70 L 472.10 728.10 L 462.70 744.60 L 457.50 752.50 L 452.00 760.20 L 443.50 770.40 L 440.70 772.90 L 439.10 773.80 L 437.20 774.30 L 438.20 770.80 L 439.80 767.60 L 467.30 723.30 L 476.30 708.40 Z" fill="#010101" fill-rule="nonzero" group-id="2,41" node-id="299" stroke="none" target-height="73.79999" target-width="46.399994" target-x="437.2" target-y="700.5"></path><path d="M 644.70 729.10 L 647.80 728.70 L 646.10 733.80 L 639.30 748.30 L 631.50 762.50 L 623.20 776.30 L 614.30 789.80 L 604.90 803.00 L 595.00 815.80 L 584.70 828.30 L 574.00 840.40 L 562.90 852.10 L 552.70 862.10 L 542.10 871.80 L 531.30 881.10 L 520.10 890.00 L 508.70 898.60 L 496.90 906.80 L 484.90 914.50 L 472.60 921.80 L 460.10 928.70 L 447.30 935.20 L 435.70 940.30 L 423.90 945.00 L 411.90 949.10 L 402.80 951.80 L 393.60 954.10 L 384.30 955.90 L 374.80 957.30 L 366.50 957.60 L 358.20 956.90 L 363.10 955.00 L 376.00 952.40 L 388.80 949.20 L 401.40 945.50 L 413.90 941.20 L 426.10 936.30 L 438.20 931.00 L 459.60 920.40 L 480.30 908.50 L 493.70 899.80 L 506.70 890.70 L 519.40 881.00 L 531.60 870.80 L 543.50 860.20 L 555.00 849.20 L 566.20 837.70 L 576.90 825.90 L 587.20 813.70 L 597.10 801.20 L 606.70 788.40 L 615.80 775.30 L 624.50 761.90 L 641.50 733.70 L 644.70 729.10 Z" fill="#010101" fill-rule="nonzero" group-id="2,42" node-id="304" stroke="none" target-height="228.89996" target-width="289.59998" target-x="358.2" target-y="728.7"></path><path d="M 382.40 829.30 L 389.50 824.40 L 397.10 820.30 L 385.00 832.70 L 368.80 847.10 L 350.20 862.50 L 332.30 876.10 L 325.50 880.20 L 321.50 880.90 L 322.60 878.50 L 325.80 874.40 L 336.20 864.60 L 345.00 857.10 L 354.20 849.80 L 382.40 829.30 Z" fill="#010101" fill-rule="nonzero" group-id="2,43" node-id="309" stroke="none" target-height="60.600037" target-width="75.600006" target-x="321.5" target-y="820.3"></path><path d="M 392.40 75.90 L 397.50 72.70 L 401.30 71.80 L 403.30 71.90 L 403.90 76.50 L 404.10 81.10 L 403.80 85.70 L 402.40 94.80 L 399.20 106.00 L 396.70 112.50 L 393.30 119.80 L 389.30 126.90 L 386.20 131.40 L 382.80 135.50 L 378.90 139.40 L 376.30 140.90 L 372.60 141.20 L 370.40 140.60 L 368.40 139.60 L 366.80 138.10 L 365.50 135.50 L 365.20 134.00 L 365.10 129.80 L 366.00 121.50 L 367.60 115.40 L 369.60 109.50 L 374.90 98.10 L 378.50 91.90 L 382.60 86.10 L 388.90 79.10 L 392.40 75.90 Z" fill="#8b4b2a" fill-rule="nonzero" group-id="3,44" node-id="317" stroke="none" target-height="69.399994" target-width="39" target-x="365.1" target-y="71.8"></path><path d="M 411.30 74.40 L 416.10 77.80 L 420.50 81.60 L 424.40 86.00 L 428.00 90.60 L 431.30 95.50 L 434.20 100.60 L 425.80 111.00 L 422.70 114.00 L 420.40 115.80 L 417.90 117.20 L 415.00 118.30 L 400.10 122.90 L 402.90 117.30 L 405.40 111.50 L 407.50 105.60 L 409.20 99.50 L 410.50 93.30 L 411.20 87.10 L 411.50 80.80 L 411.30 74.40 Z" fill="#8b4b2a" fill-rule="nonzero" group-id="3,45" node-id="322" stroke="none" target-height="48.5" target-width="34.100006" target-x="400.1" target-y="74.4"></path><path d="M 543.50 615.70 L 547.60 614.50 L 551.70 613.80 L 555.90 613.50 L 573.20 614.00 L 587.30 616.10 L 602.40 614.20 L 610.00 613.60 L 617.60 613.40 L 622.70 613.70 L 627.60 614.50 L 632.60 615.70 L 631.40 617.60 L 628.40 620.60 L 622.90 624.20 L 618.10 627.00 L 613.00 629.30 L 607.70 631.30 L 602.30 632.80 L 596.80 633.90 L 591.30 634.50 L 585.70 634.60 L 580.10 634.20 L 574.50 633.30 L 570.40 632.30 L 562.50 629.20 L 556.90 626.20 L 548.50 620.80 L 545.90 618.40 L 543.50 615.70 Z" fill="#8b4b2a" fill-rule="nonzero" group-id="3,46" node-id="327" stroke="none" target-height="21.199951" target-width="89.099976" target-x="543.5" target-y="613.4"></path><path d="M 269.80 914.00 L 275.10 914.60 L 280.30 915.70 L 285.50 917.10 L 295.40 921.10 L 300.10 923.70 L 304.60 926.60 L 308.90 929.80 L 312.90 933.30 L 316.60 937.40 L 320.00 941.80 L 322.00 944.90 L 323.60 948.30 L 324.90 951.80 L 323.40 952.70 L 321.80 952.10 L 316.40 945.20 L 309.70 937.90 L 306.00 934.60 L 300.60 930.70 L 295.00 927.30 L 289.00 924.40 L 282.80 922.00 L 276.40 920.10 L 269.90 918.90 L 269.80 914.00 Z" fill="#8b4b2a" fill-rule="nonzero" group-id="3,47" node-id="332" stroke="none" target-height="38.700012" target-width="55.100006" target-x="269.8" target-y="914"></path><path d="M 426.20 123.30 L 428.60 121.40 L 430.70 119.20 L 438.10 109.40 L 440.90 113.80 L 448.50 127.40 L 453.10 134.50 L 458.00 141.20 L 463.40 147.80 L 469.10 153.90 L 475.30 159.60 L 481.80 164.80 L 488.40 169.10 L 495.10 173.00 L 502.10 176.40 L 509.20 179.50 L 523.90 184.70 L 520.90 184.90 L 522.00 195.10 L 521.80 200.70 L 520.40 205.00 L 519.50 206.30 L 518.40 207.00 L 517.00 207.30 L 512.50 207.60 L 508.20 206.60 L 491.30 201.50 L 487.00 200.50 L 486.50 197.40 L 491.60 200.40 L 489.60 197.60 L 484.90 192.70 L 421.60 139.30 L 412.90 132.80 L 411.30 132.60 L 410.50 133.40 L 406.90 129.90 L 420.00 126.30 L 423.20 125.00 L 426.20 123.30 Z" fill="#72833a" fill-rule="nonzero" group-id="4,48" node-id="340" stroke="none" target-height="98.200005" target-width="117.00003" target-x="406.9" target-y="109.4"></path><path d="M 394.40 136.30 L 400.50 132.80 L 406.90 129.90 L 427.30 150.50 L 436.00 158.80 L 445.00 166.70 L 454.30 174.30 L 464.00 181.40 L 479.40 191.50 L 486.50 197.40 L 487.00 200.50 L 480.10 204.30 L 473.50 208.50 L 467.00 213.00 L 460.90 217.90 L 455.20 223.20 L 447.00 232.30 L 443.60 235.10 L 440.00 237.60 L 439.90 226.90 L 438.60 220.00 L 437.40 216.70 L 434.30 209.50 L 430.70 202.60 L 426.80 195.90 L 422.40 189.50 L 412.70 177.40 L 401.80 166.30 L 394.00 159.40 L 385.90 152.90 L 377.50 146.80 L 383.60 147.20 L 390.50 139.60 L 394.40 136.30 Z" fill="#a9bb55" fill-rule="nonzero" group-id="5,49" node-id="348" stroke="none" target-height="107.70001" target-width="109.5" target-x="377.5" target-y="129.9"></path><path d="M 520.90 184.90 L 523.90 184.70 L 534.40 187.40 L 555.00 193.90 L 565.10 197.60 L 565.50 202.10 L 567.30 210.90 L 565.80 214.90 L 560.60 221.60 L 543.70 213.30 L 534.80 210.20 L 530.30 209.30 L 525.60 208.90 L 520.90 209.00 L 512.50 207.60 L 517.00 207.30 L 518.40 207.00 L 519.50 206.30 L 520.40 205.00 L 521.20 202.90 L 522.00 198.50 L 522.00 195.10 L 520.90 184.90 Z" fill="#a9bb55" fill-rule="nonzero" group-id="5,50" node-id="353" stroke="none" target-height="36.90001" target-width="54.799988" target-x="512.5" target-y="184.7"></path><path d="M 567.30 210.90 L 565.50 202.10 L 565.10 197.60 L 576.10 202.40 L 586.80 207.50 L 597.30 213.10 L 607.50 219.30 L 620.50 228.50 L 634.80 240.60 L 642.60 248.00 L 650.00 255.70 L 657.10 263.80 L 663.80 272.20 L 670.20 280.80 L 676.20 289.70 L 682.00 298.80 L 689.10 311.30 L 695.60 324.00 L 701.60 337.00 L 706.30 348.20 L 714.70 371.00 L 718.40 382.60 L 722.80 398.20 L 726.60 413.90 L 729.90 429.80 L 732.60 445.70 L 734.90 461.80 L 738.10 493.50 L 739.00 509.20 L 739.40 540.70 L 739.10 572.20 L 737.70 591.10 L 735.70 610.00 L 733.20 628.80 L 730.10 647.50 L 726.40 666.10 L 722.00 684.60 L 718.40 698.30 L 709.90 725.50 L 700.30 752.00 L 695.00 765.00 L 689.30 777.70 L 683.20 790.30 L 676.80 802.80 L 669.90 815.00 L 662.70 827.00 L 655.10 838.70 L 647.10 850.20 L 638.70 861.40 L 630.00 872.40 L 620.90 883.00 L 611.50 893.30 L 601.70 903.30 L 591.50 913.00 L 579.60 923.30 L 567.30 933.20 L 554.60 942.50 L 544.80 949.20 L 524.70 961.60 L 514.30 967.30 L 503.70 972.60 L 493.00 977.50 L 482.10 982.10 L 461.90 989.30 L 443.40 994.40 L 434.00 996.50 L 415.10 999.40 L 395.90 1000.90 L 386.80 1001.00 L 377.70 1000.60 L 368.70 999.80 L 359.70 998.50 L 350.70 996.80 L 341.90 994.60 L 333.20 992.00 L 324.60 988.90 L 327.50 985.80 L 329.90 982.40 L 331.80 978.60 L 333.30 974.70 L 334.20 970.60 L 334.70 966.30 L 334.80 962.10 L 334.50 957.90 L 333.70 953.70 L 330.70 945.30 L 326.30 937.50 L 322.80 932.80 L 318.80 928.30 L 314.40 924.30 L 309.70 920.70 L 304.70 917.40 L 299.40 914.50 L 294.00 912.00 L 288.40 909.90 L 282.60 908.30 L 276.80 907.10 L 270.80 906.50 L 272.30 901.60 L 274.20 896.90 L 276.50 892.50 L 282.00 884.10 L 290.20 874.30 L 302.10 862.30 L 337.50 831.60 L 343.70 824.50 L 347.40 821.00 L 349.10 820.00 L 357.60 817.10 L 363.90 814.40 L 370.00 811.30 L 375.90 807.70 L 381.40 803.60 L 386.60 799.10 L 391.50 794.20 L 395.80 789.00 L 399.80 783.40 L 402.20 779.20 L 404.10 774.80 L 405.70 770.30 L 407.60 761.00 L 408.00 751.50 L 407.70 746.70 L 406.70 740.30 L 407.00 738.80 L 421.70 710.40 L 428.00 697.50 L 433.90 684.30 L 439.30 671.00 L 449.60 641.50 L 454.40 625.40 L 458.60 609.10 L 462.10 592.60 L 465.10 576.00 L 467.60 559.40 L 469.60 542.70 L 472.00 510.90 L 472.40 495.90 L 472.20 465.80 L 471.10 446.60 L 469.40 427.40 L 467.00 408.40 L 464.10 389.30 L 460.60 370.40 L 456.50 351.60 L 451.90 333.00 L 442.30 298.00 L 440.30 289.70 L 437.80 275.70 L 437.10 264.40 L 437.20 251.10 L 438.10 242.40 L 439.10 238.10 L 443.60 235.10 L 447.00 232.30 L 455.20 223.20 L 460.90 217.90 L 467.00 213.00 L 473.50 208.50 L 480.10 204.30 L 487.00 200.50 L 495.50 202.70 L 508.20 206.60 L 520.90 209.00 L 546.00 220.90 L 559.40 228.60 L 567.70 233.90 L 575.70 239.60 L 583.40 245.80 L 593.40 254.40 L 602.90 263.50 L 612.00 273.00 L 619.60 282.20 L 626.80 291.70 L 633.70 301.50 L 640.10 311.50 L 646.00 321.90 L 652.50 334.50 L 655.10 337.90 L 656.90 339.20 L 656.50 334.40 L 655.50 329.80 L 654.10 325.40 L 652.30 321.00 L 648.20 312.40 L 643.00 303.30 L 637.40 294.40 L 631.30 285.70 L 624.90 277.30 L 618.20 269.20 L 611.20 261.40 L 603.50 253.80 L 595.60 246.60 L 587.20 239.70 L 578.60 233.30 L 569.70 227.20 L 560.60 221.60 L 565.80 214.90 L 567.30 210.90 Z M 474.50 254.30 L 480.90 266.80 L 486.80 279.50 L 497.40 305.40 L 510.50 340.00 L 514.50 348.00 L 517.20 348.60 L 517.00 345.20 L 515.80 338.50 L 512.50 326.50 L 508.70 314.60 L 502.80 299.10 L 495.10 282.90 L 487.20 269.10 L 479.70 258.80 L 477.20 256.40 L 474.50 254.30 Z M 498.70 368.40 L 493.40 374.50 L 491.30 377.90 L 489.60 381.50 L 488.80 384.10 L 488.20 389.40 L 490.30 390.10 L 492.40 390.20 L 496.50 389.20 L 508.00 383.10 L 515.90 379.30 L 521.30 377.10 L 526.90 375.30 L 532.60 374.00 L 546.10 371.30 L 549.40 370.40 L 552.60 369.10 L 554.10 368.10 L 555.30 366.80 L 557.00 363.60 L 555.00 361.50 L 552.70 360.00 L 547.30 358.00 L 541.80 356.60 L 536.70 355.70 L 531.50 355.50 L 526.40 355.70 L 521.30 356.50 L 516.30 357.90 L 511.50 359.80 L 506.90 362.10 L 502.70 365.00 L 498.70 368.40 Z M 605.20 363.20 L 604.70 364.60 L 604.70 366.00 L 605.20 367.30 L 607.10 369.40 L 608.40 370.00 L 616.00 371.50 L 631.50 373.10 L 639.30 374.40 L 647.00 376.30 L 654.60 378.80 L 661.90 381.70 L 680.90 391.40 L 682.60 391.70 L 684.20 391.50 L 685.90 390.70 L 685.70 386.50 L 684.00 381.60 L 682.40 378.90 L 678.60 374.00 L 674.40 370.00 L 669.90 366.50 L 665.00 363.50 L 659.80 361.10 L 654.50 359.10 L 648.90 357.60 L 643.20 356.60 L 637.50 356.10 L 631.80 356.10 L 622.50 357.00 L 617.90 357.80 L 613.40 359.00 L 607.80 361.50 L 605.20 363.20 Z M 525.60 388.50 L 528.10 407.30 L 517.70 412.90 L 514.40 415.10 L 511.60 417.30 L 503.90 424.70 L 498.70 420.00 L 493.80 415.00 L 490.30 417.40 L 488.80 418.90 L 487.70 420.60 L 498.90 432.10 L 497.40 436.00 L 495.30 439.50 L 477.90 431.50 L 476.20 435.70 L 475.80 437.80 L 475.60 440.10 L 484.20 444.10 L 492.50 448.40 L 490.30 463.10 L 489.90 468.00 L 489.80 472.90 L 490.30 477.90 L 490.90 483.70 L 492.00 489.40 L 493.50 495.10 L 495.40 500.70 L 497.70 506.00 L 500.50 511.10 L 503.50 515.60 L 506.70 519.90 L 510.40 523.80 L 514.30 527.40 L 520.20 531.40 L 527.30 534.50 L 531.20 535.50 L 535.20 536.00 L 539.30 536.10 L 543.40 535.80 L 547.40 535.00 L 551.30 533.70 L 555.00 532.00 L 558.50 529.90 L 565.50 524.10 L 571.50 517.20 L 574.90 512.10 L 577.90 506.80 L 580.40 501.30 L 582.00 496.80 L 584.30 487.60 L 585.20 480.60 L 585.60 473.50 L 585.50 466.40 L 585.00 459.30 L 584.00 454.10 L 581.20 444.00 L 579.20 439.00 L 574.40 429.70 L 571.40 425.40 L 568.00 421.30 L 564.20 417.60 L 561.10 415.10 L 554.40 411.00 L 547.10 408.20 L 543.20 407.30 L 535.40 406.60 L 531.40 406.70 L 529.90 397.00 L 529.00 393.90 L 527.10 390.10 L 525.60 388.50 Z M 629.50 408.30 L 625.60 409.60 L 618.50 413.30 L 615.20 415.60 L 611.10 419.10 L 607.50 423.00 L 604.10 427.30 L 601.20 431.90 L 598.70 436.60 L 596.60 441.60 L 594.60 448.10 L 593.00 454.70 L 591.90 461.50 L 591.40 468.40 L 591.40 475.20 L 591.90 482.00 L 592.90 488.80 L 594.50 495.50 L 596.60 502.00 L 599.10 507.80 L 602.10 513.30 L 605.70 518.50 L 608.70 522.10 L 612.00 525.40 L 615.60 528.50 L 619.50 531.20 L 625.80 534.20 L 629.20 535.40 L 632.70 536.20 L 639.70 536.80 L 643.20 536.60 L 646.60 535.90 L 650.00 534.80 L 654.40 532.70 L 658.50 530.30 L 662.40 527.50 L 669.30 520.80 L 672.30 517.10 L 677.60 509.00 L 679.70 504.70 L 682.10 498.70 L 683.90 492.60 L 685.40 486.40 L 686.30 480.10 L 686.80 473.70 L 686.90 467.30 L 686.50 460.90 L 685.60 454.60 L 684.30 448.40 L 687.00 446.80 L 698.30 441.40 L 701.00 439.80 L 698.10 432.30 L 681.00 439.20 L 679.30 434.00 L 679.30 432.20 L 689.20 419.50 L 685.80 416.00 L 683.10 414.40 L 681.60 414.20 L 672.50 423.90 L 670.80 423.30 L 664.70 417.20 L 661.00 414.30 L 656.90 411.70 L 652.60 409.60 L 648.10 408.10 L 643.50 407.20 L 640.00 406.80 L 633.00 407.40 L 629.50 408.30 Z M 509.30 552.40 L 509.30 558.20 L 509.70 563.90 L 510.60 569.60 L 511.90 575.30 L 513.70 580.70 L 521.50 597.60 L 528.00 608.70 L 531.70 613.90 L 535.80 618.80 L 540.20 623.40 L 545.00 627.60 L 550.30 631.40 L 555.30 634.50 L 560.40 637.00 L 565.80 639.10 L 571.40 640.70 L 577.00 641.70 L 582.80 642.40 L 588.60 642.50 L 594.40 642.20 L 600.10 641.40 L 606.10 640.00 L 611.80 638.20 L 617.40 635.80 L 622.80 633.00 L 627.90 629.70 L 632.70 626.00 L 637.20 622.00 L 641.40 617.60 L 645.30 612.90 L 650.60 605.90 L 655.30 598.60 L 659.40 590.90 L 663.00 582.90 L 666.10 574.80 L 668.60 566.40 L 676.20 570.60 L 680.30 572.40 L 687.40 574.20 L 693.30 574.30 L 693.50 567.50 L 683.70 564.30 L 679.00 562.40 L 674.40 560.00 L 670.10 557.20 L 666.20 553.90 L 661.70 548.70 L 660.30 547.90 L 658.60 547.60 L 656.50 550.70 L 655.30 552.00 L 653.60 552.90 L 646.00 556.40 L 638.20 559.20 L 630.20 561.60 L 613.90 565.10 L 605.70 566.20 L 596.60 566.90 L 587.60 567.00 L 578.50 566.60 L 569.40 565.70 L 560.50 564.20 L 551.60 562.20 L 542.90 559.60 L 534.40 556.40 L 526.10 552.60 L 523.50 551.00 L 516.10 545.30 L 514.40 545.60 L 512.70 546.40 L 511.40 547.60 L 510.30 549.00 L 509.60 550.70 L 509.30 552.40 Z M 508.70 612.60 L 505.10 628.30 L 504.50 632.30 L 504.50 636.30 L 507.60 636.50 L 509.30 636.00 L 511.80 630.10 L 513.30 625.00 L 515.30 614.40 L 515.30 613.10 L 514.90 611.80 L 513.70 609.50 L 512.00 609.60 L 509.60 610.60 L 508.70 612.60 Z M 677.00 636.00 L 675.30 637.20 L 673.80 639.00 L 672.70 641.10 L 672.00 643.40 L 671.80 645.70 L 672.30 647.80 L 673.90 650.10 L 675.30 651.00 L 678.00 651.10 L 680.50 649.70 L 681.70 648.10 L 683.20 644.40 L 683.50 640.60 L 683.30 639.00 L 682.60 637.70 L 681.50 636.70 L 680.10 636.00 L 678.60 635.80 L 677.00 636.00 Z M 555.50 646.20 L 555.30 650.90 L 560.70 653.20 L 566.10 655.10 L 571.70 656.60 L 577.50 657.70 L 583.30 658.30 L 589.10 658.60 L 594.90 658.40 L 600.70 657.90 L 602.10 657.60 L 603.10 656.90 L 603.70 655.90 L 603.90 654.60 L 603.60 653.40 L 602.80 652.20 L 600.90 651.60 L 598.90 651.30 L 586.00 651.20 L 581.30 650.70 L 569.60 648.40 L 560.90 646.00 L 559.10 645.80 L 555.50 646.20 Z M 493.20 669.30 L 489.60 678.10 L 488.70 681.10 L 488.20 684.20 L 488.20 687.40 L 491.50 687.10 L 493.20 686.10 L 496.90 679.50 L 499.10 673.50 L 499.60 670.40 L 499.50 667.20 L 497.00 666.90 L 494.60 667.30 L 493.70 668.10 L 493.20 669.30 Z M 663.30 668.30 L 662.10 669.30 L 660.20 671.80 L 659.20 674.10 L 658.60 677.80 L 659.40 680.30 L 660.70 681.90 L 662.40 682.90 L 664.90 683.20 L 666.30 682.80 L 667.90 681.40 L 669.10 679.70 L 670.60 675.70 L 670.80 671.50 L 670.20 670.00 L 669.20 669.00 L 667.90 668.30 L 666.40 667.90 L 663.30 668.30 Z M 650.90 699.10 L 648.30 701.40 L 647.20 703.00 L 646.00 705.60 L 645.40 708.40 L 645.60 711.90 L 646.20 713.50 L 647.10 714.80 L 648.50 715.90 L 650.40 716.70 L 653.70 715.70 L 655.00 714.80 L 656.60 713.00 L 657.70 710.70 L 658.80 705.60 L 658.50 700.60 L 656.90 699.30 L 654.90 698.50 L 652.20 698.50 L 650.90 699.10 Z M 476.30 708.40 L 467.30 723.30 L 439.80 767.60 L 438.20 770.80 L 437.20 774.30 L 439.10 773.80 L 440.70 772.90 L 443.50 770.40 L 452.00 760.20 L 457.50 752.50 L 462.70 744.60 L 472.10 728.10 L 476.40 719.70 L 480.60 710.30 L 482.40 705.40 L 483.60 700.50 L 481.80 701.20 L 480.40 702.30 L 476.30 708.40 Z M 644.70 729.10 L 641.50 733.70 L 624.50 761.90 L 615.80 775.30 L 606.70 788.40 L 597.10 801.20 L 587.20 813.70 L 576.90 825.90 L 566.20 837.70 L 555.00 849.20 L 543.50 860.20 L 531.60 870.80 L 519.40 881.00 L 506.70 890.70 L 493.70 899.80 L 480.30 908.50 L 459.60 920.40 L 438.20 931.00 L 426.10 936.30 L 413.90 941.20 L 401.40 945.50 L 388.80 949.20 L 376.00 952.40 L 363.10 955.00 L 360.60 955.80 L 358.20 956.90 L 362.30 957.40 L 366.50 957.60 L 374.80 957.30 L 384.30 955.90 L 393.60 954.10 L 402.80 951.80 L 411.90 949.10 L 423.90 945.00 L 435.70 940.30 L 447.30 935.20 L 460.10 928.70 L 472.60 921.80 L 484.90 914.50 L 496.90 906.80 L 508.70 898.60 L 520.10 890.00 L 531.30 881.10 L 542.10 871.80 L 552.70 862.10 L 562.90 852.10 L 574.00 840.40 L 584.70 828.30 L 595.00 815.80 L 604.90 803.00 L 614.30 789.80 L 623.20 776.30 L 631.50 762.50 L 639.30 748.30 L 644.00 738.70 L 646.10 733.80 L 647.80 728.70 L 644.70 729.10 Z M 382.40 829.30 L 354.20 849.80 L 345.00 857.10 L 336.20 864.60 L 325.80 874.40 L 322.60 878.50 L 321.50 880.90 L 325.50 880.20 L 332.30 876.10 L 350.20 862.50 L 368.80 847.10 L 385.00 832.70 L 397.10 820.30 L 389.50 824.40 L 382.40 829.30 Z" fill="#f1d250" fill-rule="nonzero" group-id="6,51" node-id="361" stroke="none" target-height="803.4" target-width="468.60004" target-x="270.8" target-y="197.6"></path><path d="M 821.80 317.00 L 824.90 315.60 L 828.10 314.70 L 829.70 314.70 L 831.40 315.10 L 833.50 316.20 L 835.20 317.80 L 837.90 321.60 L 839.90 325.80 L 842.60 333.50 L 844.70 341.40 L 846.20 349.50 L 847.00 357.60 L 845.00 358.50 L 842.90 359.00 L 834.00 359.70 L 838.30 357.70 L 837.90 348.60 L 835.50 337.40 L 833.50 330.80 L 830.80 325.20 L 826.90 320.50 L 824.50 318.60 L 821.80 317.00 Z" fill="#aabdac" fill-rule="nonzero" group-id="7,52" node-id="369" stroke="none" target-height="45" target-width="25.200012" target-x="821.8" target-y="314.7"></path><path d="M 886.20 378.40 L 887.80 378.90 L 890.30 380.50 L 891.80 382.20 L 893.00 384.20 L 896.10 392.30 L 897.80 400.90 L 898.30 409.60 L 898.10 422.00 L 896.80 436.90 L 898.00 444.40 L 898.50 451.80 L 898.40 459.40 L 897.90 464.40 L 896.00 474.20 L 894.50 478.90 L 892.50 483.50 L 889.90 487.90 L 887.90 490.70 L 885.70 493.10 L 883.20 495.30 L 879.00 498.10 L 874.50 500.50 L 865.20 504.30 L 866.50 506.90 L 867.00 507.30 L 870.30 507.50 L 872.70 507.10 L 882.10 504.30 L 881.40 507.80 L 880.30 511.10 L 878.80 514.20 L 876.80 517.10 L 874.40 519.60 L 871.60 521.70 L 868.90 523.20 L 863.20 525.20 L 858.70 525.90 L 854.10 526.10 L 845.00 525.40 L 850.30 525.40 L 851.90 525.10 L 853.70 524.00 L 854.40 523.00 L 856.10 519.70 L 857.20 516.20 L 860.00 500.00 L 861.90 497.10 L 870.00 489.50 L 873.80 485.10 L 877.00 480.40 L 879.90 475.30 L 882.30 470.10 L 884.30 464.70 L 886.20 457.90 L 888.90 444.20 L 890.20 430.20 L 890.40 423.10 L 890.20 412.60 L 889.20 396.10 L 888.40 390.20 L 886.20 378.40 Z" fill="#aabdac" fill-rule="nonzero" group-id="7,53" node-id="374" stroke="none" target-height="147.69998" target-width="53.5" target-x="845" target-y="378.4"></path><path d="M 786.20 395.30 L 789.10 395.10 L 792.00 395.20 L 794.90 395.90 L 797.60 397.00 L 800.60 399.30 L 801.90 400.90 L 804.30 404.90 L 806.20 409.20 L 809.60 417.90 L 811.10 422.90 L 811.70 428.00 L 811.00 431.20 L 810.10 432.80 L 804.50 440.80 L 801.30 444.50 L 797.70 447.70 L 792.10 446.60 L 775.00 440.10 L 771.90 438.40 L 769.20 436.40 L 767.70 434.70 L 766.50 432.90 L 765.60 430.70 L 765.50 425.40 L 767.00 419.20 L 768.50 415.50 L 772.20 408.50 L 775.90 403.10 L 778.00 400.50 L 780.40 398.20 L 784.10 396.00 L 786.20 395.30 Z M 788.50 405.90 L 785.20 407.90 L 782.40 410.40 L 779.90 413.30 L 777.70 416.50 L 774.30 423.40 L 773.80 425.00 L 774.10 428.00 L 775.10 430.10 L 776.80 431.90 L 778.70 433.30 L 793.80 439.50 L 798.20 441.00 L 800.70 441.30 L 803.10 439.80 L 804.30 438.30 L 808.30 432.30 L 809.90 429.20 L 810.10 427.60 L 809.80 425.90 L 804.80 413.10 L 802.30 409.60 L 798.80 407.00 L 794.80 405.40 L 790.60 405.30 L 788.50 405.90 Z" fill="#aabdac" fill-rule="nonzero" group-id="7,54" node-id="379" stroke="none" target-height="52.600006" target-width="46.200012" target-x="765.5" target-y="395.1"></path><path d="M 338.70 694.90 L 342.60 693.80 L 346.60 693.30 L 354.70 693.40 L 359.40 694.60 L 363.60 697.00 L 367.00 700.50 L 368.20 702.60 L 369.00 704.80 L 369.40 707.30 L 365.50 710.00 L 362.10 713.20 L 355.50 701.50 L 353.40 698.90 L 350.90 696.60 L 349.10 695.40 L 347.20 694.80 L 342.90 694.50 L 338.70 694.90 Z" fill="#aabdac" fill-rule="nonzero" group-id="7,55" node-id="384" stroke="none" target-height="19.900024" target-width="30.699982" target-x="338.7" target-y="693.3"></path><path d="M 362.10 713.20 L 372.30 714.40 L 375.60 715.20 L 378.70 716.30 L 381.80 718.00 L 385.00 720.40 L 388.00 723.00 L 390.60 726.00 L 393.00 729.10 L 395.60 733.70 L 397.70 738.50 L 399.20 743.60 L 400.20 748.90 L 400.60 754.20 L 400.30 759.50 L 399.50 764.80 L 398.10 769.80 L 396.10 774.70 L 393.70 779.10 L 388.10 787.10 L 384.90 790.70 L 380.20 795.30 L 375.10 799.30 L 369.60 803.00 L 363.90 806.20 L 358.00 808.90 L 351.80 811.10 L 345.50 812.70 L 339.10 813.60 L 334.80 813.90 L 326.10 813.30 L 335.80 813.00 L 342.00 811.70 L 345.10 810.50 L 348.90 808.50 L 355.80 803.60 L 361.80 797.50 L 364.50 794.20 L 368.10 788.80 L 371.20 783.30 L 375.10 774.10 L 376.50 769.40 L 378.10 759.60 L 378.30 749.70 L 377.00 739.90 L 375.60 735.00 L 373.60 730.30 L 371.10 725.80 L 368.30 721.40 L 362.10 713.20 Z" fill="#aabdac" fill-rule="nonzero" group-id="7,56" node-id="389" stroke="none" target-height="100.70001" target-width="74.5" target-x="326.1" target-y="713.2"></path><path d="M 473.70 1156.30 L 478.50 1154.20 L 492.30 1146.50 L 491.90 1149.30 L 491.10 1151.80 L 489.90 1154.10 L 486.60 1158.20 L 484.50 1160.00 L 481.10 1162.20 L 477.50 1163.90 L 470.30 1166.70 L 463.00 1169.10 L 455.50 1171.00 L 440.40 1173.70 L 421.20 1175.60 L 409.70 1176.20 L 393.80 1176.30 L 378.00 1175.60 L 367.60 1174.10 L 362.40 1172.90 L 387.50 1175.30 L 395.80 1175.70 L 404.20 1175.70 L 412.60 1175.00 L 413.20 1167.70 L 423.50 1167.00 L 433.70 1165.90 L 443.90 1164.30 L 454.00 1162.20 L 463.90 1159.50 L 473.70 1156.30 Z" fill="#aabdac" fill-rule="nonzero" group-id="7,57" node-id="394" stroke="none" target-height="29.800049" target-width="129.9" target-x="362.4" target-y="1146.5"></path><path d="M 754.10 1156.20 L 756.40 1155.00 L 765.10 1149.10 L 767.50 1147.90 L 766.50 1153.10 L 764.30 1157.90 L 761.00 1162.00 L 758.00 1164.50 L 754.60 1166.60 L 745.40 1170.40 L 740.60 1171.70 L 733.30 1173.30 L 725.90 1174.40 L 711.00 1175.80 L 689.30 1176.10 L 678.40 1175.80 L 667.50 1175.10 L 656.70 1173.90 L 645.90 1172.20 L 645.70 1171.80 L 670.90 1174.40 L 677.30 1174.80 L 683.60 1174.80 L 684.40 1167.60 L 696.20 1167.60 L 708.10 1167.10 L 716.10 1166.40 L 723.90 1165.40 L 731.70 1163.90 L 739.30 1161.90 L 746.80 1159.40 L 754.10 1156.20 Z" fill="#aabdac" fill-rule="nonzero" group-id="7,58" node-id="399" stroke="none" target-height="28.199951" target-width="121.79999" target-x="645.7" target-y="1147.9"></path><path d="M 532.10 436.70 L 536.90 435.90 L 539.30 436.00 L 542.80 436.70 L 546.20 438.00 L 548.30 439.10 L 552.00 442.20 L 554.80 445.30 L 557.10 448.70 L 557.90 450.50 L 558.20 452.60 L 556.20 454.40 L 554.00 455.90 L 549.30 458.50 L 547.10 454.60 L 544.30 451.10 L 542.60 449.80 L 540.50 448.90 L 538.70 448.50 L 535.30 448.70 L 532.90 449.70 L 530.70 451.20 L 528.90 453.10 L 527.60 455.40 L 527.00 457.10 L 526.60 460.50 L 516.50 452.90 L 517.90 449.30 L 519.90 445.90 L 522.40 442.90 L 525.20 440.30 L 527.40 438.80 L 532.10 436.70 Z" fill="#4192ba" fill-rule="nonzero" group-id="8,59" node-id="407" stroke="none" target-height="24.600006" target-width="41.700012" target-x="516.5" target-y="435.9"></path><path d="M 632.60 436.80 L 638.10 435.80 L 643.70 436.30 L 646.30 437.20 L 648.80 438.50 L 653.60 442.40 L 657.40 447.40 L 660.10 452.90 L 653.90 457.10 L 650.60 458.90 L 647.90 454.10 L 646.20 451.90 L 644.20 450.10 L 642.70 449.30 L 639.10 448.40 L 637.20 448.50 L 633.90 449.70 L 631.80 451.40 L 630.00 453.50 L 626.90 458.00 L 622.00 455.80 L 617.40 453.00 L 619.10 449.60 L 621.10 446.40 L 623.50 443.40 L 626.20 440.70 L 629.30 438.50 L 632.60 436.80 Z" fill="#4192ba" fill-rule="nonzero" group-id="8,60" node-id="412" stroke="none" target-height="23.100006" target-width="42.69995" target-x="617.4" target-y="435.8"></path><path d="M 552.70 467.40 L 559.40 465.80 L 562.90 465.60 L 563.10 475.30 L 562.70 480.20 L 561.90 484.90 L 560.60 489.60 L 558.80 494.10 L 556.90 497.60 L 554.50 500.90 L 551.70 503.80 L 548.50 506.10 L 546.20 507.40 L 541.10 508.90 L 536.70 509.00 L 531.40 507.70 L 528.40 506.10 L 525.70 504.20 L 523.20 502.00 L 520.50 498.80 L 518.20 495.30 L 516.20 491.50 L 513.50 483.60 L 512.20 475.20 L 512.40 466.80 L 518.00 467.10 L 523.50 468.10 L 523.20 473.40 L 523.60 478.60 L 524.20 482.10 L 525.20 485.40 L 526.60 488.70 L 529.20 492.90 L 530.90 494.70 L 532.90 496.20 L 535.80 497.40 L 539.30 497.50 L 542.30 496.60 L 544.40 495.30 L 546.30 493.60 L 549.20 489.50 L 550.90 486.10 L 552.00 482.50 L 552.60 478.80 L 552.90 475.00 L 552.70 467.40 Z" fill="#4192ba" fill-rule="nonzero" group-id="8,61" node-id="417" stroke="none" target-height="43.399994" target-width="50.899963" target-x="512.2" target-y="465.6"></path><path d="M 613.50 465.60 L 626.90 467.10 L 624.70 469.70 L 624.00 471.10 L 623.90 472.80 L 624.90 481.50 L 626.00 485.80 L 627.60 489.80 L 629.00 492.30 L 630.80 494.60 L 634.30 497.60 L 637.40 498.50 L 639.80 498.40 L 642.20 497.60 L 644.40 496.40 L 646.20 494.70 L 648.00 492.30 L 650.80 487.10 L 652.20 482.80 L 653.10 478.30 L 653.40 473.80 L 653.30 469.40 L 648.00 466.20 L 653.30 466.80 L 663.90 465.50 L 664.50 473.60 L 663.60 481.50 L 662.20 486.80 L 660.40 491.80 L 658.00 496.60 L 656.00 499.70 L 653.50 502.60 L 650.70 505.10 L 647.60 507.10 L 645.30 508.10 L 640.50 509.20 L 634.90 508.90 L 629.60 507.00 L 624.90 503.90 L 621.10 499.90 L 617.80 494.30 L 615.30 487.50 L 614.10 482.10 L 613.50 476.60 L 613.50 465.60 Z" fill="#4192ba" fill-rule="nonzero" group-id="8,62" node-id="422" stroke="none" target-height="43.700012" target-width="51" target-x="613.5" target-y="465.5"></path></g></svg>